<?xml version="1.0" encoding="utf-8"?>
<!-- Generator: Adobe Illustrator 19.0.1, SVG Export Plug-In . SVG Version: 6.00 Build 0)  -->
<svg version="1.1" id="Слой_1" xmlns="http://www.w3.org/2000/svg" x="0px" y="0px"
     viewBox="0 0 512 512" style="enable-background:new 0 0 512 512;" xml:space="preserve">
<g>
	<g>
		<g>
			<g>
				<path d="M19.4,308.8c-1.9,0.4-3.3,2.1-4,4.5c-0.4,1.2-0.6,2.6-0.6,4.1c0,0.7,0,1.5,0.1,2.3c0.1,0.8,0.3,1.6,0.5,2.4
					c0,0,0.8,2.7,2.2,7.7c0.2,0.6,0.4,1.3,0.6,2c0.2,0.7,0.5,1.4,0.7,2.2c0.5,1.5,1.1,3.2,1.7,5c0.3,0.9,0.6,1.8,0.9,2.8
					c0.3,1,0.7,2,1.1,3c0.8,2,1.6,4.2,2.5,6.4c0.4,1.1,0.9,2.3,1.4,3.5c0.5,1.2,1.1,2.4,1.6,3.6c1.1,2.5,2.3,5,3.5,7.7
					c2.7,5.2,5.5,10.9,9,16.8c6.8,11.7,15.4,24.5,26.3,37.2c10.8,12.7,23.9,25.4,39,37c1.9,1.5,3.8,2.9,5.8,4.3c2,1.4,4,2.8,6,4.2
					c2.1,1.3,4.1,2.7,6.2,4c2.1,1.3,4.2,2.7,6.4,3.9c2.2,1.3,4.4,2.5,6.6,3.8l1.7,0.9l1.7,0.9c1.1,0.6,2.3,1.2,3.4,1.7
					c2.3,1.1,4.5,2.4,6.9,3.5c2.4,1.1,4.7,2.1,7.1,3.2c1.2,0.5,2.4,1.1,3.6,1.6c1.2,0.5,2.4,1,3.7,1.4c2.4,1,4.9,1.9,7.4,2.9
					c2.5,0.9,5,1.7,7.6,2.6c1.3,0.4,2.5,0.9,3.8,1.3c1.3,0.4,2.6,0.7,3.9,1.1c2.6,0.7,5.2,1.5,7.8,2.2c2.6,0.6,5.3,1.2,7.9,1.8
					l4,0.9c1.3,0.3,2.7,0.5,4,0.8c2.7,0.5,5.4,1,8.1,1.4c2.7,0.4,5.4,0.7,8.2,1.1c2.7,0.3,5.4,0.7,8.3,0.9c2.8,0.2,5.6,0.4,8.4,0.6
					c1.4,0.1,2.8,0.2,4.1,0.2l4,0.1c11.1,0.4,22.2-0.2,33.3-1.3c44.3-4.7,87.1-21.7,120.7-46.5c1.1-0.8,2.1-1.5,3.2-2.3
					c1-0.8,2-1.6,3.1-2.4c2-1.6,4.1-3.2,6.1-4.8c1.9-1.7,3.9-3.3,5.8-5c1-0.8,1.9-1.7,2.9-2.5c1-0.8,1.8-1.7,2.8-2.6
					c1.8-1.7,3.6-3.5,5.4-5.2c0.9-0.8,1.8-1.7,2.6-2.6c0.9-0.9,1.7-1.8,2.5-2.7c1.7-1.8,3.4-3.5,5-5.3c1.6-1.8,3.2-3.7,4.7-5.5
					c0.8-0.9,1.6-1.8,2.3-2.7c0.7-0.9,1.5-1.9,2.2-2.8c1.5-1.9,2.9-3.7,4.3-5.5l1.1-1.4l1-1.4c0.7-0.9,1.3-1.9,2-2.8
					c1.3-1.9,2.6-3.7,3.9-5.5c2.4-3.8,4.9-7.5,7.1-11.2c1.1-1.9,2.2-3.7,3.2-5.6c0.5-0.9,1.1-1.8,1.6-2.8l0.8-1.4l0.7-1.4
					c1-1.9,1.9-3.7,2.8-5.5c0.9-1.8,1.9-3.6,2.7-5.4c1.6-3.7,3.3-7.2,4.8-10.7c1.4-3.5,2.8-7,4.1-10.3c1.2-3.4,2.3-6.7,3.4-9.9
					c0.6-1.6,1-3.2,1.5-4.8c0.4-1.6,0.9-3.1,1.3-4.7c0.4-1.5,0.9-3,1.3-4.5c0.3-1.5,0.7-2.9,1-4.4c0.6-2.9,1.3-5.6,1.9-8.2
					c0.5-2.6,0.9-5.2,1.4-7.6c0.2-1.2,0.4-2.4,0.6-3.5c0.2-1.1,0.3-2.2,0.5-3.3c0.3-2.2,0.5-4.2,0.8-6c0.5-3.7,0.7-7,0.9-9.6
					c0.2-2.6,0.3-4.7,0.5-6c0.1-1.4,0.1-2,0.1-2c0.2-6.5-2.8-11.8-6.7-11.9c-3.9-0.1-7.1,5.1-7.3,11.5c0,0,0,0.7-0.1,1.9
					c-0.1,1.3-0.2,3.1-0.4,5.5c-0.2,2.4-0.3,5.4-0.9,9c-0.2,1.8-0.5,3.7-0.7,5.7c-0.1,1-0.2,2.1-0.4,3.1c-0.2,1.1-0.4,2.2-0.6,3.3
					c-0.4,2.3-0.8,4.6-1.3,7.2c-0.5,2.5-1.2,5.1-1.8,7.8c-0.3,1.4-0.6,2.7-1,4.1c-0.4,1.4-0.8,2.8-1.2,4.2c-0.4,1.4-0.8,2.9-1.2,4.4
					c-0.4,1.5-0.8,3-1.4,4.5c-1,3-2.1,6.2-3.2,9.4c-1.2,3.2-2.5,6.4-3.9,9.8c-1.4,3.3-3,6.6-4.5,10.1c-0.7,1.7-1.7,3.4-2.5,5.1
					c-0.9,1.7-1.8,3.5-2.7,5.2l-0.7,1.3l-0.7,1.3c-0.5,0.9-1,1.7-1.5,2.6c-1,1.7-2,3.5-3,5.3c-2.1,3.5-4.4,7-6.7,10.6
					c-1.2,1.7-2.5,3.5-3.7,5.2c-0.6,0.9-1.3,1.8-1.9,2.7l-0.9,1.3l-1,1.3c-1.4,1.7-2.7,3.5-4.1,5.2c-0.7,0.9-1.4,1.8-2.1,2.6
					c-0.7,0.8-1.5,1.7-2.2,2.6c-1.5,1.7-3,3.4-4.5,5.2c-1.5,1.7-3.2,3.3-4.7,5c-0.8,0.8-1.6,1.7-2.4,2.5c-0.8,0.9-1.6,1.7-2.5,2.5
					c-1.7,1.6-3.4,3.2-5.1,4.9c-0.9,0.8-1.7,1.7-2.6,2.4c-0.9,0.8-1.8,1.6-2.7,2.3c-1.8,1.6-3.6,3.1-5.5,4.7c-1.9,1.5-3.8,3-5.7,4.5
					c-1,0.8-1.9,1.5-2.9,2.3c-1,0.7-2,1.4-3,2.1c-31.8,23.4-72.1,39.5-114,43.9c-1.3,0.2-2.6,0.2-3.9,0.4l-3.9,0.3
					c-2.6,0.2-5.2,0.5-7.9,0.5c-2.6,0.1-5.3,0.1-7.9,0.2l-1.8,0l-2-0.1l-4-0.1l-4-0.1c-1.4,0-2.7-0.1-4-0.2
					c-2.6-0.2-5.1-0.4-7.7-0.6c-2.6-0.1-5.1-0.5-7.7-0.8c-2.6-0.3-5.2-0.6-7.7-1c-2.5-0.5-5.1-0.9-7.6-1.4c-1.3-0.2-2.5-0.4-3.8-0.7
					l-3.8-0.9c-2.5-0.6-5-1.1-7.5-1.7c-2.5-0.7-4.9-1.4-7.3-2.1c-1.2-0.3-2.4-0.7-3.7-1c-1.2-0.4-2.4-0.8-3.6-1.2
					c-2.4-0.8-4.8-1.6-7.1-2.4c-2.3-0.9-4.7-1.8-7-2.7c-1.2-0.5-2.3-0.9-3.5-1.4c-1.2-0.4-2.3-1-3.4-1.5c-2.2-1-4.5-2-6.7-3
					c-2.2-1-4.4-2.2-6.5-3.3c-1.1-0.6-2.2-1.1-3.2-1.7l-1.6-0.8l-1.6-0.9c-2.1-1.2-4.1-2.4-6.2-3.6c-2.1-1.1-4-2.5-6-3.7
					c-2-1.3-3.9-2.5-5.9-3.8c-1.9-1.3-3.8-2.7-5.6-4c-1.9-1.3-3.7-2.6-5.5-4c-14.3-11-26.7-23-36.9-35c-10.2-12-18.4-24-24.8-35.1
					c-3.3-5.5-5.9-10.9-8.5-15.8c-1.1-2.5-2.2-4.9-3.3-7.3c-0.5-1.2-1-2.3-1.5-3.4c-0.4-1.1-0.9-2.2-1.3-3.3
					c-0.8-2.1-1.6-4.2-2.4-6.1c-0.4-0.9-0.7-1.9-1-2.8c-0.3-0.9-0.6-1.8-0.9-2.6c-0.6-1.7-1.1-3.3-1.6-4.7c-0.2-0.7-0.5-1.4-0.7-2.1
					c-0.2-0.7-0.4-1.3-0.5-1.9c-1.3-4.7-2.1-7.3-2.1-7.3c-0.2-0.8-0.5-1.5-0.8-2.2c-0.3-0.7-0.6-1.4-0.9-2c-0.7-1.2-1.4-2.3-2.3-3.2
					C23.3,309.3,21.3,308.4,19.4,308.8z M52.8,124.2c1.6,1,2.4,3.1,2.3,5.5c0,1.2-0.3,2.5-0.7,3.9c-0.4,1.4-1,2.8-1.7,4.1
					c0,0-1,1.8-2.8,4.9c-0.9,1.6-1.8,3.5-3,5.7c-0.6,1.1-1.2,2.3-1.8,3.5c-0.3,0.6-0.7,1.3-1,1.9c-0.3,0.7-0.6,1.4-0.9,2.1
					c-1.2,2.8-2.7,5.8-4.1,9.1c-1.3,3.3-2.6,6.7-4.1,10.3c-1.2,3.6-2.5,7.4-3.8,11.2c-1.1,3.9-2.3,7.8-3.3,11.8c-0.5,2-0.9,4-1.4,6
					c-0.2,1-0.5,2-0.7,3l-0.3,1.5l-0.3,1.5c-0.4,2-0.7,4-1.1,5.9c-0.2,1-0.3,1.9-0.5,2.9c-0.1,0.5-0.2,1-0.3,1.4
					c-0.1,0.5-0.1,1-0.2,1.4c-0.5,3.8-1,7.5-1.4,11c-0.3,3.5-0.5,6.7-0.7,9.8c-0.1,1.5-0.2,3-0.2,4.5c0,1.4-0.1,2.8-0.1,4.1
					c0,1.3-0.1,2.5-0.1,3.6c0,0.6,0,1.1,0,1.6l0,0.4l0,0.1c0-0.1,0,0.2,0-0.2l0,0l0,0l0,0.2c0,0.2,0,0.5,0,0.7
					c0.1,3.6,0.1,5.6,0.1,5.6c0,6.3-2.5,11.6-6.4,11.9c-3.8,0.3-7.5-4.8-7.6-11.5c0,0-0.1-2.2-0.1-6c0-0.2,0-0.5,0-0.7l0-0.2l0-0.4
					l0-0.4c0-0.5,0-1,0-1.6c0-1.1,0.1-2.3,0.1-3.6c0-1.3,0.1-2.7,0.1-4.1c0-1.4,0-2.9,0.2-4.6c0.2-3.3,0.5-6.9,0.8-10.6
					c0.4-3.7,0.9-7.6,1.5-11.7c0.1-0.5,0.1-1,0.2-1.5c0.1-0.5,0.2-1,0.3-1.5c0.2-1,0.4-2,0.5-3.1c0.4-2.1,0.7-4.1,1.1-6.3l0.3-1.6
					l0.4-1.6c0.2-1,0.5-2.1,0.7-3.2c0.5-2.1,1-4.2,1.5-6.3c1.1-4.2,2.3-8.4,3.5-12.5c1.3-4.1,2.7-8,4-11.9c1.5-3.8,2.9-7.5,4.3-10.9
					c1.5-3.4,3-6.6,4.3-9.6c0.3-0.7,0.7-1.5,1-2.2c0.3-0.7,0.7-1.4,1-2c0.7-1.3,1.3-2.6,1.9-3.8c1.2-2.3,2.2-4.4,3.2-6.1
					c1.9-3.3,3-5.2,3-5.2c0.8-1.4,1.8-2.7,2.8-3.8c1-1.1,2.2-1.9,3.3-2.4C49,123.3,51.2,123.1,52.8,124.2z M110.7,61.6
					c1.2,1.5,1.2,3.7,0.3,6c-0.4,1.1-1.1,2.3-1.9,3.4c-0.8,1.1-1.9,2.2-3.1,3.2c0,0-1.2,1-2.9,2.6c-1.7,1.6-4.2,3.5-6.4,5.7
					c-2.3,2.2-4.5,4.3-6.2,5.9c-1.6,1.7-2.7,2.8-2.7,2.8c-2.2,2.3-4.7,3.8-7.1,4.5c-2.3,0.7-4.5,0.5-5.9-0.7
					c-1.5-1.3-1.9-3.4-1.4-5.9c0.5-2.4,2.1-5.1,4.3-7.6c0,0,1.1-1.2,2.9-3c1.8-1.7,4.2-4,6.6-6.3c2.3-2.3,4.9-4.4,6.8-6
					c1.9-1.6,3.1-2.7,3.1-2.7c1.2-1.1,2.6-1.9,4-2.5c1.4-0.6,2.7-1,3.9-1.2C107.4,59.5,109.5,60.1,110.7,61.6z M503.1,256.6
					c-3.9,0-7.1-5.1-7.3-11.4c0,0,0-0.1,0-0.3c0-0.2,0-0.6-0.1-1c-0.1-0.9-0.2-2.2-0.3-3.9c-0.1-1.7-0.3-3.8-0.5-6.3
					c-0.1-1.3-0.3-2.6-0.4-4c-0.2-1.4-0.4-2.9-0.6-4.5c-1.7-12.8-5.1-31-12.9-51.7c-1-2.6-2-5.2-3.1-7.9c-0.5-1.3-1.1-2.7-1.7-4
					c-0.6-1.3-1.2-2.7-1.8-4c-0.6-1.4-1.2-2.7-1.9-4.1c-0.7-1.3-1.4-2.7-2.1-4.1c-0.7-1.4-1.4-2.7-2.1-4.1c-0.4-0.7-0.7-1.4-1.1-2.1
					c-0.4-0.7-0.8-1.4-1.2-2.1c-6.1-11.1-13.6-22.2-22.2-33c-8.7-10.8-18.5-21.1-29.5-30.7c-10.9-9.5-22.9-18.2-35.6-25.7
					c-25.4-15-53.6-25-80.9-29.4c-3.4-0.7-6.8-1-10.2-1.5c-1.7-0.2-3.4-0.4-5-0.6c-1.7-0.1-3.3-0.2-4.9-0.4
					c-1.6-0.1-3.3-0.3-4.9-0.4c-0.8-0.1-1.6-0.1-2.4-0.2c-0.8,0-1.7,0-2.5-0.1c-3.3-0.1-6.5-0.2-9.7-0.2
					c-12.7,0.1-24.6,1.1-35.6,2.7c-21.9,3.4-39.5,9.2-51.4,13.9c-3,1.2-5.7,2.2-7.9,3.3c-2.3,1-4.2,1.9-5.8,2.6
					c-0.8,0.4-1.5,0.7-2.1,0.9c-0.6,0.3-1.1,0.6-1.5,0.8c-0.8,0.4-1.2,0.6-1.2,0.6c-2.8,1.4-5.7,2-8.1,1.9c-2.4-0.1-4.4-1-5.3-2.7
					c-0.9-1.7-0.7-3.9,0.6-6c1.3-2.1,3.6-4.2,6.6-5.7c0,0,0.4-0.2,1.3-0.7c0.4-0.2,0.9-0.5,1.6-0.8c0.6-0.3,1.4-0.6,2.2-1
					c1.7-0.8,3.7-1.7,6.1-2.8c2.4-1.1,5.2-2.2,8.4-3.5c12.7-5,31.3-11.1,54.5-14.7c11.6-1.7,24.2-2.7,37.6-2.8
					c3.3,0.1,6.7,0.2,10.1,0.2c0.8,0,1.7,0,2.5,0.1c0.8,0,1.7,0.1,2.6,0.2c1.8,0.1,3.5,0.3,5.3,0.4c1.8,0.1,3.6,0.3,5.4,0.4
					c1.8,0.2,3.5,0.4,5.3,0.7c3.6,0.5,7.2,0.8,10.8,1.5c28.9,4.6,58.8,15.3,85.7,31.1c13.4,7.9,26.1,17.1,37.7,27.2
					c11.6,10.1,22.1,21.1,31.2,32.5c9.2,11.4,17.1,23.2,23.5,34.9c0.4,0.7,0.8,1.5,1.2,2.2c0.4,0.7,0.8,1.5,1.2,2.2
					c0.8,1.5,1.5,2.9,2.2,4.4c0.7,1.5,1.5,2.9,2.2,4.3c0.7,1.4,1.3,2.9,2,4.3c0.6,1.4,1.3,2.9,1.9,4.3c0.6,1.4,1.3,2.8,1.8,4.2
					c1.1,2.8,2.2,5.6,3.3,8.3c8.2,22,11.8,41.3,13.6,54.8c0.2,1.7,0.4,3.3,0.6,4.8c0.2,1.5,0.4,2.9,0.5,4.2c0.2,2.6,0.4,4.9,0.5,6.7
					c0.1,1.8,0.2,3.2,0.3,4.2c0,0.5,0,0.8,0.1,1.1c0,0.2,0,0.4,0,0.4C510,251.3,507,256.7,503.1,256.6z"/>
			</g>
		</g>
	</g>
	<g>
		<path d="M409.1,372.1c2,4.6,5.2,4.6,7.2,0l10.1-23.1c2-4.6,3.6-4.2,3.5,0.7l-0.2,25.2c0,5,2.9,6.3,6.6,2.9l18.6-17.1
			c3.7-3.4,5-2.4,2.9,2.1l-10.5,23c-2.1,4.5,0.1,6.9,4.8,5.4l23.9-8c4.7-1.6,5.5-0.2,1.8,3.1L459,403.1c-3.7,3.3-2.7,6.4,2.2,6.9
			l25.1,2.4c4.9,0.5,5.1,2.1,0.4,3.6l-24.1,7.6c-4.7,1.5-5.1,4.7-0.8,7.2l22,12.4c4.3,2.4,3.8,4-1.1,3.4l-25.1-2.9
			c-4.9-0.6-6.6,2.2-3.6,6.2l15,20.3c3,4,1.9,5.2-2.4,2.7l-21.7-12.8c-4.3-2.5-6.9-0.6-5.8,4.2l5.5,24.6c1.1,4.9-0.4,5.5-3.3,1.5
			l-14.7-20.5c-2.9-4-6.1-3.4-7,1.5l-5,24.7c-1,4.9-2.6,4.9-3.6,0l-5-24.7c-1-4.9-4.2-5.5-7-1.5l-14.7,20.5c-2.9,4-4.4,3.4-3.3-1.5
			l5.5-24.6c1.1-4.9-1.5-6.8-5.8-4.2l-21.7,12.8c-4.3,2.5-5.4,1.3-2.4-2.7l15-20.3c3-4,1.3-6.8-3.6-6.2l-25.1,2.9
			c-4.9,0.6-5.4-1-1.1-3.4l22-12.4c4.3-2.4,4-5.7-0.8-7.2l-24.1-7.6c-4.7-1.5-4.6-3.1,0.4-3.6l25.1-2.4c4.9-0.5,5.9-3.6,2.2-6.9
			l-18.9-16.7c-3.7-3.3-2.9-4.7,1.8-3.1l23.9,8c4.7,1.6,6.9-0.8,4.8-5.4l-10.5-23c-2.1-4.5-0.7-5.5,2.9-2.1l18.6,17.1
			c3.7,3.4,6.6,2,6.6-2.9l-0.2-25.2c0-5,1.5-5.3,3.5-0.7L409.1,372.1z"/>
	</g>
	<g>
		<path d="M342.3,218.5c1.3,3.1,3.5,3.1,4.9,0l6.8-15.7c1.3-3.1,2.4-2.9,2.4,0.5l-0.1,17.1c0,3.4,2,4.3,4.5,2l12.6-11.5
			c2.5-2.3,3.4-1.6,2,1.4l-7.1,15.5c-1.4,3.1,0.1,4.7,3.3,3.6l16.2-5.4c3.2-1.1,3.7-0.1,1.2,2.1l-12.8,11.3
			c-2.5,2.2-1.8,4.3,1.5,4.6l17,1.6c3.3,0.3,3.5,1.4,0.3,2.4l-16.3,5.1c-3.2,1-3.4,3.2-0.5,4.8l14.9,8.4c2.9,1.7,2.6,2.7-0.8,2.3
			l-17-1.9c-3.3-0.4-4.4,1.5-2.4,4.2l10.2,13.7c2,2.7,1.3,3.5-1.6,1.8l-14.7-8.7c-2.9-1.7-4.7-0.4-3.9,2.9l3.7,16.7
			c0.7,3.3-0.3,3.7-2.2,1l-9.9-13.9c-2-2.7-4.1-2.3-4.8,1l-3.4,16.7c-0.7,3.3-1.8,3.3-2.4,0l-3.4-16.7c-0.7-3.3-2.8-3.8-4.8-1
			l-9.9,13.9c-2,2.7-3,2.3-2.2-1l3.7-16.7c0.7-3.3-1-4.6-3.9-2.9l-14.7,8.7c-2.9,1.7-3.6,0.9-1.6-1.8l10.2-13.7
			c2-2.7,0.9-4.6-2.4-4.2l-17,1.9c-3.3,0.4-3.7-0.7-0.8-2.3l14.9-8.4c2.9-1.7,2.7-3.8-0.5-4.8l-16.3-5.1c-3.2-1-3.1-2.1,0.3-2.4
			l17-1.6c3.3-0.3,4-2.4,1.5-4.6l-12.8-11.3c-2.5-2.2-2-3.2,1.2-2.1l16.2,5.4c3.2,1.1,4.7-0.6,3.3-3.6l-7.1-15.5
			c-1.4-3.1-0.5-3.7,2-1.4l12.6,11.5c2.5,2.3,4.5,1.4,4.5-2l-0.1-17.1c0-3.4,1-3.6,2.4-0.5L342.3,218.5z"/>
	</g>
	<g>
		<path d="M253.3,379.6c0.8,1.9,2.2,1.9,3,0l4.1-9.5c0.8-1.9,1.5-1.7,1.5,0.3l-0.1,10.4c0,2,1.2,2.6,2.7,1.2l7.7-7
			c1.5-1.4,2.1-1,1.2,0.9l-4.3,9.5c-0.8,1.9,0,2.9,2,2.2l9.9-3.3c1.9-0.6,2.3-0.1,0.7,1.3l-7.8,6.9c-1.5,1.4-1.1,2.6,0.9,2.8l10.4,1
			c2,0.2,2.1,0.9,0.2,1.5l-9.9,3.1c-2,0.6-2.1,1.9-0.3,3l9.1,5.1c1.8,1,1.6,1.6-0.5,1.4l-10.3-1.2c-2-0.2-2.7,0.9-1.5,2.6l6.2,8.4
			c1.2,1.6,0.8,2.1-1,1.1l-9-5.3c-1.8-1-2.8-0.3-2.4,1.7l2.3,10.2c0.4,2-0.2,2.3-1.4,0.6l-6-8.5c-1.2-1.7-2.5-1.4-2.9,0.6l-2.1,10.2
			c-0.4,2-1.1,2-1.5,0l-2.1-10.2c-0.4-2-1.7-2.3-2.9-0.6l-6,8.5c-1.2,1.7-1.8,1.4-1.4-0.6l2.3-10.2c0.4-2-0.6-2.8-2.4-1.7l-9,5.3
			c-1.8,1-2.2,0.5-1-1.1l6.2-8.4c1.2-1.6,0.6-2.8-1.5-2.6l-10.3,1.2c-2,0.2-2.2-0.4-0.5-1.4l9.1-5.1c1.8-1,1.6-2.3-0.3-3l-9.9-3.1
			c-2-0.6-1.9-1.3,0.2-1.5l10.4-1c2-0.2,2.5-1.5,0.9-2.8l-7.8-6.9c-1.5-1.4-1.2-1.9,0.7-1.3l9.9,3.3c1.9,0.6,2.8-0.3,2-2.2l-4.3-9.5
			c-0.8-1.9-0.3-2.3,1.2-0.9l7.7,7c1.5,1.4,2.7,0.8,2.7-1.2l-0.1-10.4c0-2,0.6-2.2,1.5-0.3L253.3,379.6z"/>
	</g>
	<g>
		<path d="M287.5,78.2c0.7,1.7,1.9,1.7,2.7,0l3.7-8.5c0.7-1.7,1.3-1.6,1.3,0.3l-0.1,9.3c0,1.8,1.1,2.3,2.4,1.1l6.8-6.3
			c1.3-1.2,1.8-0.9,1.1,0.8l-3.9,8.4c-0.8,1.7,0,2.5,1.8,2l8.8-2.9c1.7-0.6,2-0.1,0.7,1.1l-7,6.2c-1.4,1.2-1,2.3,0.8,2.5l9.2,0.9
			c1.8,0.2,1.9,0.8,0.1,1.3l-8.9,2.8c-1.7,0.5-1.9,1.7-0.3,2.6l8.1,4.6c1.6,0.9,1.4,1.5-0.4,1.3l-9.2-1.1c-1.8-0.2-2.4,0.8-1.3,2.3
			l5.5,7.5c1.1,1.5,0.7,1.9-0.9,1l-8-4.7c-1.6-0.9-2.5-0.2-2.1,1.6l2,9.1c0.4,1.8-0.1,2-1.2,0.5l-5.4-7.6c-1.1-1.5-2.2-1.2-2.6,0.6
			l-1.9,9.1c-0.4,1.8-1,1.8-1.3,0l-1.9-9.1c-0.4-1.8-1.5-2-2.6-0.6l-5.4,7.6c-1.1,1.5-1.6,1.2-1.2-0.5l2-9.1
			c0.4-1.8-0.6-2.5-2.1-1.6l-8,4.7c-1.6,0.9-2,0.5-0.9-1l5.5-7.5c1.1-1.5,0.5-2.5-1.3-2.3l-9.2,1.1c-1.8,0.2-2-0.4-0.4-1.3l8.1-4.6
			c1.6-0.9,1.5-2.1-0.3-2.6l-8.9-2.8c-1.7-0.5-1.7-1.1,0.1-1.3l9.2-0.9c1.8-0.2,2.2-1.3,0.8-2.5l-7-6.2c-1.4-1.2-1.1-1.7,0.7-1.1
			l8.8,2.9c1.7,0.6,2.5-0.3,1.8-2l-3.9-8.4c-0.8-1.7-0.3-2,1.1-0.8l6.8,6.3c1.3,1.2,2.4,0.7,2.4-1.1l-0.1-9.3c0-1.8,0.6-2,1.3-0.3
			L287.5,78.2z"/>
	</g>
	<g>
		<path d="M118,267.4c0.9,2.1,2.4,2.1,3.3,0l4.7-10.7c0.9-2.1,1.7-2,1.6,0.3l-0.1,11.7c0,2.3,1.4,2.9,3,1.4l8.6-7.9
			c1.7-1.6,2.3-1.1,1.3,1l-4.8,10.6c-1,2.1,0.1,3.2,2.2,2.5l11.1-3.7c2.2-0.7,2.6-0.1,0.8,1.4l-8.8,7.7c-1.7,1.5-1.3,3,1,3.2
			l11.6,1.1c2.3,0.2,2.4,1,0.2,1.7l-11.1,3.5c-2.2,0.7-2.4,2.2-0.3,3.3l10.2,5.8c2,1.1,1.8,1.8-0.5,1.6l-11.6-1.3
			c-2.3-0.3-3,1-1.7,2.9l7,9.4c1.4,1.9,0.9,2.4-1.1,1.2l-10.1-5.9c-2-1.2-3.2-0.3-2.7,2l2.5,11.4c0.5,2.2-0.2,2.6-1.5,0.7l-6.8-9.5
			c-1.3-1.9-2.8-1.6-3.3,0.7l-2.3,11.5c-0.5,2.3-1.2,2.3-1.7,0l-2.3-11.5c-0.5-2.3-1.9-2.6-3.3-0.7l-6.8,9.5c-1.3,1.9-2,1.6-1.5-0.7
			l2.5-11.4c0.5-2.2-0.7-3.1-2.7-2l-10.1,5.9c-2,1.2-2.5,0.6-1.1-1.2l7-9.4c1.4-1.9,0.6-3.2-1.7-2.9l-11.6,1.3
			c-2.3,0.3-2.5-0.5-0.5-1.6l10.2-5.8c2-1.1,1.8-2.6-0.3-3.3l-11.2-3.5c-2.2-0.7-2.1-1.4,0.2-1.7l11.6-1.1c2.3-0.2,2.8-1.6,1-3.2
			l-8.8-7.7c-1.7-1.5-1.3-2.2,0.8-1.4l11.1,3.7c2.2,0.7,3.2-0.4,2.2-2.5l-4.8-10.6c-1-2.1-0.3-2.5,1.3-1l8.6,7.9
			c1.7,1.6,3.1,0.9,3-1.4l-0.1-11.7c0-2.3,0.7-2.5,1.6-0.3L118,267.4z"/>
	</g>
	<g>
		<path d="M233.1,213.1c0.7,1.6,1.9,1.6,2.6,0l3.6-8.4c0.7-1.6,1.3-1.5,1.3,0.3l-0.1,9.1c0,1.8,1.1,2.3,2.4,1.1l6.7-6.2
			c1.3-1.2,1.8-0.9,1.1,0.8l-3.8,8.3c-0.7,1.6,0,2.5,1.7,1.9l8.7-2.9c1.7-0.6,2-0.1,0.7,1.1l-6.8,6c-1.3,1.2-1,2.3,0.8,2.5l9.1,0.9
			c1.8,0.2,1.9,0.8,0.1,1.3l-8.7,2.7c-1.7,0.5-1.8,1.7-0.3,2.6l7.9,4.5c1.6,0.9,1.4,1.4-0.4,1.2l-9.1-1c-1.8-0.2-2.4,0.8-1.3,2.3
			l5.4,7.3c1.1,1.4,0.7,1.9-0.9,1l-7.9-4.6c-1.5-0.9-2.5-0.2-2.1,1.5l2,8.9c0.4,1.8-0.1,2-1.2,0.5l-5.3-7.4c-1-1.5-2.2-1.2-2.5,0.5
			l-1.8,8.9c-0.4,1.8-0.9,1.8-1.3,0L232,249c-0.4-1.8-1.5-2-2.5-0.5l-5.3,7.4c-1,1.5-1.6,1.2-1.2-0.5l2-8.9c0.4-1.8-0.6-2.4-2.1-1.5
			l-7.9,4.6c-1.5,0.9-1.9,0.5-0.9-1l5.4-7.3c1.1-1.4,0.5-2.5-1.3-2.3l-9.1,1c-1.8,0.2-2-0.4-0.4-1.2l7.9-4.5
			c1.6-0.9,1.4-2.1-0.3-2.6l-8.7-2.7c-1.7-0.5-1.7-1.1,0.1-1.3l9.1-0.9c1.8-0.2,2.2-1.3,0.8-2.5l-6.8-6c-1.3-1.2-1.1-1.7,0.7-1.1
			l8.7,2.9c1.7,0.6,2.5-0.3,1.7-1.9l-3.8-8.3c-0.7-1.6-0.3-2,1.1-0.8l6.7,6.2c1.3,1.2,2.4,0.7,2.4-1.1l-0.1-9.1
			c0-1.8,0.6-1.9,1.3-0.3L233.1,213.1z"/>
	</g>
	<g>
		<path d="M155.2,85c1.5,3.5,4,3.5,5.5,0l7.7-17.6c1.5-3.5,2.7-3.2,2.7,0.6l-0.2,19.2c0,3.8,2.2,4.8,5,2.2l14.2-13
			c2.8-2.6,3.8-1.8,2.2,1.6l-8,17.5c-1.6,3.4,0.1,5.3,3.7,4.1l18.2-6.1c3.6-1.2,4.2-0.1,1.4,2.4l-14.4,12.7
			c-2.8,2.5-2.1,4.8,1.7,5.2l19.1,1.8c3.8,0.4,3.9,1.6,0.3,2.7l-18.3,5.8c-3.6,1.1-3.9,3.6-0.6,5.5l16.7,9.5c3.3,1.9,2.9,3-0.8,2.6
			l-19.1-2.2c-3.8-0.4-5,1.7-2.7,4.7l11.4,15.4c2.2,3,1.4,4-1.8,2l-16.5-9.7c-3.3-1.9-5.3-0.5-4.4,3.2l4.2,18.7
			c0.8,3.7-0.3,4.2-2.5,1.1l-11.1-15.6c-2.2-3.1-4.6-2.6-5.4,1.1l-3.8,18.8c-0.8,3.7-2,3.7-2.7,0l-3.8-18.8
			c-0.8-3.7-3.2-4.2-5.4-1.1L136.2,175c-2.2,3.1-3.3,2.6-2.5-1.1l4.2-18.7c0.8-3.7-1.2-5.1-4.4-3.2l-16.5,9.7c-3.3,1.9-4.1,1-1.8-2
			l11.4-15.4c2.2-3,1-5.2-2.7-4.7l-19.1,2.2c-3.8,0.4-4.1-0.7-0.8-2.6l16.7-9.5c3.3-1.9,3-4.3-0.6-5.5l-18.3-5.8
			c-3.6-1.1-3.5-2.4,0.3-2.7l19.1-1.8c3.8-0.4,4.5-2.7,1.7-5.2l-14.4-12.7c-2.8-2.5-2.2-3.6,1.4-2.4l18.2,6.1
			c3.6,1.2,5.2-0.6,3.7-4.1l-8-17.5c-1.6-3.4-0.6-4.2,2.2-1.6l14.2,13c2.8,2.6,5,1.6,5-2.2L144.8,68c0-3.8,1.2-4,2.7-0.6L155.2,85z"
			/>
	</g>
</g>
</svg>
