<?xml version="1.0" encoding="utf-8"?>
<!-- Generator: Adobe Illustrator 19.0.1, SVG Export Plug-In . SVG Version: 6.00 Build 0)  -->
<svg version="1.1" id="Слой_1" xmlns="http://www.w3.org/2000/svg" x="0px" y="0px"
     viewBox="0 0 512 512" style="enable-background:new 0 0 512 512;" xml:space="preserve">
<style type="text/css">
	.st0{fill:#1D1D1B;}
	.st1{stroke:#000000;stroke-width:4;stroke-miterlimit:10;}
</style>
<g>
	<g>
		<g>
			<path d="M145.9,490.3c0,3.9,3.5,7,7.8,7h296.8h0.7l0.7-0.1c4.3-0.9,8.4-2.5,12.1-4.8c1.8-1.1,3.5-2.4,5.1-3.7
				c0.8-0.7,1.6-1.4,2.3-2.1l1.2-1.2l0.9-1l1.1-1.2l1-1.2c0.6-0.8,1.3-1.6,1.8-2.4c1.2-1.7,2.3-3.4,3.2-5.2c2-3.5,3.5-7.3,4.6-11.2
				l0.2-0.7l0-0.7c2.6-41.1,0.3-81.9,1.2-122c0.1-4.3-2.9-7.9-6.8-8c-3.9-0.1-7.1,3.3-7.2,7.6c-0.8,41,1.4,81.5-1.2,121.5l0.3-1.5
				c-0.8,2.9-2,5.7-3.4,8.3c-0.7,1.3-1.5,2.6-2.4,3.8c-0.4,0.6-0.9,1.2-1.3,1.8l-0.7,0.9l-0.7,0.8l-0.9,1l-0.7,0.7
				c-0.5,0.5-1.1,1-1.6,1.4c-1.1,0.9-2.2,1.8-3.4,2.5c-2.4,1.5-4.9,2.5-7.5,3l1.4-0.1H153.7C149.4,483.3,145.9,486.5,145.9,490.3z
				 M120.1,375.5c3.9,0,7,3.4,7.1,7.7c0,0,0.3,22.5,0.6,44.9c0.1,5.6,0.2,11.2,0.2,16.5c0,2.6,0.1,5.2,0.1,7.6c0,1.2,0,2.4,0.1,3.5
				c0,1,0,2,0.1,3c0.2,3.8,0.7,6.8,1.2,8.8c0.3,1,0.5,1.8,0.6,2.3c0.2,0.5,0.3,0.8,0.3,0.8c0.1,0.4,0.2,0.8,0.3,1.3
				c0.1,0.4,0.1,0.8,0.1,1.2c-0.1,0.8-0.2,1.7-0.5,2.5c-0.6,1.6-1.6,3.2-3.2,4.3c-1.6,1.1-3.6,1.3-5.5,0.4c-1-0.4-1.9-1.1-2.6-2
				c-0.4-0.4-0.7-0.9-1.1-1.5c-0.3-0.5-0.5-1.1-0.8-1.7c0,0-0.1-0.4-0.4-1.1c-0.2-0.7-0.5-1.8-0.9-3.2c-0.6-2.8-1.3-6.7-1.5-11.3
				c-0.1-1.2-0.1-2.3-0.1-3.6c0-1.1,0-2.3-0.1-3.5c0-2.4-0.1-5-0.1-7.6c-0.1-5.3-0.2-10.9-0.2-16.5c-0.3-22.5-0.6-44.9-0.6-44.9
				C113.1,379.1,116.2,375.6,120.1,375.5z M119.6,318.5c3.9,0,7,3.4,7.1,7.7l0.1,17.1c0,4.3-3.1,7.8-6.9,7.9c-3.9,0-7-3.4-7.1-7.7
				l-0.1-17.1C112.6,322.1,115.7,318.5,119.6,318.5z M243,64.4c0,3.9-3.5,7-7.8,7c-18.4,0-36.7-0.3-54.9-0.2
				c-9.1,0-18.1,0.1-27.3,0.4l-1.7,0l-0.8,0c-0.2,0-0.4,0-0.6,0c-0.8,0-1.5,0.2-2.3,0.3c-1.5,0.3-2.9,0.9-4.4,1.8
				c-0.7,0.4-1.4,0.9-2.1,1.4c-0.3,0.3-0.7,0.6-1,0.8c-0.2,0.1-0.2,0.2-0.5,0.4l-0.6,0.6c-0.4,0.4-0.9,1-1.8,2
				c-0.4,0.5-1,1.2-1.8,1.9c-0.8,0.7-1.8,1.5-3,2.1l1.8-1.3c-0.9,0.9-1.4,1.7-2.4,3.8l0.4-0.9c-0.8,2.3-1.9,4.8-2.9,6.8l-0.3,0.7
				l-0.2,0.5c-0.1,0.3-0.3,0.7-0.4,1c-0.2,0.7-0.4,1.4-0.5,1.8l-0.3,12.1l-0.5,25.8c-0.3,17.2-0.5,34.4-0.7,51.6
				c-0.3,34.4-0.4,68.8-0.3,103.2c0,4.3-3.1,7.8-7,7.8c-3.9,0-7-3.5-7-7.8c-0.1-34.4,0-68.9,0.3-103.4c0.2-17.2,0.4-34.5,0.7-51.7
				l0.5-25.8l0.1-6.5l0.1-3.2l0-1.6l0-0.8l0-0.4l0-0.5c0-0.3,0.1-0.5,0.1-0.7c0.3-1.8,0.7-3.1,1.1-4.5c0.2-0.7,0.5-1.3,0.8-2
				c0.1-0.3,0.3-0.7,0.5-1l0.4-0.8c0.9-1.8,1.6-3.3,2.1-5l0.2-0.5l0.2-0.4c0.5-1,1.1-2.3,2-3.6c0.8-1.3,1.9-2.7,3.1-3.8l2.6,0.3
				c0-0.1,0-0.1-0.1-0.2l-0.1-0.2l-0.2-0.2c-0.2-0.2-0.3-0.3-0.5-0.7l-0.2-0.2l0,0l0,0c0.1,0,0.3-0.3,0.6-0.6
				c0.6-0.7,1.5-1.9,2.8-3.1l0.6-0.6c0.2-0.2,0.5-0.5,0.8-0.7c0.6-0.5,1.1-0.9,1.7-1.4c1.1-0.9,2.3-1.7,3.6-2.5
				c2.5-1.5,5.3-2.7,8.3-3.4c1.5-0.3,3-0.6,4.5-0.7c0.4,0,0.8,0,1.1-0.1l0.9,0l1.7,0c9.2-0.2,18.4-0.4,27.6-0.4
				c18.4,0,36.7,0.3,54.9,0.2C239.5,57.4,243,60.5,243,64.4z"/>
		</g>
	</g>
</g>
<g>
	<g>
		<path d="M371.9,71.9c22.6,0.2,45.3-0.5,67.9,0.6c8.7,0.4,16.8,0.6,23.3,7.1c6.4,6.5,7,14.2,7.5,22.8c2.3,40.5,1.9,81.1,1.5,121.6
			c-0.3,24.1-0.4,48.1,0.1,72.2c0.2,9.6,15.2,9.7,15,0c-0.8-43.8,0.5-87.6,0.3-131.4c-0.1-22.8-0.7-45.6-2.2-68.3
			c-1.2-18.4-13.1-35.3-32.3-38.1c-13.2-1.9-27-1.5-40.3-1.6c-13.6-0.1-27.2,0.1-40.8,0C362.2,56.8,362.2,71.8,371.9,71.9
			L371.9,71.9z"/>
	</g>
</g>
<g>
	<g>
		<path d="M232.9,65.4c0,0.1,0,0.2,0,0.3c1.7-1.7,3.3-3.3,5-5c-17,2.1-33,11.7-38.7,28.4c-5.4,15.7,1.5,32.6,14.5,42.2
			c15.5,11.5,35,9.3,53.2,9.3c23.6,0,47.2,0,70.8,0c8.6,0,17.2,0,25.8,0c8.1,0,16.1-0.3,23.9-3.3c17.1-6.6,29.8-23.1,27.1-42
			c-2.9-20-21.3-32.3-40.2-34.6c1.7,1.7,3.3,3.3,5,5c0-0.1,0-0.2,0-0.3c0-6.4-10-6.4-10,0c0,0.1,0,0.2,0,0.3c0,2.9,2.3,4.7,5,5
			c14.4,1.7,29,11.9,30.5,27.2c1.5,15-10.3,27.2-24,31.1c-5.8,1.7-11.6,1.6-17.5,1.6c-7.4,0-14.8,0-22.2,0c-32.8,0-65.5,0.5-98.3,0
			c-15.9-0.2-33.3-9.8-35.4-27c-2.2-17.9,14.1-31,30.4-33c2.7-0.3,5-2,5-5c0-0.1,0-0.2,0-0.3C242.9,59,232.9,59,232.9,65.4
			L232.9,65.4z"/>
	</g>
</g>
<g>
	<g>
		<path d="M271.6,15.8c11.3-1,22.7-1.6,34.1-1.6c11.1,0,23.2-0.6,34.1,1.4c9,1.6,15.4,10.7,18.9,18.5c3.9,9,5.1,18.9,5.1,28.6
			c0,6.4,10,6.4,10,0c-0.1-20.8-6.1-45.6-26.6-55.2c-5-2.3-10.5-2.3-15.9-2.6c-6.6-0.4-13.3-0.7-20-0.7c-13.3-0.2-26.6,0.4-39.9,1.6
			C265.3,6.4,265.2,16.4,271.6,15.8L271.6,15.8z"/>
	</g>
</g>
<g>
	<g>
		<path d="M246.8,46.9c1.2-8.9,5.1-17.1,10.9-23.8c4.2-4.9-2.9-12-7.1-7.1c-7.7,9-12.3,19.2-13.8,30.9
			C235.9,53.3,245.9,53.2,246.8,46.9L246.8,46.9z"/>
	</g>
</g>
<g>
	<g>
		<path d="M273.5,102.7c1.4,10.3-14.5,12.5-16,2.3C256.1,94.6,271.1,92.9,273.5,102.7c1.6,6.2,11.2,3.6,9.6-2.7
			c-2.4-9.5-11.6-16-21.4-13.8c-9.6,2.1-15.8,11.8-13.8,21.4c2,9.4,11.4,15.5,20.7,13.9c10.5-1.8,15.9-11.5,14.5-21.5
			C282.3,93.7,272.7,96.4,273.5,102.7z"/>
	</g>
</g>
<g>
	<g>
		<path d="M348.9,103.9c-0.5,10.3-16.1,10.4-16.1,0C332.8,93.4,348.4,93.6,348.9,103.9c0.3,6.4,10.3,6.4,10,0c-0.5-9.8-7.9-18-18-18
			c-9.8,0-18,8.2-18,18c0,9.8,8.3,18,18,18c10.2,0,17.5-8.3,18-18C359.2,97.5,349.2,97.5,348.9,103.9z"/>
	</g>
</g>
<g>
	<g>
		<path class="st0" d="M266.8,193.4c48.8,0,97.5,0,146.3,0c3.2,0,3.2-5,0-5c-48.8,0-97.5,0-146.3,0
			C263.5,188.4,263.5,193.4,266.8,193.4L266.8,193.4z"/>
	</g>
</g>
<g>
	<g>
		<path class="st0" d="M180.1,193.4c24.7,0,49.4,0,74.2,0c3.2,0,3.2-5,0-5c-24.7,0-49.4,0-74.2,0
			C176.9,188.4,176.9,193.4,180.1,193.4L180.1,193.4z"/>
	</g>
</g>
<g>
	<g>
		<path class="st0" d="M339.8,220.6c24.4,0,48.8,0,73.3,0c3.2,0,3.2-5,0-5c-24.4,0-48.8,0-73.3,0
			C336.6,215.6,336.6,220.6,339.8,220.6L339.8,220.6z"/>
	</g>
</g>
<g>
	<g>
		<path class="st0" d="M180.1,220.6c48.8,0,97.5,0,146.3,0c3.2,0,3.2-5,0-5c-48.8,0-97.5,0-146.3,0
			C176.9,215.6,176.9,220.6,180.1,220.6L180.1,220.6z"/>
	</g>
</g>
<g>
	<g>
		<path class="st0" d="M268.7,247.7c48.1,0,96.3,0,144.4,0c3.2,0,3.2-5,0-5c-48.1,0-96.3,0-144.4,0
			C265.5,242.7,265.4,247.7,268.7,247.7L268.7,247.7z"/>
	</g>
</g>
<g>
	<g>
		<path class="st0" d="M180.1,247.7c24.4,0,48.8,0,73.3,0c3.2,0,3.2-5,0-5c-24.4,0-48.8,0-73.3,0
			C176.9,242.7,176.9,247.7,180.1,247.7L180.1,247.7z"/>
	</g>
</g>
<g>
	<g>
		<path class="st0" d="M324.8,274.8c29.4,0,58.8,0,88.3,0c3.2,0,3.2-5,0-5c-29.4,0-58.8,0-88.3,0
			C321.6,269.8,321.6,274.8,324.8,274.8L324.8,274.8z"/>
	</g>
</g>
<g>
	<g>
		<path class="st0" d="M180.1,274.8c43.7,0,87.4,0,131.2,0c3.2,0,3.2-5,0-5c-43.7,0-87.4,0-131.2,0
			C176.9,269.8,176.9,274.8,180.1,274.8L180.1,274.8z"/>
	</g>
</g>
<path class="st0" d="M403.5,403.4c0,17.6-14.2,38.2-31.8,38.2c-17.6,0-31.8-20.7-31.8-38.2c0-17.6,14.2-31.8,31.8-31.8
	C389.3,371.6,403.5,385.8,403.5,403.4z"/>
<path class="st0" d="M366.9,350.2c0,9.7-7.9,17.5-17.5,17.5c-9.7,0-17.5-7.9-17.5-17.5c0-9.7,15-25.5,24.7-25.5
	C366.2,324.7,366.9,340.5,366.9,350.2z"/>
<path class="st0" d="M406.8,350.2c0,9.7-7.9,17.5-17.5,17.5c-9.7,0-17.5-7.9-17.5-17.5c0-9.7,0.7-25.5,10.4-25.5
	S406.8,340.5,406.8,350.2z"/>
<path class="st0" d="M337.1,383c0,8.4-6.8,15.2-15.2,15.2c-8.4,0-15.2-6.8-15.2-15.2c0-8.4,6.8-23,15.2-23
	C330.3,359.9,337.1,374.6,337.1,383z"/>
<path class="st0" d="M431.1,381.4c0,8.4-6.8,15.2-15.2,15.2c-8.4,0-15.2-6.8-15.2-15.2c0-8.4,5.1-24.9,13.5-24.9
	C422.6,356.5,431.1,373,431.1,381.4z"/>
<path class="st1" d="M21.3,139.8l-2.9,265.7l0,0l-0.3,20.3c-0.2,13.9,10.7,25.1,24.3,24.9l19-0.3c13.6-0.2,25.8-11.4,26-25.3
	l0.6-20.2l0.3,0l3.7-266.3l-34.7-34.7L21.3,139.8z M77.4,420.3c-0.1,10.2-9.1,18.4-19.1,18.5L44.5,439c-10,0.1-17.9-8-17.8-18.2
	l0.2-14.9l51-0.8L77.4,420.3z M77.8,381.7l-0.2,13c0,1.4-1.5,2.5-3.4,2.6l-40.6,0.6c-1.8,0-3.3-1.1-3.3-2.5l0.2-13
	c0-1.4,1.5-2.5,3.4-2.6l40.6-0.6C76.3,379.3,77.8,380.4,77.8,381.7z M80,148.6l-1.6,115.4c0,1.6-2.3,105.2-4,105.2l-14,0.2
	c0,0,0-0.1,0-0.1l2.2-202.4c0-3.4-2.7-6.1-6-6c-3.4,0-6.2,2.8-6.2,6.2l-2.2,202.4c0,0,0,0.1,0,0.1l-14.6,0.2c-1.7,0-3.1-1.2-3.1-2.8
	L33,149.2c0-1.6,1.4-2.9,3.1-2.9l40.8-0.6C78.7,145.7,80,147,80,148.6z M72.6,134.3l-32,0.4l8.9-8.9l14.3-0.3L72.6,134.3z"/>
</svg>
