<?xml version="1.0" encoding="utf-8"?>
<!-- Generator: Adobe Illustrator 19.0.1, SVG Export Plug-In . SVG Version: 6.00 Build 0)  -->
<svg version="1.1" id="Слой_1" xmlns="http://www.w3.org/2000/svg" x="0px" y="0px"
     viewBox="0 0 512 512" style="enable-background:new 0 0 512 512;" xml:space="preserve">
<style type="text/css">
	.st0{fill:#222221;}
</style>
<g>
	<g>
		<g>
			<path class="st0" d="M459.7,290.4c-0.5,25.1-1.2,50.2-2.6,75.2c-1.4,25.2-3,50.6-7.8,75.3c-1.8,9.4,12.6,13.5,14.5,4
				c5-25.6,6.8-51.8,8.3-77.8c1.4-25.6,2.2-51.2,2.7-76.8C474.9,280.8,459.9,280.8,459.7,290.4L459.7,290.4z"/>
		</g>
	</g>
	<g>
		<g>
			<path class="st0" d="M232.4,113.9c11.4-23,30.6-43.1,53.8-55.3c33.7-17.7,77.4-13.3,108.2,8.6c24.5,17.4,38.5,47.6,47.3,75.7
				c9.4,30,14.2,61.2,16.5,92.5c1.4,18.4,1.7,36.7,1.5,55.1c-0.1,9.7,14.9,9.7,15,0c0.5-49.1-3.1-99.2-17-146.5
				c-9.2-31.4-23.7-64.1-49.8-85.2C376.1,33,328.2,24.9,290.2,40.2c-30,12.1-56.3,37-70.8,66.1C215.1,114.9,228.1,122.5,232.4,113.9
				L232.4,113.9z"/>
		</g>
	</g>
</g>
<g>
	<g>
		<path class="st0" d="M426.1,383.8c-2.4,25.8-5.7,51.4-9.5,77c-0.6,4,1,8,5.2,9.2c3.5,1,8.6-1.2,9.2-5.2c4-26.9,7.5-53.9,10.1-81
			C442,374.2,427,374.3,426.1,383.8L426.1,383.8z"/>
	</g>
</g>
<g>
	<g>
		<path class="st0" d="M429.2,340.4c-0.4,7.6-0.8,15.2-1.4,22.7c-0.7,9.6,14.3,9.6,15,0c0.5-7.6,1-15.2,1.4-22.7
			C444.6,330.8,429.6,330.8,429.2,340.4L429.2,340.4z"/>
	</g>
</g>
<g>
	<g>
		<path class="st0" d="M251.3,134.2c0.1-0.4,0.8-2,0-0.1c0.2-0.5,0.4-1,0.7-1.5c0.4-0.9,0.8-1.9,1.3-2.8c1.2-2.4,2.4-4.8,3.7-7.2
			c3.1-5.6,6.6-11,10.3-16.2c8.2-11.2,18.4-21.5,30.5-28.6c29.1-17.1,64.8-7.1,87.5,15.9c20.9,21.1,31,51,37.3,79.3
			c6.4,28.8,8.8,58.4,9.2,87.9c0.2,17.3-1.2,34.4-1.5,51.7c-0.2,9.7,14.8,9.7,15,0c0.3-15.2,1.6-30.4,1.5-45.7
			c-0.1-31.4-2.5-63-8.9-93.7c-6.5-31.2-17.6-63.5-39.5-87.4c-24.9-27.2-65.4-40.5-100-25.2c-28.7,12.6-50.2,41.2-61.8,69.7
			c-1.5,3.8,1.7,8.2,5.2,9.2C246.4,140.7,249.8,138,251.3,134.2L251.3,134.2z"/>
	</g>
</g>
<g>
	<g>
		<path class="st0" d="M278.1,170.4c-1.7-2.6-1.1-3.7,0.2-6.4c2-4,2.6-8.8,1.4-13.2c-1.2-4.6-4.3-8.3-8.2-10.9
			c-3.6-2.4-7.4-4.4-11-6.6c-15.4-9.3-30.7-18.5-46.1-27.8c-11.7-7.1-23.3-14.4-35.1-21.2c-2.3-1.3-4.6-2.3-7.2-2.7
			c-4-0.7-8.3-0.1-11.8,1.9c-3.5,1.9-4.7,4.9-7.5,7.4c-2,1.7-4.4,0.9-6.8,0.6c-3-0.4-6-0.6-9.1-0.6c-7.6,0.1-15.3,1.5-22.3,4.3
			c-7.5,3-15.5,7.3-19.4,14.7c-3.3,6.2-3.5,13.7-0.8,20.2c2.3,5.5,6.5,9.1,11.5,12.1c9.9,6,19.8,12.1,29.7,18.1
			c31.3,19.1,62.6,38.2,93.9,57.2c8.2,5,16.3,10.3,24.7,15c9,5.1,19.9,4.5,27.9-2.3c11.9-10.1,9.6-30.6,4.6-43.7
			C284.5,180.7,281.7,175.3,278.1,170.4c-2.8-3.8-7.6-5.7-12-3.1c-3.8,2.2-5.9,8.1-3.1,12c6.9,9.5,11.7,21.8,9.6,33.7
			c-0.9,5.1-5.5,6.8-9.7,4.4c-7.3-4.3-14.5-8.8-21.7-13.2c-28.9-17.6-57.8-35.2-86.7-52.9c-11.3-6.9-22.5-13.7-33.8-20.6
			c-4.6-2.8-15.7-7.6-8.7-14.4c4.7-4.6,13.5-7,19.9-7.7c5.7-0.7,11.1,0.1,16.2,0.6c8.1,0.9,14.6-2.9,19.5-9c1.4-1.7,0.8-2.1,2.3-1.2
			c9.7,5.9,19.5,11.8,29.2,17.6c14.7,8.9,29.4,17.7,44.1,26.6c5.2,3.1,10.4,6.3,15.5,9.4c1.2,0.7,2.5,1.5,3.7,2.2
			c0.2,0.1,0.5,0.2,0.6,0.4c-0.8-0.9-0.2-0.3-0.3,0c-0.1,0.7-0.3,1-0.6,1.8c-1.2,3.8-2.8,6.7-2.8,10.8c0.1,4,1.4,8,3.6,11.3
			C269.1,188.6,284.3,179.9,278.1,170.4z"/>
	</g>
</g>
<g>
	<g>
		<path class="st0" d="M198.3,272.6c8.5,5.3,16.8,11,25.5,15.9c8.8,5,18.8,6.3,26.4-1.5c10.1-10.4,24.6-28.3,10.8-42.1
			c-3.3-3.3-8.5-5.4-12.4-7.8c-4.6-2.8-9.1-5.6-13.7-8.3c-8.5-5.2-17.1-10.4-25.7-15.5c-17.9-10.8-35.7-21.8-53.5-32.8
			c-19.4-12-39.1-23.2-58.2-35.6c-9.5-6.2-18.3,9-8.8,15.1c13,8.5,26.3,16.4,39.6,24.4c13.7,8.2,27,17.1,40.7,25.4
			c27.1,16.3,54.3,32.6,81.3,49c-1-1-2.1-2.1-3.1-3.1c2.5,3.4,1.6,5.4-0.7,8.9c-1.3,1.9-2.8,3.6-4.3,5.3c-1.2,1.4-3.2,4.5-4.9,5.3
			c-2.5,1.2-10.1-4.9-12.6-6.5c-5.9-3.7-11.8-7.4-17.7-11C197.6,251.6,188.8,266.7,198.3,272.6L198.3,272.6z"/>
	</g>
</g>
<g>
	<g>
		<path class="st0" d="M165.9,252.9c4.5,2.7,9,5.4,13.5,8c4,2.3,9.8,1,12-3.1c2.2-4.2,1.1-9.5-3.1-12c-4.5-2.6-9-5.3-13.5-8
			c-3.9-2.4-9.8-1-12,3.1C160.5,245.2,161.7,250.4,165.9,252.9L165.9,252.9z"/>
	</g>
</g>
<g>
	<g>
		<path class="st0" d="M130.8,258c-7.2,12.1-14.4,24.3-21.4,36.5c-4.8,8.4,8.1,15.9,13,7.6c7.1-12.2,14.2-24.4,21.4-36.5
			C148.7,257.3,135.8,249.7,130.8,258L130.8,258z"/>
	</g>
</g>
<g>
	<g>
		<path class="st0" d="M154.6,361.1c-2.1,6.8-4.1,13.5-6,20.3c-2.7,9.3,11.8,13.3,14.5,4c2-6.8,4-13.6,6-20.3
			C171.9,355.8,157.4,351.9,154.6,361.1L154.6,361.1z"/>
	</g>
</g>
<g>
	<g>
		<path class="st0" d="M36.4,276.5c-5.4,4.6-10.7,9.3-16,13.9c-3,2.7-2.7,7.9,0,10.6c3,3,7.6,2.7,10.6,0c5.3-4.7,10.6-9.3,16-13.9
			c3.1-2.6,2.7-7.9,0-10.6C44,273.5,39.5,273.9,36.4,276.5L36.4,276.5z"/>
	</g>
</g>
<g>
	<g>
		<path class="st0" d="M177.6,278.1c-6,20.1-11.9,40.2-17.6,60.3c-2.6,9.3,11.8,13.3,14.5,4c5.7-20.2,11.6-40.3,17.6-60.3
			C194.8,272.8,180.3,268.8,177.6,278.1L177.6,278.1z"/>
	</g>
</g>
<g>
	<g>
		<path class="st0" d="M99.3,222.6c-15.8,13.8-31.5,27.6-47.2,41.6c-7.2,6.4,3.4,17,10.6,10.6c15.6-14,31.3-27.8,47.2-41.6
			C117.3,226.8,106.6,216.2,99.3,222.6L99.3,222.6z"/>
	</g>
</g>
<g>
	<g>
		<path class="st0" d="M97.5,315.5c-10.7,18-21.2,36.1-31.7,54.3c-4.8,8.4,8.1,15.9,13,7.6c10.4-18.2,21-36.3,31.7-54.3
			C115.4,314.7,102.4,307.2,97.5,315.5L97.5,315.5z"/>
	</g>
</g>
<g>
	<g>
		<path class="st0" d="M66.7,155.4c-5.7,5.1-10.8,11.4-10.8,19.5c0,6.3,2.2,12.8,7.3,16.5c6.2,4.5,13,8.3,19.5,12.3
			c22.2,13.5,44.7,26.6,67,39.9c9.7,5.8,18.5-9.3,8.8-15.1c-20-12-40.2-23.8-60.2-35.8c-7.5-4.5-15.1-9-22.4-13.7c-1-0.6-2-1.3-3-2
			c-2.1-1.4,0.4,0.7,0.8,1c1.6,1.1-0.2-0.4-0.4-1.8c-0.1-1-0.1-1.4,0.2-2.3c0.8-2.4,3.6-4.4,5.4-6C87.5,160.2,75.1,147.9,66.7,155.4
			L66.7,155.4z"/>
	</g>
</g>
</svg>
