<?xml version="1.0" encoding="utf-8"?>
<!-- Generator: Adobe Illustrator 19.0.1, SVG Export Plug-In . SVG Version: 6.00 Build 0)  -->
<svg version="1.1" id="Слой_1" xmlns="http://www.w3.org/2000/svg" x="0px" y="0px"
     viewBox="0 0 512 512" style="enable-background:new 0 0 512 512;" xml:space="preserve">
<style type="text/css">
	.st0{fill:#1D1D1B;}
</style>
<g>
	<g>
		<path class="st0" d="M172.3,330.3c-3.2-8.2-6.7-16.2-10.5-24.2c-5.8-12.1-12.1-24.8-21.2-34.8c-4-4.4-9-6.2-13.5-9.8
			c-4-3.2-7.3-8-8.7-12.5c-0.9-3-1-3.2-1-6c0-0.4,0-0.9,0.1-1.4c-0.2,1.5,0,0.4,0.1,0.1c0,0,0.5-2,0.2-0.8c-0.1,0.3,1.2-0.5,0,0.1
			c1-0.5-0.5,0-0.5,0.2c0-0.3,1.3-0.3,1.8-0.1c-1-0.3,1.9,0.6,2.5,0.8c1.6,0.6,3.2,1.6,4.6,2.5c15.2,9.5,26.2,24,42.5,32.1
			c7.4,3.7,15.6,5.7,22.8,9.9c5.4,3.1,10.2,6.9,14.4,11.5c16.3,17.3,23.2,42.9,25.8,65.4c1.9,15.5,2.5,31.7,0.8,47.3
			c-0.4,4,3.8,7.5,7.5,7.5c4.4,0,7.1-3.5,7.5-7.5c1.5-14.3,1-29-0.4-43.3c-2.7-27.1-9.7-54.9-27.4-76.3
			c-9.7-11.7-22.1-19.1-36.2-24.3c-19-6.9-31.3-22.5-47.5-33.8c-10.4-7.2-28.5-11.5-32.9,4.9c-3.3,12.7,4.5,27.1,14.1,34.9
			c2.9,2.4,6.1,3.9,9.3,5.9c1.8,1.2-1-1,0.7,0.5c0.6,0.5,1.2,1.1,1.7,1.6c1.2,1.2,2.4,2.6,3.4,3.9c4.7,6.1,8.6,13.3,12.2,20.2
			c5.3,10.2,9.6,19.8,13.3,29.4c1.5,3.8,5,6.4,9.2,5.2C170.6,338.6,173.7,334.2,172.3,330.3L172.3,330.3z"/>
	</g>
</g>
<g>
	<g>
		<path class="st0" d="M159.5,405.3c4.2,12.5,5.4,25.3,5.2,38.5c-0.2,9.7,14.8,9.7,15,0c0.2-14.4-1.2-28.8-5.8-42.5
			C170.9,392.2,156.4,396.1,159.5,405.3L159.5,405.3z"/>
	</g>
</g>
<g>
	<g>
		<path class="st0" d="M71.8,203.2c-3-10.8-8.1-21.3-16.2-29.3c-8.2-8.1-20.6-12.4-28.7-1.7c-6.9,9.2-7.4,23.3-8,34.3
			c-0.6,12.7,0,25.4,1.7,38c1.8,13.2,4.4,26.3,7.4,39.3c2.6,11.3,5.2,23,11.5,33C51.7,336,73.9,345.2,94.2,353
			c20.9,8.1,43.7,16.4,56.8,35.7c5.4,7.9,18.4,0.4,13-7.6c-10.7-15.6-26.1-25.9-43.1-33.5c-17-7.5-35.4-12.6-51.3-22.6
			c-8-5-15.1-11.4-19.4-19.9c-4.6-8.9-6.3-19.4-8.5-29.1c-5.1-22.6-8.8-45.3-7.7-68.6c0.3-5.9,0.8-11.8,2-17.6
			c0.6-2.7,1.3-10.3,5-8.7c4.2,1.8,7.8,7.2,10.1,10.9c2.9,4.7,4.8,9.7,6.3,15C59.9,216.5,74.4,212.6,71.8,203.2L71.8,203.2z"/>
	</g>
</g>
<g>
	<g>
		<path class="st0" d="M157.1,304.7c-11-2.2-21.9-5.3-32.4-9.2c-9.9-3.7-20-7.7-28.7-13.7c-7.2-4.9-13.5-11.8-16.8-20.1
			c-4.2-10.5-4.3-22.2-4.5-33.3c-0.2-9.6-15.2-9.7-15,0c0.2,12.4,0.6,25.5,5,37.3c4,10.6,10.9,19.4,19.9,26.3
			c9.3,7.1,20.2,11.6,30.9,15.9c12.2,4.9,24.7,8.7,37.5,11.2C162.5,321,166.6,306.5,157.1,304.7L157.1,304.7z"/>
	</g>
</g>
<g>
	<g>
		<path class="st0" d="M313.1,277.2C269,306,262,365.4,265.5,413.7c0.7,9.6,15.7,9.6,15,0c-3.1-42.3,1-97.9,40.1-123.6
			C328.7,284.8,321.2,271.9,313.1,277.2L313.1,277.2z"/>
	</g>
</g>
<g>
	<g>
		<path class="st0" d="M355.2,337.5c2-7.1,5-13.7,8.4-20.2c3.2-6.3,6.1-12.9,9.7-19.1c3.4-5.7,7.4-10.8,12.2-15.3
			c4.7-4.4,10.5-7.2,15.2-11.5c9.3-8.6,14.4-23.6,7.5-35.1c-9.5-15.9-27.8-3.9-38,4.3c-12.5,10-24.1,22.7-39.2,28.7
			c-3.7,1.5-6.4,5-5.2,9.2c1,3.6,5.4,6.7,9.2,5.2c15.8-6.3,28.1-17.6,40.9-28.5c3.2-2.7,6.4-5.5,9.8-7.8c1.9-1.3,6.6-4.7,8.8-4.2
			c1.9,0.4,2.1,4.5,1.9,6.1c-0.3,2.9-1.8,5.9-3.5,8.3c-4.1,5.5-11.2,8.6-16.4,13.1c-5.7,5-10.6,11-14.7,17.4
			c-4.2,6.6-7.3,13.9-10.9,20.9c-4,7.9-7.8,16-10.3,24.5C338.1,342.8,352.5,346.8,355.2,337.5L355.2,337.5z"/>
	</g>
</g>
<g>
	<g>
		<path class="st0" d="M359.9,322.3c12.4-2.8,24.6-6.7,36.4-11.3c17.4-6.8,39.4-16.2,48.7-33.7c2.6-5,3.5-10.1,4.3-15.7
			c1.2-8,2.1-16,2.9-24c1.2-12.4,1.9-25.7,6.8-37.4c2.2-5.2,5.5-9.9,9.9-13.5c1.3-1.1,2.8-2,4.3-2.8c0.7-0.4-0.9-0.3,0,0
			c0.2,0.1,0.6-0.3,0.8-0.2c0.8,0.3-1.6-0.2-0.9,0.1c1.5,0.5,0,0-0.4-0.2c1.4,0.9,0.6-1-0.2-0.3c0.1-0.1,1,0.6,1.1,0.6
			c0.2-0.1-1.6-0.8-0.1,0c1.2,0.6-0.5-0.9,0-0.1c0.3,0.4,0.5,0.9,0.8,1.3c0.3,0.5,0.5,1,0.7,1.5c-0.9-1.9,0.1,0.4,0.3,0.9
			c2.3,7.2,2.6,11.6,2.9,19c0.4,9,0.1,18.1-0.5,27.1c-1.3,18.9-4.2,37.8-9,56.1c-1,3.9-2.2,7.8-3.5,11.6c-0.5,1.6-1.1,3.1-1.7,4.7
			c-0.2,0.4-0.3,0.8-0.5,1.2c0-0.1,0.5-1.1,0.1-0.3c-0.3,0.7-0.7,1.5-1,2.2c-0.6,1.2-1.2,2.5-2,3.6c-0.3,0.5-0.6,0.9-0.9,1.4
			c-0.9,1.4,1-1-0.3,0.4c-2.7,3-5.5,5.8-8.6,8.3c-11.8,9.3-28.3,15.3-42.7,21.3c-16.8,6.9-33.6,14.5-47.1,27
			c-15.7,14.5-23.6,34.3-26.2,55.2c-0.8,6.8-1.1,13.6-0.9,20.4c0.2,9.6,15.2,9.7,15,0c-0.4-21.6,3.5-44.4,18.4-60.6
			c11.5-12.6,27.9-20.5,43.3-26.9c16.1-6.7,33.1-12.5,47.2-22.9c6.2-4.6,12.4-9.9,16.3-16.6c3.7-6.3,6-13.4,8.1-20.4
			c5.6-18.8,8.6-38.4,10.5-57.9c1.7-17.4,2.8-35.9-1-53.1c-2.7-12.4-12-24.8-25.9-17.3c-24.6,13.4-25.8,45-28.3,69.4
			c-0.8,8.1-1.6,16.4-3.3,24.4c-0.7,3.4-2,6-4,8.5c-5.8,7.2-14.2,12.1-22.3,16.3c-15.2,7.8-31.7,13.1-48.2,17.3
			c-1,0.3-2,0.5-3.1,0.7C346.5,310,350.5,324.4,359.9,322.3L359.9,322.3z"/>
	</g>
</g>
<path d="M258.8,105.9"/>
<g>
	<g>
		<path class="st0" d="M184.8,203.5c18.5,29.2,43.7,53.8,76.3,66.3c9,3.5,12.9-11,4-14.5c-28.8-11-51.2-33.8-67.4-59.4
			C192.6,187.8,179.6,195.3,184.8,203.5L184.8,203.5z"/>
	</g>
</g>
<g>
	<g>
		<path class="st0" d="M163.3,159.1c3.1,8.5,6.7,16.9,10.7,25c4.2,8.7,17.2,1.1,13-7.6c-3.4-7-6.5-14.1-9.2-21.4
			C174.5,146.1,160,150,163.3,159.1L163.3,159.1z"/>
	</g>
</g>
<g>
	<g>
		<path class="st0" d="M269.5,107.1c-4.3-14.6-12.5-28.1-25.3-36.8c-12.8-8.7-29-11.8-44.2-9.4c-15.6,2.6-29.7,12.1-37.6,25.8
			c-9.6,16.9-8.5,34.5-4.9,53c1.9,9.5,16.3,5.5,14.5-4c-2.8-14-4.2-27.8,2.9-40.7c6-10.8,16.5-17.8,28.7-19.6
			c11.2-1.7,22.9,1.3,32.3,7.4c9.8,6.4,15.7,17.3,19,28.2C257.7,120.3,272.2,116.4,269.5,107.1L269.5,107.1z"/>
	</g>
</g>
<g>
	<g>
		<path class="st0" d="M303.2,225.6c-12.7,12.4-26.7,23.2-42.9,30.5c-3.7,1.7-4.5,7-2.7,10.3c2.2,3.8,6.6,4.3,10.3,2.7
			c17.3-7.7,32.5-19.6,46-32.8C320.7,229.4,310.1,218.8,303.2,225.6L303.2,225.6z"/>
	</g>
</g>
<g>
	<g>
		<path class="st0" d="M351.6,140.5c-6.6,24.6-16.7,48.7-33.1,68.5c-6.1,7.4,4.4,18.1,10.6,10.6c18.1-21.9,29.7-47.8,36.9-75.1
			C368.5,135.1,354.1,131.1,351.6,140.5L351.6,140.5z"/>
	</g>
</g>
<g>
	<g>
		<path class="st0" d="M269.5,111.1c2.8-11.9,8-25.6,18.3-33c8.8-6.3,21-8,31.6-7.4c10.5,0.5,21.1,4.3,28,12.6
			c7.8,9.4,8.9,22.5,8.3,34.2c-0.5,9.6,14.5,9.6,15,0c0.9-15.3-1.8-31.4-11.7-43.6c-9.4-11.5-23.7-17.1-38.2-18.1
			c-13.8-1-29.8,1.7-41.2,9.9c-13.4,9.6-20.9,25.9-24.6,41.5C252.8,116.5,267.2,120.5,269.5,111.1L269.5,111.1z"/>
	</g>
</g>
</svg>
