<?xml version="1.0" encoding="utf-8"?>
<!-- Generator: Adobe Illustrator 16.0.0, SVG Export Plug-In . SVG Version: 6.00 Build 0)  -->
<!DOCTYPE svg PUBLIC "-//W3C//DTD SVG 1.1//EN" "http://www.w3.org/Graphics/SVG/1.1/DTD/svg11.dtd">
<svg version="1.1" id="Слой_1" xmlns="http://www.w3.org/2000/svg" x="0px" y="0px"
     width="512px" height="512px" viewBox="0 0 512 512" enable-background="new 0 0 512 512" xml:space="preserve">
<g>
	<g>
		<path fill="#201600" d="M214.026,192.106c-0.952,28.072-30.69,47.34-56.143,33.305c-11.417-6.185-19.27-18.555-19.744-31.64
			c-0.239-10.467,5.709-20.22,11.657-28.309c6.898-9.515,15.7-18.555,25.452-25.215c6.422-4.283,17.842-12.133,25.932-7.85
			c7.613,4.043,9.515,16.652,10.704,24.263C214.026,168.317,214.026,180.45,214.026,192.106c0,15.224,23.789,15.224,23.789,0
			c0-23.79,0.237-55.903-17.367-74.221c-19.268-19.983-47.577-6.185-65.418,8.087c-19.507,15.7-41.155,41.155-40.442,67.799
			c0.713,30.688,24.979,56.38,55.19,59.71c36.872,4.046,67.086-25.453,68.275-61.375
			C238.289,176.882,214.502,176.882,214.026,192.106z"/>
	</g>
</g>
<g>
	<g>
		<path fill="#201600" d="M342.49,187.801c-0.952,28.072-30.688,47.342-56.143,33.305c-23.79-12.846-21.409-42.82-17.842-65.895
			c1.191-7.85,2.854-21.411,10.231-26.407c7.373-4.996,18.317,1.665,24.5,5.711C319.89,144.983,341.777,166.629,342.49,187.801
			c0.476,15.227,24.266,15.227,23.789,0c-0.952-26.881-21.647-51.383-41.631-67.084c-18.081-14.274-46.391-26.88-64.942-6.424
			c-16.892,18.318-17.844,51.623-16.652,75.173c1.426,30.69,24.5,56.382,55.188,59.713c36.875,4.043,67.086-25.456,68.275-61.378
			C366.992,172.577,343.203,172.577,342.49,187.801z"/>
	</g>
</g>
<g>
	<g>
		<path fill="#201600" d="M114.348,305.58c-0.713,22.361-23.787,38.301-44.959,28.31c-20.699-9.992-19.747-33.305-12.609-51.623
			c4.52-11.894,17.368-37.588,33.542-27.596C105.309,263.948,113.875,288.452,114.348,305.58c0.479,15.224,24.266,15.224,23.792,0
			c-0.479-23.313-10.944-49.958-28.309-65.658c-18.081-16.416-41.158-14.035-57.332,3.807c-15.7,17.365-26.883,44.723-24.026,68.272
			c3.091,26.407,24.976,46.866,51.383,48.531c32.113,2.14,57.092-24.026,58.284-54.953
			C138.614,290.116,114.827,290.116,114.348,305.58z"/>
	</g>
</g>
<g>
	<g>
		<path fill="#201600" d="M435.502,296.541c-0.952,24.263-27.833,40.439-48.769,25.929c-19.03-13.083-14.271-37.586-8.089-56.379
			c4.521-13.559,14.513-37.349,30.927-23.314C423.845,254.671,435.025,277.747,435.502,296.541c0.476,15.224,24.266,15.224,23.787,0
			c-0.95-36.159-46.625-115.615-86.827-68.751c-14.987,17.605-23.313,44.725-23.313,67.799
			c-0.239,28.07,20.695,52.336,48.766,55.666c33.068,3.807,60.425-22.361,61.614-54.714
			C459.768,281.077,435.978,281.077,435.502,296.541z"/>
	</g>
</g>
<g>
	<g>
		<g>
			<path fill="#1C1300" d="M155.178,384.368c3.704-0.619,6.983-2.048,9.28-3.505c2.326-1.497,3.762-3.089,3.751-4.854
				c0,0-0.011-0.1,0-0.307c0.007-0.206,0.018-0.511,0.033-0.909c0.019-0.399,0.016-0.885,0.054-1.471
				c0.047-0.59,0.101-1.268,0.161-2.026c0.28-3.053,1.046-7.565,2.625-13.047c0.813-2.739,1.813-5.713,3.031-8.843
				c1.241-3.127,2.69-6.405,4.34-9.754c3.284-6.706,7.438-13.659,12.065-20.279c9.21-13.281,20.653-24.988,29.82-31.532
				c4.562-3.342,8.453-5.377,11.046-6.51c1.298-0.546,2.291-0.914,2.945-1.111c0.668-0.243,0.997-0.306,0.997-0.306
				c0.36-0.094,0.684-0.281,0.984-0.556c0.284-0.238,0.541-0.558,0.786-0.962c0.25-0.415,0.472-0.881,0.673-1.386
				c0.207-0.518,0.408-1.108,0.604-1.758c0.722-2.529,1.535-5.971,1.566-9.751c0.033-3.759-1.048-7.19-3.371-9.493
				c-1.104-1.096-2.563-1.998-4.031-2.383c-0.745-0.207-1.53-0.328-2.322-0.344c-0.762,0.009-1.537,0.115-2.304,0.322
				c0,0-0.742,0.176-2.009,0.612c-1.306,0.408-3.139,1.077-5.365,2.024c-4.422,1.912-10.235,5.063-16.267,9.486
				c-12.18,8.772-25.379,22.512-36.147,37.972c-10.845,15.396-19.21,32.599-23.287,46.905c-2.065,7.131-3.16,13.442-3.583,18.012
				c-0.091,1.148-0.172,2.174-0.243,3.066c-0.058,0.897-0.066,1.679-0.092,2.303c-0.043,1.252-0.044,1.928-0.045,1.927
				c0.003,2.897,1.711,5.521,4.371,7.061C147.942,384.544,151.44,384.993,155.178,384.368z M291.776,293.337
				c2.607-2.733,5.654-4.529,8.546-5.163c2.892-0.645,5.58-0.088,7.313,1.729c0,0,0.83,0.888,2.386,2.552
				c1.53,1.686,3.779,4.153,6.481,7.426c5.398,6.549,12.827,16.146,20.018,29.055c3.593,6.452,7.104,13.757,10.028,22.054
				c1.452,4.154,2.727,8.581,3.688,13.311c0.952,4.729,1.596,9.777,1.553,15.187c-0.054,5.391-0.731,11.168-2.692,16.982
				c-1.961,5.783-5.191,11.565-9.592,16.221c-0.548,0.58-1.093,1.169-1.656,1.729l-1.755,1.595c-1.161,1.097-2.43,1.965-3.665,2.929
				c-1.26,0.882-2.547,1.718-3.843,2.505l-1.966,1.09l-0.987,0.537c-0.326,0.179-0.748,0.36-1.119,0.538
				c-3.012,1.46-6.421,2.59-9.938,3.186c-3.513,0.613-7.102,0.692-10.447,0.356c-3.352-0.334-6.474-1.043-9.297-1.917
				c-2.825-0.878-5.396-1.901-7.796-2.951c-4.8-2.111-8.89-4.317-12.736-6.247c-3.827-1.939-7.361-3.623-10.686-4.867
				c-1.658-0.613-3.271-1.16-4.817-1.543c-0.782-0.229-1.533-0.351-2.291-0.529c-0.717-0.105-1.574-0.294-2.067-0.306
				c-4.426-0.595-10.376,1.088-16.667,3.886c-6.296,2.76-12.793,6.34-19.601,9.412c-3.41,1.539-6.905,2.971-10.534,4.124
				c-3.622,1.154-7.378,2.024-11.144,2.453c-3.763,0.429-7.509,0.431-10.984-0.015c-0.866-0.101-1.714-0.273-2.543-0.415
				c-0.414-0.077-0.823-0.153-1.228-0.228c-0.399-0.102-0.793-0.201-1.183-0.3c-0.777-0.209-1.536-0.414-2.276-0.613
				c-0.622-0.211-1.228-0.416-1.818-0.616c-2.339-0.753-4.433-1.688-6.24-2.463c-0.9-0.451-1.734-0.869-2.497-1.251
				c-0.38-0.195-0.743-0.381-1.087-0.558c-0.341-0.201-0.665-0.392-0.97-0.572c-1.218-0.733-2.155-1.27-2.769-1.695
				c-0.613-0.429-0.929-0.649-0.929-0.649c-0.651-0.458-1.229-0.988-1.723-1.569c-0.483-0.608-0.874-1.292-1.179-1.992
				c-0.303-0.708-0.524-1.431-0.636-2.194c-0.102-0.779-0.112-1.569-0.03-2.354c0.288-3.133,2.222-6.229,5.057-8.696
				c2.853-2.485,5.936-4.069,8.461-5.117c0.627-0.251,1.216-0.455,1.756-0.605c0.554-0.162,1.088-0.291,1.556-0.347
				c0.475-0.06,0.886-0.049,1.265,0.022c0.403,0.054,0.754,0.181,1.055,0.396c0,0,0.145,0.105,0.427,0.31
				c0.28,0.206,0.771,0.454,1.361,0.825c0.149,0.092,0.307,0.188,0.474,0.291c0.183,0.09,0.375,0.185,0.577,0.284
				c0.4,0.203,0.837,0.426,1.31,0.666c1.027,0.411,2.15,0.953,3.587,1.4c0.346,0.12,0.7,0.243,1.064,0.37
				c0.269,0.062,0.542,0.13,0.82,0.208l0.421,0.121l0.442,0.067c0.3,0.041,0.594,0.127,0.913,0.158
				c1.259,0.16,2.705,0.165,4.417-0.021c3.41-0.354,8.001-1.791,13.55-4.331c5.574-2.485,11.962-6.029,19.896-9.544
				c3.991-1.729,8.372-3.481,13.494-4.726c0.643-0.15,1.287-0.301,1.933-0.452c0.66-0.136,1.343-0.251,2.017-0.372
				c1.331-0.266,2.778-0.396,4.189-0.561c2.894-0.212,5.906-0.29,8.997,0.095c11.424,1.338,20.965,5.877,29.195,10.02
				c4.105,2.072,7.937,4.106,11.392,5.613c3.459,1.531,6.535,2.507,8.811,2.696c1.152,0.111,2.122,0.072,3.062-0.086
				c0.938-0.155,1.866-0.438,2.902-0.952c0.137-0.066,0.24-0.091,0.406-0.187l0.49-0.277l0.989-0.539
				c0.617-0.386,1.216-0.776,1.797-1.169c0.51-0.441,1.131-0.799,1.573-1.266l0.731-0.648l0.646-0.692
				c1.74-1.817,2.89-3.935,3.76-6.389c0.842-2.463,1.231-5.354,1.266-8.427c0.06-6.185-1.517-13.003-3.719-19.34
				c-2.247-6.369-5.099-12.376-8.109-17.77c-6.02-10.826-12.49-19.222-17.148-24.863c-2.337-2.832-4.28-4.961-5.599-6.415
				c-1.34-1.433-2.055-2.197-2.055-2.197c-1.485-1.557-1.751-4.017-1.056-6.784C287.475,299.186,289.174,296.065,291.776,293.337z
				 M239.94,265.502c-0.022-3.768,1.018-7.175,3.185-9.54c2.091-2.301,5.25-3.48,8.19-2.778c0,0,0.553,0.128,1.52,0.351
				c0.939,0.253,2.285,0.617,3.849,1.109c3.136,0.979,7.058,2.561,10.739,4.366c3.681,1.805,7.159,3.797,9.653,5.386
				c2.504,1.581,4.116,2.686,4.115,2.686c1.062,0.744,1.866,1.761,2.361,2.972c0.486,1.218,0.688,2.612,0.603,4.087
				c-0.182,2.969-1.537,6.262-3.865,9.227c-2.333,2.971-5.163,5.082-7.777,6.201c-1.313,0.567-2.574,0.881-3.712,0.898
				c-1.142,0.028-2.17-0.209-3.015-0.806c0-0.001-1.279-0.871-3.212-2.096c-1.931-1.235-4.542-2.714-7.144-3.992
				c-2.603-1.274-5.19-2.311-7.069-2.893c-0.939-0.293-1.708-0.498-2.245-0.65c-0.525-0.117-0.826-0.185-0.826-0.185
				c-1.598-0.389-2.646-2.023-3.595-4.609C240.812,272.729,239.962,269.276,239.94,265.502z"/>
		</g>
	</g>
</g>
<path fill="#1C1300" d="M264.75,265.798c5.708,30.836-12.868,13.259-25,12.952c-6.928-0.175-25.875,15.125-22.375-12.952
	c0.97-7.784,10.605-14.203,23.687-14.203C254.145,251.595,263.322,258.085,264.75,265.798z"/>
<path fill="#201600" d="M94.372,208.112c0,19.414-9.653,17.575-17.684,17.575c-8.03,0-11.399,1.838-11.399-17.575
	c0-19.413,21.052-38.849,29.083-38.849C102.402,169.263,94.372,188.699,94.372,208.112z"/>
<path fill="#201600" d="M209.039,85.951c0,19.414-9.653,17.575-17.684,17.575c-8.03,0-11.399,1.838-11.399-17.575
	c0-19.413,21.052-38.849,29.083-38.849C217.069,47.102,209.039,66.538,209.039,85.951z"/>
<path fill="#201600" d="M383.254,191.483c0,19.414,9.652,17.575,17.684,17.575s11.4,1.838,11.4-17.575
	c0-19.413-21.053-38.849-29.084-38.849S383.254,172.07,383.254,191.483z"/>
<path fill="#201600" d="M264.587,82.816c0,19.414,9.652,17.575,17.684,17.575s11.4,1.838,11.4-17.575
	c0-19.413-21.053-38.849-29.084-38.849S264.587,63.404,264.587,82.816z"/>
</svg>
