<?xml version="1.0" encoding="utf-8"?>
<!-- Generator: Adobe Illustrator 16.0.0, SVG Export Plug-In . SVG Version: 6.00 Build 0)  -->
<!DOCTYPE svg PUBLIC "-//W3C//DTD SVG 1.1//EN" "http://www.w3.org/Graphics/SVG/1.1/DTD/svg11.dtd">
<svg version="1.1" id="Слой_1" xmlns="http://www.w3.org/2000/svg" x="0px" y="0px"
     width="512px" height="512px" viewBox="0 0 512 512" enable-background="new 0 0 512 512" xml:space="preserve">
<g>
	<g>
		<g>
			<g>
				<g>
					<path stroke="#000000" stroke-width="3" stroke-miterlimit="10" d="M132.258,84.557c-3.021,2.27-3.021,7.361-0.076,11.445
						c0,0,5.59,7.643,13.58,19.438c8.002,11.785,18.332,27.772,28.295,44.014c9.979,16.229,19.628,32.678,26.731,45.088
						c7.109,12.41,11.708,20.754,11.708,20.754c2.462,4.437,7.112,6.574,10.429,4.771c3.314-1.804,4.011-6.923,1.522-11.402
						c0,0-4.64-8.417-11.801-20.917c-7.158-12.504-16.875-29.074-26.947-45.45c-10.053-16.387-20.499-32.556-28.622-44.521
						c-8.108-11.975-13.819-19.782-13.819-19.782C140.237,83.809,135.272,82.292,132.258,84.557z M29.872,205.778
						c-3.709-0.692-5.958-5.316-5.021-10.33l7.771-41.604l1.943-10.398l0.971-5.2l0.486-2.602l0.243-1.301l0.061-0.324l4.769,0.896
						c0.126,0.021,0.253,0.033,0.381,0.041c0.252,0.021,0.402,0.047,0.616,0.027c0.181-0.008,0.298-0.015,0.43-0.059
						c0.077-0.006,0.18-0.072,0.18-0.072c0.038-0.038-0.047,0.029-0.078,0.333c-0.044,0.539,0.174,1.608,0.671,3.015l0.195,0.508
						c1.757,4.664,0.488,1.293,0.88,2.334h0.002h0.003c-0.009,0.008,0.039-0.017-0.018,0.014c-0.195,0.106-0.393,0.205-0.585,0.32
						c-0.774,0.449-1.542,0.937-2.312,1.415c-1.534,0.96-3.073,1.908-4.565,2.714c-2.997,1.646-5.726,2.625-7.879,2.896
						c-2.177,0.272-3.857,0.06-5.507-0.543c-0.827-0.31-1.669-0.736-2.551-1.411c-0.879-0.651-1.748-1.641-2.353-2.568l-0.715-1.743
						c-0.098-0.248-0.211-0.488-0.294-0.741l-0.188-0.785c-0.162-1.09-0.079-2.354,0.256-3.803c0.75-2.96,3.105-6.83,5.952-10.644
						c1.408-1.91,2.881-3.816,4.387-5.714l2.485-3.115c1.513-1.887,3.008-3.747,4.414-5.571c0.69-0.901,1.382-1.813,1.96-2.649
						c0.284-0.413,0.558-0.82,0.753-1.146c0.13-0.196,0.141-0.257,0.225-0.388c0.042-0.071-0.034,0.061-0.055,0.112
						c0.019,0.083-0.273,0.063,0.447,0.406c0.497,0.254,1.011,0.476,1.539,0.661c0.458,0.105,0.813,0.099,1.225,0.151l1.195,0.118
						l0.299,0.027c-3.521-0.398-0.871-0.084-1.607-0.162c0.124,0.027,0.249,0.053,0.375,0.07l0.703,0.083
						c0.188,0.026,0.45,0.003,0.589,0.013c0.712-0.013,0.963-0.254,0.851-0.159c-0.104,0.087-0.382,0.608-0.497,1.526
						c-0.128,0.912-0.131,2.188,0.019,3.668l0.045,0.537h-0.003c0.004-0.003-0.02,0.003-0.036,0.005l-0.145,0.026l-0.213,0.045
						l-0.688,0.186c-1.161,0.347-2.317,0.778-3.482,1.223c-2.322,0.887-4.698,1.854-6.905,2.548c-2.222,0.72-4.151,1.022-5.61,0.946
						c-1.476-0.069-2.543-0.41-3.45-0.854c-0.456-0.226-0.868-0.478-1.288-0.798c-0.411-0.325-0.862-0.701-1.396-1.384
						c-0.54-0.695-0.797-1.223-1.013-1.732c-0.218-0.522-0.383-1.04-0.478-1.604c-0.185-1.127-0.25-2.36,0.217-3.938
						c0.757-3.063,3.188-7.043,5.988-10.891l2.131-2.887l2.054-2.678l2.281-2.896l4.547-5.684c1.503-1.876,2.993-3.74,4.433-5.597
						c1.437-1.851,2.839-3.709,4.044-5.48c0.603-0.877,1.16-1.766,1.504-2.425c0.035-0.064,0.114-0.211,0.113-0.21
						c-0.007,0.007-0.009,0.018-0.006,0.027l0.009,0.018l0.007,0.012l0.036-0.104l0.074-0.214l1.239,0.184l0.62,0.093l0.31,0.046
						c-0.134,0.521,0.097,0.191,0.128,0.33c0.313,0.104,0.636,0.189,0.965,0.255c0.326,0.063,0.672,0.104,0.998,0.129
						c0.215,0.056,0.44,0.084,0.67,0.084c0.115,0,0.231-0.008,0.349-0.024l0.167-0.023l0.089,0.003
						c0.12-0.001,0.247-0.034,0.368-0.101c0.095-0.01,0.16-0.137,0.027,0.06c-0.015,0.032-0.023,0.063-0.027,0.095
						c-0.022,0.055-0.07,0.155-0.092,0.232c-0.056,0.174-0.057,0.311-0.065,0.514c-0.044,0.271-0.061,0.54-0.048,0.806
						c0.006,0.133,0.019,0.266,0.038,0.396c-0.032-0.754,0.463,7.413,0.227,3.961l-0.05,0.026l-0.201,0.109l-0.101,0.056
						l-0.225,0.09l-0.896,0.358l-3.592,1.521c-2.366,0.97-4.583,1.624-6.309,1.756c-1.718,0.128-2.991-0.12-4.083-0.492
						c-1.091-0.422-1.957-0.869-3.104-1.992c-0.592-0.579-1.091-1.355-1.423-1.967c-0.309-0.638-0.543-1.228-0.68-1.854
						c-0.141-0.62-0.185-1.29-0.227-1.961c0.016-0.719-0.039-1.393,0.177-2.232c0.525-3.196,2.99-7.365,5.67-11.278
						c0.679-0.985,1.355-1.974,2.08-2.956l1.422-1.938l2.261-2.973c3.026-3.915,6.126-7.711,9.153-11.439l2.22-2.762l1.023-1.316
						l0.415-0.56c0.009-0.017,0.021-0.027,0.036-0.038l0.012-0.008l0.059-0.096l0.03-0.048c0.08,0.026-0.147-0.134,0.231,0.074
						l1.554,0.807l1.554,0.809c-6.644-3.391-1.819-0.978-3.294-1.749l0.036-0.065l0.148-0.255l0.298-0.509
						c0.195-0.339,0.399-0.678,0.634-1.018c0.434-0.676,0.927-1.347,1.455-2.009c1.074-1.319,2.339-2.604,3.849-3.726
						c1.5-1.126,3.269-2.054,5.118-2.659c1.852-0.611,3.768-0.897,5.581-0.928c3.662-0.063,6.832,0.811,9.638,1.869
						c5.583,2.208,9.997,5.286,14.12,8.486c8.159,6.479,15.015,13.734,21.568,21.162c3.455,3.943,3.755,9.151,0.837,11.539
						c-2.923,2.393-7.851,1.194-11.116-2.532c-6.21-7.059-12.729-13.88-19.729-19.421c-3.476-2.733-7.152-5.146-10.586-6.479
						c-1.695-0.65-3.3-1.001-4.484-0.961c-1.207,0.046-1.958,0.283-2.823,0.914c-0.429,0.322-0.879,0.763-1.331,1.313
						c-0.224,0.284-0.449,0.583-0.667,0.926c-0.113,0.156-0.22,0.336-0.323,0.521l-0.482,0.813l-0.119,0.193l-0.178,0.275
						l-0.481,0.706l-0.663,0.896l-1.199,1.545l-2.32,2.889c-3.063,3.771-6.075,7.463-8.958,11.193l-2.849,3.768l5.149,1.007
						c0.673,0.407,1.242,0.816,1.814,1.479c0.277,0.317,0.536,0.662,0.763,1.021c0.113,0.179,0.219,0.359,0.317,0.545
						c0.105,0.195,0.183,0.363,0.229,0.488c0.229,0.564,0.405,1.173,0.512,1.777l0.069,0.453l0.021,0.29l0.015,0.553
						c0.001,0.369-0.019,0.74-0.055,1.104c-0.034,0.239-0.072,0.451-0.116,0.679l-0.146,0.666c-0.064,0.221,0.088-0.261-0.155,0.537
						l-0.02,0.054l-0.037,0.107l-0.147,0.428l-0.04,0.112l-0.087,0.216l-0.18,0.43l-0.382,0.853
						c-0.129,0.271-0.202,0.39-0.306,0.592c-0.784,1.479-1.537,2.626-2.295,3.744c-1.515,2.223-3.031,4.217-4.556,6.185
						c-1.521,1.961-3.048,3.872-4.565,5.767l-4.51,5.637l-2.357,2.997l0,0l0,0l0.188-0.045l0.673-0.146
						c0.46-0.093,0.997-0.178,1.604-0.235c0.648-0.05,1.377-0.096,2.448,0.043c0.301,0.047,0.554,0.086,0.89,0.168
						c0.367,0.096,0.67,0.178,1.076,0.334c0.795,0.313,1.713,0.792,2.604,1.631c0.881,0.802,1.588,1.927,1.961,2.938
						c0.208,0.542,0.293,0.938,0.393,1.425c0.083,0.46,0.104,0.778,0.125,1.18c0.02,0.4-0.001,0.628-0.017,0.95
						c-0.02,0.324-0.053,0.552-0.088,0.783l-0.06,0.354c-0.073,0.304,0.117-0.432-0.172,0.725l-0.017,0.056l-0.067,0.216
						l-0.079,0.248l-0.238,0.632l-0.266,0.624c-0.085,0.188-0.215,0.461-0.251,0.52c-0.216,0.395-0.47,0.877-0.671,1.188
						c-0.429,0.708-0.832,1.303-1.232,1.885c-0.798,1.15-1.569,2.161-2.346,3.178l-6.621,8.335l4.208-0.73
						c0.342,0.035,0.583,0.063,0.997,0.158c0.45,0.105,0.898,0.259,1.322,0.444c0.19,0.082,0.455,0.217,0.711,0.368
						c0.252,0.15,0.499,0.316,0.731,0.496c0.475,0.359,0.873,0.76,1.236,1.217c0.782,1.013,1.055,1.732,1.318,2.6
						c0.097,0.359,0.137,0.596,0.186,0.903l0.052,0.438l0.018,0.215l0.005,0.144c0.013,0.354-0.003,0.823-0.032,1.086
						c-0.026,0.257-0.063,0.511-0.106,0.765l-0.062,0.325l-0.243,1.3l-0.485,2.601l-0.972,5.2l-1.942,10.4l-7.772,41.604
						C37.349,202.97,33.582,206.47,29.872,205.778z M17.804,270.385c-3.71-0.691-5.958-5.314-5.022-10.33l5.623-30.099
						c0.937-5.011,4.703-8.512,8.413-7.819c3.709,0.693,5.958,5.318,5.022,10.329l-5.623,30.099
						C25.279,267.576,21.514,271.078,17.804,270.385z"/>
				</g>
			</g>
		</g>
		<g>
			<g>
				<g>
					<path stroke="#000000" stroke-width="3" stroke-miterlimit="10" d="M138.587,143.806c-3.257,1.913-4.586,5.688-3,8.45
						c0,0,3.004,5.185,7.359,13.061c4.358,7.873,10.032,18.465,15.521,29.155c5.5,10.688,10.822,21.471,14.701,29.59
						c3.896,8.122,6.309,13.538,6.31,13.538c1.305,2.886,5.009,3.888,8.536,2.563c3.543-1.33,5.288-5.169,3.937-8.15
						c0,0-2.508-5.625-6.452-13.849c-3.937-8.238-9.313-19.133-14.876-29.938c-5.55-10.812-11.292-21.528-15.713-29.518
						c-4.417-7.989-7.475-13.265-7.475-13.265C145.815,142.623,141.837,141.896,138.587,143.806z M57.228,219.315
						c-3.739-0.516-6.414-3.521-5.967-6.722c0,0,1.695-12.401,4.492-30.986c1.403-9.292,3.091-20.131,5.041-31.734
						c1.958-11.605,4.157-23.977,6.759-36.36c1.313-6.194,2.712-12.386,4.404-18.546c0.857-3.088,1.769-6.148,2.966-9.316l0.472-1.2
						l0.253-0.609l0.324-0.742c0.617-1.361,1.309-2.686,2.117-3.884c0.806-1.201,1.758-2.229,2.856-3.008
						c1.091-0.769,2.377-1.403,3.731-1.449c2.647-0.423,5.534,0.117,8.161,1.236c0.654,0.262,1.387,0.518,1.83,0.783l1.258,0.68
						c0.809,0.46,1.517,0.949,2.267,1.427c2.813,1.96,5.112,4.027,7.203,6.085c4.16,4.125,7.558,8.208,10.558,12.034
						c5.972,7.661,10.37,14.277,13.441,18.917c3.048,4.648,4.722,7.333,4.722,7.333c1.74,2.771,0.519,6.622-2.703,8.595
						c-3.216,1.972-7.173,1.376-8.858-1.307c0-0.001-1.631-2.617-4.579-7.112c-2.959-4.474-7.228-10.874-12.781-17.998
						c-2.774-3.548-5.904-7.271-9.372-10.708c-1.727-1.711-3.566-3.322-5.385-4.586c-0.444-0.27-0.9-0.595-1.33-0.835l-0.626-0.338
						l-0.129-0.075c-0.215,0.532-0.436,1.073-0.656,1.621c-0.937,2.472-1.781,5.26-2.564,8.099
						c-1.567,5.699-2.931,11.702-4.206,17.729c-2.537,12.073-4.716,24.313-6.653,35.805c-1.933,11.499-3.61,22.27-5.004,31.51
						c-2.781,18.479-4.471,30.838-4.471,30.838C64.353,217.667,60.968,219.83,57.228,219.315z M51.822,260.467
						c-3.747-0.457-6.461-3.438-6.056-6.643l2.497-19.219c0.425-3.197,3.807-5.383,7.547-4.878c3.74,0.506,6.424,3.494,6.001,6.68
						l-2.485,19.134C58.923,258.727,55.568,260.924,51.822,260.467z"/>
				</g>
			</g>
		</g>
		<g>
			<g>
				<g>
					<path stroke="#000000" stroke-width="3" stroke-miterlimit="10" d="M380.855,84.434c-3-2.282-7.977-0.798-11.021,3.369
						c0,0-5.762,7.773-13.943,19.695c-8.197,11.914-18.744,28.019-28.899,44.34c-10.174,16.313-19.994,32.822-27.229,45.28
						c-7.238,12.455-11.933,20.843-11.933,20.844c-2.517,4.465-1.853,9.588,1.45,11.411c3.306,1.824,7.969-0.287,10.458-4.706
						c0,0,4.651-8.314,11.839-20.68c7.183-12.365,16.933-28.755,27.014-44.921c10.064-16.177,20.494-32.101,28.57-43.834
						c8.063-11.747,13.699-19.354,13.699-19.354C383.83,91.816,383.861,86.721,380.855,84.434z M482.479,206.294
						c-3.715,0.669-7.457-2.854-8.363-7.873l-6.639-36.813l-3.318-18.405l-0.83-4.603l-0.207-1.149l-0.129-0.735
						c-0.033-0.225-0.063-0.449-0.08-0.676c-0.023-0.332-0.027-0.675-0.014-1.011c0.016-0.397,0.102-1.008,0.221-1.483
						c0.08-0.319,0.219-0.73,0.369-1.082c0.162-0.369,0.303-0.666,0.609-1.135c0.568-0.858,1.297-1.578,2.195-2.137
						c0.217-0.138,0.453-0.269,0.67-0.372c0.186-0.087,0.373-0.168,0.564-0.241c0.383-0.146,0.793-0.264,1.178-0.342
						c0.273-0.053,0.555-0.09,0.838-0.114c0.27-0.023,0.605-0.032,0.752-0.025c0.188,0.005,0.375,0.017,0.563,0.03
						c0.188,0.016,0.391,0.04,0.49,0.06c1.139,0.188,1.584,0.398,2.047,0.564l0.279,0.115c0.09,0.038,0.025,0.009,0.047,0.019
						h-0.002l0.004,0.005l-5.674-7.208c-0.986-1.28-1.975-2.577-2.984-4.023c-0.504-0.712-1.025-1.505-1.568-2.415l-0.436-0.787
						l-0.105-0.201c-0.033-0.062-0.068-0.124-0.141-0.279c-0.125-0.264-0.24-0.53-0.35-0.803c-0.104-0.257-0.221-0.574-0.291-0.787
						l-0.084-0.277l-0.043-0.142l-0.01-0.034c-0.277-1.131-0.09-0.379-0.156-0.659l-0.037-0.229
						c-0.049-0.313-0.094-0.57-0.113-0.994l-0.021-0.581c-0.002-0.188,0.016-0.475,0.033-0.707c0.023-0.259,0.041-0.458,0.098-0.763
						c0.059-0.301,0.129-0.601,0.215-0.896c0.072-0.271,0.217-0.648,0.361-0.973c0.15-0.336,0.305-0.645,0.527-0.987
						c0.428-0.679,0.943-1.27,1.535-1.771c1.129-0.962,2.391-1.457,3.195-1.657c0.496-0.135,0.791-0.171,1.189-0.229
						c0.35-0.043,0.625-0.06,0.941-0.073c1.109-0.024,1.854,0.087,2.516,0.196c0.326,0.057,0.639,0.117,0.918,0.183l0.469,0.11
						l0.02,0.006l-2.838-3.646c-3.172-4.042-6.441-8.081-9.68-12.372c-0.811-1.084-1.617-2.173-2.424-3.327
						c-0.809-1.146-1.607-2.34-2.424-3.716c-0.201-0.346-0.402-0.682-0.613-1.092c-0.209-0.401-0.391-0.709-0.691-1.411
						l-0.383-0.925l-0.17-0.49l-0.078-0.229l-0.01-0.029l-0.125-0.416l-0.012-0.044l-0.041-0.178l-0.076-0.357
						c-0.051-0.238-0.094-0.479-0.131-0.72c-0.02-0.091-0.037-0.288-0.051-0.494c-0.014-0.197-0.021-0.396-0.021-0.594
						c-0.002-0.199,0.002-0.397,0.012-0.596c0.014-0.215,0.008-0.333,0.07-0.715c0.105-0.647,0.291-1.304,0.539-1.91l0.096-0.227
						l0.148-0.292c0.105-0.196,0.223-0.391,0.346-0.582c0.248-0.382,0.531-0.747,0.836-1.08c0.152-0.167,0.313-0.325,0.473-0.475
						c0.152-0.132,0.313-0.257,0.477-0.379c0.326-0.243,0.678-0.467,1.041-0.659c0.182-0.098,0.363-0.188,0.551-0.27l0.277-0.117
						l0.199-0.071c0.254-0.084,0.516-0.159,0.777-0.222c0.496-0.125,1.166-0.219,1.408-0.216c0.334-0.018,0.672-0.021,1.006-0.009
						l0.229,0.011l0.064,0.009l0.129,0.017l0.264,0.034l-0.135-0.186c-2.475-3.387-5.115-6.76-7.807-10.138l-4.084-5.103
						l-2.084-2.632l-1.074-1.403l-0.574-0.782l-0.41-0.596l-0.355-0.554l-0.766-1.313c-0.207-0.281-0.389-0.624-0.598-0.866
						c-0.395-0.563-0.813-0.969-1.203-1.325c-0.803-0.686-1.469-0.982-2.395-1.141c-0.471-0.064-1.012-0.081-1.619-0.037
						c-0.621,0.068-1.303,0.192-2.023,0.384c-1.455,0.407-3.051,1.078-4.654,1.922c-3.227,1.72-6.475,4.066-9.604,6.646
						c-6.271,5.207-12.17,11.318-17.814,17.669c-3.289,3.705-8.227,4.873-11.133,2.462c-2.902-2.406-2.568-7.61,0.908-11.533
						c5.947-6.677,12.184-13.187,19.34-19.139c3.604-2.957,7.436-5.79,11.912-8.187c2.256-1.183,4.688-2.254,7.438-3.021
						c1.385-0.373,2.852-0.66,4.4-0.813c1.564-0.132,3.219-0.113,4.906,0.138c3.395,0.479,6.826,2.126,9.293,4.327
						c1.238,1.09,2.332,2.273,3.209,3.485c0.48,0.605,0.84,1.218,1.254,1.832l0.537,0.921l0.268,0.463l0.031,0.059l0.018,0.028
						c-6.787,3.406-1.68,0.842-3.105,1.556l1.408-0.72l1.406-0.722c0.088-0.042,0.303-0.16,0.283-0.139l0.014,0.021l0.027,0.044
						l0.543,0.74l0.916,1.193l1.979,2.5l4.096,5.115c2.742,3.446,5.484,6.94,8.16,10.602l1.766,2.476l1.816,2.685
						c0.561,0.896,1.145,1.796,1.68,2.688c0.477,0.882,1.021,1.782,1.441,2.646c0.826,1.719,1.506,3.407,1.73,4.835
						c0.053,0.354,0.168,0.746,0.168,1.066l0.004,0.965c-0.008,0.641-0.086,1.202-0.127,1.833c-0.162,0.65-0.354,1.29-0.676,1.962
						c-0.318,0.65-0.814,1.435-1.447,2.108c-1.262,1.242-2.168,1.7-3.367,2.128c-0.574,0.209-1.258,0.329-1.979,0.424
						c-0.775,0.046-1.586,0.076-2.59-0.082c-0.955-0.111-2.092-0.417-3.266-0.797c-1.201-0.411-2.465-0.927-3.748-1.482
						l-1.928-0.839c-0.322-0.143-0.645-0.274-0.961-0.401l-0.48-0.192l-0.215-0.119l-0.105-0.062l-0.055-0.028
						c-0.254,3.469,0.326-4.729,0.271-3.908l0.01-0.053l0.014-0.104c0.035-0.281,0.039-0.568,0.012-0.857
						c-0.059-0.344-0.02-0.438-0.066-0.637c-0.021-0.089-0.049-0.178-0.088-0.266c-0.051-0.104-0.02-0.086-0.045-0.138
						c-0.117-0.207-0.104-0.109,0.025-0.077c0.129,0.067,0.268,0.1,0.395,0.097c0.035-0.016,0.197,0.024,0.313,0.034
						c0.125,0.013,0.248,0.017,0.371,0.013s0.244-0.017,0.361-0.037c0.111-0.021,0.227-0.053,0.434-0.061
						c0.361-0.031,0.721-0.087,1.068-0.168c0.174-0.041,0.348-0.087,0.518-0.142l0.254-0.083l0.063-0.021
						c-0.021-0.118,0.143,0.232-0.037-0.271l0.166-0.022l1.334-0.189l0.662-0.093l0.039,0.115c0.021,0.063,0.061,0.185,0.07,0.197
						c0.012-0.015,0.018-0.026,0.016-0.036c-0.053-0.104,0.082,0.156,0.176,0.329c0.08,0.17,0.215,0.39,0.342,0.603
						c0.504,0.855,1.145,1.823,1.83,2.796c0.68,0.973,1.414,1.967,2.156,2.961c3.012,3.992,6.268,8.021,9.5,12.137l2.43,3.116
						l1.893,2.487c0.766,0.994,1.516,2.058,2.271,3.092c0.77,1.041,1.434,2.081,2.154,3.121c0.664,1.03,1.293,2.06,1.891,3.071
						l0.768,1.475l0.383,0.737l0.271,0.685l0.539,1.37l0.371,1.274c0.35,1.887,0.23,3.422-0.248,4.75
						c-0.27,0.685-0.506,1.283-1.211,2.184c-0.701,0.868-1.227,1.245-1.77,1.625c-1.08,0.696-2.266,1.203-4.105,1.342
						c-0.922,0.058-2.012-0.012-3.271-0.271c-1.256-0.251-2.674-0.695-4.143-1.228c-2.939-1.048-6.01-2.438-8.941-3.343l-0.471-0.13
						l-0.195-0.047l-0.227-0.046l-0.063-0.011h-0.004l0.055-0.625c0.059-0.451,0.088-0.908,0.096-1.369
						c0.025-0.405,0.033-0.791,0.01-1.192c-0.01-1.44-0.357-2.37-0.547-2.535c-0.105-0.11-0.02,0.013,0.197,0.063
						c0.135,0.042,0.266,0.055,0.494,0.085c0.174,0.003,0.449,0.017,0.723-0.002c0.229-0.033,0.605-0.051,0.922-0.113l0.238-0.05
						c-0.76,0.079,1.869-0.217-1.674,0.169l0.191-0.019l0.771-0.07l1.541-0.144c0.629-0.16,1.336-0.484,1.959-0.806
						c0.471-0.229,0.23-0.192,0.268-0.256l-0.063-0.131c-0.035-0.066-0.021-0.043-0.008-0.021l0.031,0.056l0.129,0.236
						c0.26,0.427,0.586,0.941,0.984,1.501c0.773,1.108,1.674,2.295,2.59,3.483l5.893,7.488c1.924,2.457,3.826,4.938,5.539,7.406
						c0.891,1.241,1.629,2.446,2.389,3.656c0.643,1.166,1.316,2.352,1.715,3.403c0.895,2.153,1.127,3.921,1.002,5.383l-0.053,0.549
						l-0.125,0.506c-0.063,0.347-0.227,0.65-0.352,0.971l-0.438,1.049c-0.156,0.362-0.328,0.83-0.658,1.231
						c-0.619,0.849-1.408,1.62-2.189,2.177c-0.781,0.563-1.523,0.939-2.26,1.221c-1.467,0.545-2.932,0.771-4.746,0.646
						c-1.795-0.121-3.984-0.698-6.506-1.89c-2.512-1.157-5.26-2.912-7.957-4.625l-1.021-0.624c-0.17-0.102-0.34-0.201-0.514-0.292
						l-0.215-0.117l0.012,0.002h0.002c-0.791,2.065,1.074-2.793,0.924-2.396l0.174-0.448c0.109-0.287,0.207-0.646,0.295-0.886
						c0.084-0.25,0.154-0.507,0.211-0.769c0.061-0.227,0.105-0.416,0.133-0.635c0.023-0.219,0.057-0.334,0.051-0.514
						c-0.004-0.163,0.008-0.24-0.029-0.368c-0.006-0.151-0.119-0.227-0.033-0.157c0.021,0.013,0.119,0.068,0.189,0.07
						c0.131,0.045,0.229,0.045,0.383,0.053c0.178,0.018,0.352,0.011,0.521-0.016c0.229-0.009,0.453-0.032,0.674-0.074l0.164-0.035
						c8.861-1.604,2.461-0.424,4.439-0.772l0.014,0.071l0.025,0.146l0.053,0.287l0.207,1.149l0.828,4.604l3.32,18.404l6.639,36.813
						C488.471,201.015,486.193,205.625,482.479,206.294z M494.145,270.975c-3.715,0.67-7.459-2.854-8.363-7.873l-5.436-30.133
						c-0.904-5.017,1.373-9.628,5.088-10.297c3.715-0.67,7.457,2.854,8.363,7.871l5.436,30.133
						C500.135,265.695,497.857,270.305,494.145,270.975z"/>
				</g>
			</g>
		</g>
		<g>
			<g>
				<g>
					<path stroke="#000000" stroke-width="3" stroke-miterlimit="10" d="M374.154,143.642c-3.238-1.931-7.221-1.229-8.855,1.58
						c0,0-3.09,5.257-7.559,13.219c-4.473,7.96-10.279,18.643-15.896,29.419c-5.629,10.771-11.076,21.631-15.063,29.845
						c-3.996,8.198-6.539,13.808-6.539,13.807c-1.37,2.976,0.352,6.823,3.886,8.177c3.52,1.348,7.229,0.367,8.552-2.51
						c0,0,2.447-5.398,6.395-13.498c3.932-8.095,9.32-18.844,14.889-29.495c5.555-10.657,11.295-21.214,15.703-29.06
						c4.402-7.85,7.439-13.013,7.439-13.013C378.705,149.359,377.4,145.577,374.154,143.642z M455.039,219.661
						c-3.742,0.49-7.113-1.693-7.539-4.878c-3.018-22.581-6.229-45.139-9.928-67.554c-1.861-11.198-3.838-22.377-6.146-33.391
						c-1.16-5.497-2.4-10.972-3.855-16.233c-0.73-2.616-1.521-5.212-2.406-7.5l-0.434-1.064l-0.6,0.325
						c-0.381,0.172-0.813,0.5-1.225,0.74c-1.684,1.106-3.441,2.598-5.146,4.212c-1.715,1.61-3.395,3.39-5.027,5.243
						c-1.646,1.839-3.236,3.783-4.814,5.747c-6.27,7.927-12.078,16.467-17.648,25.169c-1.703,2.674-5.664,3.241-8.867,1.252
						c-3.207-1.991-4.404-5.854-2.646-8.61c5.734-8.954,11.727-17.789,18.469-26.317c1.705-2.125,3.436-4.238,5.285-6.309
						c1.834-2.076,3.756-4.119,5.859-6.103c2.104-1.979,4.34-3.92,7.033-5.704c0.711-0.437,1.342-0.89,2.141-1.293l1.205-0.636
						c0.207-0.119,0.521-0.234,0.83-0.352l0.91-0.353c2.42-1.029,4.963-1.361,7.426-1.292c0.637,0.139,1.283,0.215,1.908,0.399
						c0.619,0.214,1.238,0.483,1.787,0.836c1.119,0.673,2.074,1.591,2.91,2.673c0.824,1.092,1.518,2.333,2.143,3.607l0.449,0.97
						l0.197,0.449l0.125,0.297l0.467,1.155c1.172,3.039,2.031,5.916,2.838,8.796c1.588,5.741,2.865,11.407,4.063,17.079
						c2.375,11.336,4.373,22.647,6.256,33.972c3.736,22.642,6.959,45.301,9.992,67.98
						C461.475,216.178,458.781,219.168,455.039,219.661z M460.186,260.844c-3.746,0.438-7.088-1.783-7.473-4.973l-2.365-19.149
						c-0.402-3.186,2.301-6.158,6.043-6.641c3.744-0.479,7.111,1.724,7.518,4.926l2.375,19.233
						C466.67,257.445,463.936,260.41,460.186,260.844z"/>
				</g>
			</g>
		</g>
		<g>
			<g>
				<g>
					<path stroke="#000000" stroke-width="3" stroke-miterlimit="10" d="M320.332,239.759c-0.785,2.782,0.734,5.561,3.327,6.457
						c0,0,4.91,1.596,12.274,3.987c3.633,1.352,7.84,3.017,12.363,4.752c1.131,0.436,2.279,0.879,3.441,1.328
						c1.164,0.446,2.301,1.009,3.469,1.517c2.324,1.043,4.688,2.104,7.049,3.162c2.355,1.068,4.734,2.092,7.039,3.184
						c2.271,1.16,4.508,2.303,6.672,3.406c2.164,1.105,4.256,2.174,6.24,3.188c1.982,1.014,3.873,1.943,5.541,2.949
						c6.754,3.875,11.256,6.457,11.256,6.457c2.395,1.373,5.553,0.482,7.053-1.986c1.502-2.467,0.723-5.617-1.74-7.029
						c0,0-4.611-2.645-11.533-6.615c-1.709-1.027-3.65-1.984-5.689-3.025c-2.037-1.041-4.188-2.139-6.408-3.275
						c-2.225-1.135-4.521-2.306-6.854-3.498c-2.369-1.123-4.82-2.179-7.248-3.278c-2.434-1.093-4.865-2.183-7.262-3.255
						c-1.201-0.521-2.371-1.101-3.572-1.563c-1.201-0.465-2.389-0.924-3.555-1.375c-4.674-1.794-9.02-3.511-12.771-4.905
						c-7.627-2.479-12.711-4.131-12.711-4.131C324.011,235.276,321.117,236.979,320.332,239.759z M133.031,267.49
						c-1.681-2.344-1.141-5.607,1.238-7.242c0,0,2.339-1.512,6.434-4.161c2.101-1.234,4.627-2.779,7.571-4.469
						c1.493-0.808,3.083-1.665,4.758-2.57c0.838-0.45,1.699-0.913,2.579-1.387c0.899-0.438,1.819-0.884,2.758-1.34
						c7.445-3.802,16.497-7.49,26.377-10.865c2.488-0.794,5.02-1.602,7.579-2.418c2.6-0.688,5.229-1.382,7.88-2.082
						c2.64-0.756,5.355-1.271,8.072-1.833c1.358-0.279,2.72-0.561,4.083-0.841l2.045-0.421l2.065-0.311
						c2.754-0.409,5.508-0.82,8.251-1.229c1.368-0.236,2.749-0.335,4.123-0.464c1.373-0.125,2.742-0.251,4.106-0.376
						c5.45-0.633,10.844-0.664,16.057-0.861c2.606-0.152,5.168,0.01,7.676,0.049c2.506,0.063,4.959,0.126,7.348,0.188
						c4.764,0.297,9.256,0.746,13.406,1.075c0.52,0.046,1.033,0.093,1.541,0.138c0.504,0.071,1.002,0.144,1.494,0.214
						c0.984,0.142,1.948,0.278,2.887,0.414c1.877,0.27,3.658,0.524,5.332,0.766c1.673,0.241,3.238,0.467,4.687,0.676
						c1.433,0.291,2.747,0.561,3.937,0.802c4.752,0.967,7.467,1.52,7.467,1.52c1.398,0.286,2.539,1.115,3.233,2.225
						c0.685,1.158,0.932,2.576,0.595,3.981c-0.337,1.404-1.188,2.532-2.275,3.224c-1.104,0.741-2.447,1.066-3.791,0.793
						c0,0-2.606-0.529-7.172-1.46c-1.143-0.23-2.402-0.488-3.777-0.771c-1.39-0.198-2.891-0.414-4.492-0.646
						c-1.604-0.229-3.311-0.476-5.107-0.732c-0.898-0.129-1.82-0.263-2.766-0.398c-0.473-0.065-0.949-0.137-1.435-0.206
						c-0.483-0.043-0.976-0.086-1.472-0.129c-3.971-0.31-8.268-0.744-12.816-1.029c-2.277-0.058-4.619-0.114-7.014-0.176
						c-2.392-0.037-4.838-0.197-7.319-0.048c-4.966,0.192-10.108,0.213-15.291,0.821c-1.3,0.118-2.603,0.237-3.909,0.354
						c-1.308,0.122-2.622,0.213-3.922,0.439c-2.608,0.389-5.228,0.779-7.847,1.17l-1.964,0.291l-1.941,0.402
						c-1.295,0.268-2.59,0.533-3.881,0.801c-2.58,0.534-5.163,1.018-7.669,1.74c-2.52,0.663-5.018,1.321-7.485,1.975
						c-2.434,0.777-4.835,1.545-7.198,2.3c-9.384,3.209-17.986,6.705-25.058,10.321c-0.894,0.434-1.768,0.856-2.622,1.271
						c-0.836,0.45-1.653,0.891-2.45,1.319c-1.592,0.859-3.103,1.674-4.521,2.439c-2.796,1.605-5.195,3.072-7.192,4.246
						c-3.889,2.516-6.11,3.951-6.11,3.951C137.873,270.469,134.719,269.842,133.031,267.49z M105.889,291.16
						c-2.231-1.855-2.352-5.273-0.294-7.367c0,0,3.054-3.146,6.279-6.037c1.59-1.479,3.239-2.877,4.472-3.934
						c0.615-0.527,1.129-0.969,1.487-1.275c0.367-0.297,0.577-0.467,0.577-0.467c2.25-1.816,5.51-1.436,7.28,0.85
						s1.497,5.518-0.61,7.215c0,0-0.198,0.16-0.546,0.439c-0.338,0.291-0.822,0.707-1.401,1.205
						c-1.161,0.996-2.721,2.314-4.207,3.701c-3.039,2.721-5.841,5.611-5.842,5.611C111.216,293.004,108.103,293.002,105.889,291.16z
						"/>
				</g>
			</g>
		</g>
		<g>
			<g>
				<g>
					<path stroke="#000000" stroke-width="3" stroke-miterlimit="10" d="M386.961,427.725c0.248,3.768,1.459,6.74,2.705,6.646
						c0,0,2.334-0.037,5.836-0.096c0.883-0.041,1.813,0.008,2.793,0.066c0.982,0.051,2.021,0.105,3.092,0.156
						c1.088,0.016,2.145,0.199,3.238,0.33c1.08,0.16,2.225,0.23,3.283,0.459c4.346,0.73,8.234,2.188,10.516,3.564
						c1.152,0.682,1.914,1.316,2.35,1.74c0.268,0.209,0.363,0.371,0.459,0.477c0.094,0.104,0.145,0.16,0.145,0.16
						c0.131,0.125,0.313,0.088,0.658-0.02c0.342-0.109,0.861-0.271,1.4-0.539c1.162-0.455,2.736-1.15,4.537-1.719
						c1.807-0.57,3.18-1.766,3.912-2.975c0.354-0.66,0.561-1.23,0.584-1.818c0.023-0.578-0.133-1.15-0.455-1.508
						c0,0-0.152-0.184-0.438-0.52c-0.289-0.332-0.715-0.85-1.277-1.344c-1.113-1.092-2.771-2.43-4.818-3.645
						c-4.096-2.475-9.688-4.377-15.133-5.309c-1.367-0.283-2.709-0.383-4.045-0.574c-1.33-0.16-2.648-0.369-3.893-0.395
						c-1.25-0.064-2.459-0.127-3.604-0.189c-1.146-0.063-2.23-0.117-3.211-0.076c-3.939,0.064-6.566,0.109-6.566,0.109
						C387.637,420.82,386.711,423.959,386.961,427.725z M307.175,465.84c-3.445-1.574-5.674-3.98-4.952-5.363
						c-0.001,0,0.681-1.313,2.05-3.484c1.354-2.188,3.524-5.154,6.502-8.322c2.975-3.168,6.794-6.479,11.199-9.428
						c4.399-2.965,9.36-5.568,14.444-7.697c5.084-2.133,10.279-3.844,15.191-5.086c2.447-0.693,4.836-1.154,7.096-1.668
						c2.254-0.48,4.348-0.795,6.301-1.16c1.945-0.346,3.73-0.662,5.313-0.941c1.604-0.215,3.004-0.398,4.154-0.553
						c2.307-0.299,3.623-0.469,3.623-0.469c1.367-0.172,2.777,2.719,3.152,6.492c0.373,3.734-0.34,6.928-1.596,7.086
						c0,0-1.227,0.16-3.371,0.438c-1.072,0.143-2.377,0.313-3.871,0.512c-1.494,0.266-3.184,0.564-5.021,0.895
						c-1.828,0.342-3.859,0.648-5.918,1.086c-2.039,0.469-4.219,0.883-6.398,1.506c-4.412,1.111-8.984,2.629-13.357,4.465
						c-4.377,1.832-8.535,4.023-12.111,6.438c-3.588,2.404-6.585,5.016-8.875,7.455s-3.929,4.67-4.932,6.303
						c-1.021,1.623-1.524,2.59-1.523,2.59C313.771,467.891,310.593,467.402,307.175,465.84z M303.279,482.285
						c-3.774,0.26-6.883-1.248-6.752-2.893c0,0,0.047-0.605,0.139-1.498c0.104-0.889,0.271-2.055,0.484-3.201
						c0.422-2.297,1.092-4.504,1.092-4.504c0.426-1.518,3.766-1.65,7.296-0.361c3.559,1.301,6.104,3.162,5.823,4.193
						c0,0-0.485,1.598-0.78,3.207c-0.146,0.805-0.266,1.604-0.333,2.195c-0.055,0.582-0.09,0.973-0.09,0.973
						C310.081,481.389,307.044,482.027,303.279,482.285z"/>
				</g>
			</g>
		</g>
		<g>
			<g>
				<g>
					<path stroke="#000000" stroke-width="3" stroke-miterlimit="10" d="M145.486,427.725c0.249-3.768-0.677-6.902-2.066-7.008
						c0,0-2.627-0.045-6.566-0.107c-0.979-0.041-2.063,0.012-3.21,0.074c-1.146,0.063-2.354,0.121-3.605,0.189
						c-1.24,0.023-2.562,0.23-3.892,0.395c-1.336,0.191-2.676,0.291-4.045,0.574c-5.443,0.932-11.037,2.834-15.132,5.309
						c-2.047,1.215-3.705,2.553-4.819,3.645c-0.563,0.494-0.988,1.012-1.277,1.344c-0.286,0.338-0.438,0.52-0.438,0.52
						c-0.322,0.354-0.479,0.93-0.454,1.508c0.022,0.588,0.229,1.158,0.584,1.82c0.733,1.209,2.105,2.398,3.911,2.973
						c1.801,0.568,3.375,1.264,4.537,1.719c0.54,0.27,1.061,0.43,1.4,0.539c0.35,0.105,0.528,0.145,0.66,0.02
						c0,0,0.05-0.057,0.144-0.16c0.095-0.105,0.191-0.268,0.46-0.477c0.434-0.424,1.194-1.061,2.349-1.74
						c2.278-1.379,6.17-2.834,10.515-3.564c1.06-0.229,2.204-0.299,3.283-0.459c1.095-0.131,2.15-0.314,3.238-0.33
						c1.072-0.055,2.108-0.104,3.093-0.156c0.98-0.061,1.91-0.107,2.793-0.066c3.501,0.059,5.835,0.096,5.835,0.096
						C144.026,434.467,145.238,431.49,145.486,427.725z M225.272,465.84c-3.418,1.564-6.597,2.051-7.098,1.086
						c0.001-0.002-0.506-0.967-1.524-2.592c-1.003-1.631-2.641-3.859-4.931-6.303c-2.291-2.439-5.288-5.051-8.875-7.453
						c-3.578-2.412-7.735-4.605-12.112-6.436c-4.374-1.838-8.946-3.355-13.359-4.467c-2.18-0.623-4.359-1.037-6.398-1.504
						c-2.058-0.438-4.089-0.746-5.917-1.088c-1.841-0.328-3.527-0.627-5.022-0.896c-1.495-0.195-2.798-0.367-3.871-0.512
						c-2.146-0.273-3.371-0.436-3.371-0.436c-1.256-0.16-1.969-3.35-1.596-7.088c0.376-3.773,1.786-6.662,3.153-6.49
						c0,0,1.316,0.17,3.623,0.467c1.15,0.154,2.55,0.34,4.153,0.553c1.582,0.281,3.367,0.6,5.314,0.943
						c1.953,0.363,4.046,0.68,6.3,1.16c2.259,0.514,4.647,0.975,7.096,1.668c4.912,1.242,10.108,2.951,15.192,5.086
						c5.083,2.127,10.045,4.732,14.444,7.695c4.405,2.951,8.227,6.26,11.2,9.428c2.977,3.17,5.147,6.139,6.502,8.322
						c1.368,2.176,2.05,3.486,2.049,3.486C230.946,461.857,228.719,464.266,225.272,465.84z M229.167,482.285
						c-3.765-0.258-6.802-0.896-6.879-1.889c0,0-0.035-0.391-0.089-0.973c-0.067-0.594-0.187-1.391-0.333-2.195
						c-0.295-1.609-0.781-3.207-0.781-3.207c-0.278-1.031,2.267-2.895,5.824-4.193c3.53-1.289,6.87-1.156,7.295,0.361
						c0,0,0.67,2.207,1.093,4.504c0.212,1.146,0.383,2.313,0.483,3.201c0.092,0.893,0.138,1.498,0.138,1.498
						C236.05,481.037,232.943,482.545,229.167,482.285z"/>
				</g>
			</g>
		</g>
	</g>
</g>
</svg>
