<?xml version="1.0" encoding="utf-8"?>
<!-- Generator: Adobe Illustrator 19.0.1, SVG Export Plug-In . SVG Version: 6.00 Build 0)  -->
<svg version="1.1" id="Слой_1" xmlns="http://www.w3.org/2000/svg" x="0px" y="0px"
     viewBox="0 0 512 512" style="enable-background:new 0 0 512 512;" xml:space="preserve">
<style type="text/css">
	.st0{fill:#1D1D1B;stroke:#1D1D1B;stroke-width:5;stroke-miterlimit:10;}
	.st1{fill:#1D1D1B;stroke:#1D1D1B;stroke-width:7;stroke-miterlimit:10;}
	.st2{fill:#1D1D1B;}
</style>
<path class="st0" d="M103.3,374.2c-2.2,0-4-1.8-4-4V263.9c0-2.2,1.8-4,4-4l0,0c2.2,0,4,1.8,4,4v106.3
	C107.3,372.4,105.5,374.2,103.3,374.2L103.3,374.2z"/>
<path class="st0" d="M140,260c2.2,0,4,1.8,4,4l0,0c0,2.2-1.8,4-4,4h-36.6c-2.2,0-4-1.8-4-4l0,0c0-2.2,1.8-4,4-4H140z"/>
<path class="st0" d="M140.5,300.2c1.9,0,3.5,1.7,3.5,3.9l0,0c0,2.2-1.6,3.9-3.5,3.9H110c-1.9,0-3.5-1.7-3.5-3.9l0,0
	c0-2.2,1.6-3.9,3.5-3.9H140.5z"/>
<path class="st1" d="M171.6,296.7c-10.7,0-19.3,8.6-19.3,19.3v37c0,10.7,8.6,19.3,19.3,19.3c10.6,0,19.3-8.6,19.3-19.3v-37
	C190.9,305.3,182.2,296.7,171.6,296.7z M186,349.9c0,8.9-6.5,16.1-14.4,16.1c-8,0-14.4-7.2-14.4-16.1v-31c0-8.9,6.5-16.1,14.4-16.1
	c8,0,14.4,7.2,14.4,16.1V349.9z"/>
<path class="st1" d="M232.7,296.7c-10.7,0-19.3,8.6-19.3,19.3v37c0,10.7,8.6,19.3,19.3,19.3c10.6,0,19.3-8.6,19.3-19.3v-37
	C252,305.3,243.4,296.7,232.7,296.7z M247.2,349.9c0,8.9-6.5,16.1-14.4,16.1c-8,0-14.4-7.2-14.4-16.1v-31c0-8.9,6.5-16.1,14.4-16.1
	c8,0,14.4,7.2,14.4,16.1V349.9z"/>
<g>
	<path class="st1" d="M293.9,296.7c-10.6,0-19.3,8.6-19.3,19.3v37c0,10.7,8.6,19.3,19.3,19.3c10.7,0,19.3-8.6,19.3-19.3v-37
		C313.1,305.3,304.5,296.7,293.9,296.7z M308.3,349.9c0,8.9-6.5,16.1-14.4,16.1c-8,0-14.4-7.2-14.4-16.1v-31
		c0-8.9,6.5-16.1,14.4-16.1c8,0,14.4,7.2,14.4,16.1V349.9z"/>
	<path class="st1" d="M313.1,369.6c0,1.4-1.2,2.6-2.7,2.6l0,0c-1.5,0-2.7-1.2-2.7-2.6V264.5c0-1.4,1.2-2.6,2.7-2.6l0,0
		c1.5,0,2.7,1.2,2.7,2.6V369.6z"/>
</g>
<g>
	<g>
		<path class="st2" d="M290.7,483.3c3.4,0,6.8,0,10.2,0c4.6,0,9-4,8.8-8.8c-0.2-4.8-3.8-8.7-8.8-8.8c-3.4,0-6.8,0-10.2,0
			c-4.6,0-9,4-8.8,8.8C282.2,479.4,285.8,483.3,290.7,483.3L290.7,483.3z"/>
	</g>
</g>
<g>
	<g>
		<path class="st2" d="M230.1,483c10.2,0.1,20.5,0.2,30.7,0.2c11.3,0.1,11.3-17.4,0-17.5c-10.2-0.1-20.5-0.1-30.7-0.2
			C218.9,465.4,218.9,482.9,230.1,483L230.1,483z"/>
	</g>
</g>
<g>
	<g>
		<path class="st2" d="M36.6,367.9c-0.8,9.6-3.5,18.9-4.7,28.4c-1.2,9-0.3,17.4,1,26.3c2.4,16.5,12.9,32.5,25.9,42.6
			c7.4,5.8,15.2,10.4,24.3,12.9c9.3,2.6,19.9,2.8,29.5,3.3c19.9,1.1,39.9,0.8,59.8,1.1c11.3,0.2,11.3-17.3,0-17.5
			c-18-0.3-36,0-54-0.8c-8.5-0.4-16.9-1-25.3-1.9c-8.3-1-15.8-4.8-22.4-9.8c-11.2-8.4-19.3-21.5-21-35.4c-1-8.1-1.2-15.7,0.3-23.8
			c1.5-8.5,3.4-16.8,4.2-25.4C55.1,356.7,37.6,356.8,36.6,367.9L36.6,367.9z"/>
	</g>
</g>
<g>
	<g>
		<path class="st2" d="M265.9,171.1c-49.4,0.2-99-1.2-148.4,1.2c-20.5,1-40,13.7-50.8,30.9c-6,9.6-8.8,20-10.9,31
			c-2.4,11.9-4.4,23.8-6.2,35.8c-4,26-6.9,52.2-10.3,78.3c-0.6,4.7,4.5,8.8,8.8,8.8c5.2,0,8.1-4,8.8-8.8c2.7-21.4,5.2-42.9,8.3-64.3
			c1.6-11.3,3.4-22.5,5.4-33.7c1.8-10,3-20.9,7-30.2c6.7-15.6,22.5-29.3,40-30.3c22.9-1.2,46-1.2,69-1.3c26.5-0.1,52.9,0.2,79.4,0.1
			C277.1,188.6,277.2,171.1,265.9,171.1L265.9,171.1z"/>
	</g>
</g>
<g>
	<g>
		<path class="st2" d="M48.2,105c-6.4,22.9,1.5,49.5,24.4,59.6c23.5,10.4,51.8,2.3,66.8-18.3c-3.1-0.8-6.2-1.7-9.3-2.5
			c0.4-0.5,0.1-0.3-0.8,0.6c2.8,1.6,5.6,3.2,8.4,4.9c0.5-1.1,1.1-2.1,1.7-3c-2.6,0.3-5.2,0.7-7.9,1c-0.4-0.5,0.8,1.2,1,1.5
			c0.8,1.2,0.4,2,0.8,0.8c0.8-1,1.5-2,2.3-3c1.3,0.5,2.6,1,3.8,1.4c0-0.3,0-0.7,0-1c0,0,0.4-1.8,0.4-1.9c-2.8,0.7-5.6,1.5-8.4,2.2
			c9.8,10.2,19.5,20.4,29.3,30.6c4.5,4.7,11.5-2.4,7.1-7.1c-9.8-10.2-19.5-20.4-29.3-30.6c-2.7-2.9-7.2-1.2-8.4,2.2
			c-2,6,0.9,16.9,9.4,13.3c7-3,2.2-11.6-1.1-15.5c-2.2-2.6-6.2-1.5-7.9,1c-1.2,1.8-2,3.4-2.7,5.4c-1.9,5.1,4.9,7.8,8.4,4.9
			c2.4-2,3.6-4.6,3.7-7.7c0.1-5.4-6.6-6.3-9.3-2.5c-12,16.4-35.9,22.7-54.5,14.1c-18.1-8.4-23.6-29.6-18.5-47.7
			C59.6,101.5,49.9,98.8,48.2,105L48.2,105z"/>
	</g>
</g>
<g>
	<g>
		<path class="st2" d="M204.7,84.1c8.1-27.3-19.7-49.2-44.3-51.5c-12.7-1.2-25.6,2.6-35.2,10.9c-11.5,9.9-16.7,25.4-19.5,39.8
			c2.1-1.2,4.1-2.3,6.2-3.5c-0.1,0-0.2,0.1-0.3,0.1c0.5,1.2,1,2.4,1.5,3.5c0-0.1,0-0.1,0-0.2c-1.2,1.6-2.4,3.2-3.7,4.8
			c-1.2-0.7-2.4-1.4-3.6-2.1c2.1-2.1,4.1-4.1,6.2-6.2c-16.2-4.8-35.4-6-49.8,4.3c-5.2,3.7-0.2,12.4,5,8.6
			c12.3-8.9,28.2-7.4,42.1-3.3c3.4,1,7.5-2.5,6.2-6.2c-1.2-3.3-4.9-6.4-8.7-4.9c-2.2,0.9-3.5,2.4-3.7,4.8c-0.3,3.7,3.3,5.3,6.2,6.2
			c2.4,0.8,5.7-0.9,6.2-3.5c2.3-11.7,5.8-24.1,14.3-32.9c7.3-7.6,17.6-11,28-10.7c19.1,0.7,44,17.4,37.5,39
			C193.2,87.6,202.9,90.2,204.7,84.1L204.7,84.1z"/>
	</g>
</g>
<g>
	<g>
		<path class="st2" d="M238.6,152.8c-19.5-15.6-38.2-32.1-57.6-47.8c-0.3,2.6-0.7,5.2-1,7.9c0.9-0.7,2-1.2,3.1-1.6
			c-1.6-2.8-3.2-5.6-4.9-8.4c-0.2,0.2-0.5,0.4-0.7,0.6c0.8,3.1,1.7,6.2,2.5,9.3c4.2-2.4,8-5.3,11.5-8.7c4.7-4.4-2.4-11.5-7.1-7.1
			c-2.9,2.8-6,5.1-9.5,7.1c-4.3,2.5-2.4,9.3,2.5,9.3c3.2,0,5.7-1.1,7.8-3.5c3.1-3.5,0.2-10-4.9-8.4c-2,0.6-3.7,1.5-5.5,2.6
			c-2.5,1.5-3.6,5.8-1,7.9c19.4,15.7,38.1,32.2,57.6,47.8C236.5,163.8,243.6,156.8,238.6,152.8L238.6,152.8z"/>
	</g>
</g>
<g>
	<g>
		<path class="st2" d="M261.7,483.4c23.6-0.3,47.3-0.3,70.9-0.3c3.9,0,7.4-2.7,8.4-6.4c7.5-26,14.1-52.3,22.2-78.1
			c1.9-6,3.9-12,6-17.9c2.2-6.1,5.5-12.4,7-18.7c0.1-0.4,0.2-0.7,0.4-1.1c0.2,1.6-1.2,2.5-4.1,2.5c0,0.1,0.5,0.3,0.5,0.5
			c0.3,1.4,2.4,3.5,3,5c2.5,6.2,4.3,12.7,6.5,19c9,25.1,19.3,49.6,28.5,74.6c2,5.5,3.8,11.3,8.9,14.8c5.3,3.7,12,4.8,18.4,3.9
			c5.6-0.8,11-3.5,16.2-5.9c5.3-2.5,10.4-5.3,15.1-8.6c9.2-6.4,18.3-14.9,23.2-25.2c5.5-11.5,2.8-24.8,1.9-37.1
			c-2-27.6-5-55.1-8.2-82.6c-1.6-13.5-3.2-27.1-4.7-40.6c-1.6-14-2.5-28.2-4.6-42.1c-1-6.4-2.7-12.7-4.7-18.8
			c-2-6.1-3.9-12.4-7.5-17.8c-6-9.2-14.7-16.2-24.3-21.4c-12.9-7-26-8.4-40.5-8.6c-15.7-0.2-31.3-1-47-1.1
			c-31.4-0.3-62.8,0.1-94.2-0.1c-11.3,0-11.3,17.5,0,17.5c27.2,0.1,54.3-0.2,81.5,0c13.4,0.1,26.9,0.2,40.3,0.6
			c6.5,0.2,13,0.6,19.5,0.6c6.1,0.1,12.4,0,18.4,1.2c9.5,1.9,19,7.3,26,14c8.3,8,11.4,19.5,14.1,30.3c3.2,12.9,3.5,26.7,5,39.9
			c1.4,12.9,3,25.8,4.5,38.7c3.1,26.6,6.1,53.1,8.3,79.8c0.5,6.1,0.9,12.2,1.3,18.3c0.4,5.7,1.9,12.8,0.6,18.4
			c-2.1,9.6-12.4,17.9-20.3,22.9c-4.4,2.9-9.1,5.3-13.9,7.5c-3.7,1.7-8,4.1-12.2,3c-2.6-0.7-1.8-0.3-2.8-2.4
			c-1.3-2.8-2.2-5.9-3.3-8.8c-2.4-6.4-4.9-12.8-7.4-19.2c-4.7-12-9.4-23.9-13.9-35.9c-4.5-12-7.9-24.6-13-36.3
			c-4.2-9.7-18-22.2-28-11.5c-4.1,4.4-5.8,12-7.9,17.6c-2.5,6.5-4.7,13-6.9,19.6c-9.3,28.1-16.3,56.9-24.5,85.3
			c2.8-2.1,5.6-4.3,8.4-6.4c-23.6,0-47.3,0-70.9,0.3C250.4,466,250.4,483.5,261.7,483.4L261.7,483.4z"/>
	</g>
</g>
<g>
	<g>
		<path class="st2" d="M332.3,128.4c18.5,13,32.3,31.5,39.8,52.8c2.1,6,11.8,3.4,9.6-2.7c-8.4-23.9-23.6-44.2-44.4-58.7
			C332,116.1,327,124.8,332.3,128.4L332.3,128.4z"/>
	</g>
</g>
<g>
	<g>
		<path class="st2" d="M309.8,116.2c3.8,1.6,7.6,3.4,11.2,5.4c5.7,3,10.7-5.6,5-8.6c-4.4-2.4-9-4.5-13.6-6.4c-2.5-1-5.5,1.1-6.2,3.5
			C305.5,112.9,307.3,115.1,309.8,116.2L309.8,116.2z"/>
	</g>
</g>
<g>
	<g>
		<path class="st2" d="M247.9,175.7c-2-12.2-2.8-24.6-2.7-37c0-5.8,1.3-12.4,0.5-18.1c-0.7-5.1-5.3-7.1-9.5-9
			c-10.2-4.6-20.6-8.7-31.1-12.6c-5.5-2-11-4-16.5-6c-2.6-0.9-6-2.9-8.8-3.2c-0.6-0.2-1.2-0.4-1.8-0.6c-0.3,1.2-0.6,2.3-0.8,3.5
			c0.7-0.2,1.3-2.3,1.5-2.9c-0.8,1-1.5,2-2.3,3c2.7-2,10.1,0.2,13.2,0.5c5.1,0.4,10.2,0.7,15.3,1c5.1,0.2,10.2,0.4,15.2,0.6
			c4.6,0.2,10,1.3,14.4,0.1c8.7-2.3,9.3-10.1,10-18c0.5-5.1,0.4-10.2,0.4-15.2c0-2.5,0-5.1,0.1-7.6c0-1.3,0.1-2.5,0.2-3.8
			c0-0.6,0.1-1.3,0.2-1.9c0.5-1.8-0.5-1.8-3,0c-1-0.8-2-1.5-3-2.3c9.5,13.8,12.9,30.1,19.4,45.3c2.8,6.6,5.3,11.8,12.1,14.7
			c7.9,3.3,17.1,1.6,24.8,5.3c5.8,2.8,10.9-5.9,5-8.6c-5-2.4-10-3.2-15.4-3.8c-5.1-0.5-12.2-0.7-14.8-5.8c-5.2-10-8-21.1-12.1-31.6
			c-1.9-4.9-4-9.8-6.7-14.4c-2.3-4-5.3-10.4-11-8.4c-4,1.5-5,4.9-5.4,8.7c-0.8,7-0.4,14-0.5,20.9c0,3.2-0.1,6.4-0.5,9.5
			c-0.2,1.9-0.2,6-1.5,7c-1.6,1.3-5.1,0.3-7.1,0.2c-3.8-0.2-7.7-0.3-11.5-0.5c-6.3-0.3-12.7-0.5-19-1c-5.9-0.4-12-1.6-17.9-1.5
			c-2.2,0-4.3,0.6-6.1,1.9c-0.8,0.6-1.2,1-1.8,1.8c-2.2,2.5,0.7-1.7-0.7,1.3c-1.9,3.9-0.1,8.3,3.5,10.6c2.3,1.5,5.7,2.1,8.3,3.1
			c2.9,1.1,5.8,2.1,8.8,3.1c5.8,2.1,11.6,4.2,17.3,6.3c7.1,2.7,14.1,5.5,21,8.5c2.4,1.1,6.7,2,7.9,4.5c0.5,1.1-0.2,4.6-0.3,5.8
			c-0.1,1.9-0.1,3.9-0.2,5.8c-0.3,14.6,0.5,29.1,3,43.5C239.3,184.7,248.9,182,247.9,175.7L247.9,175.7z"/>
	</g>
</g>
</svg>
