<?xml version="1.0" encoding="utf-8"?>
<!-- Generator: Adobe Illustrator 16.0.0, SVG Export Plug-In . SVG Version: 6.00 Build 0)  -->
<!DOCTYPE svg PUBLIC "-//W3C//DTD SVG 1.1//EN" "http://www.w3.org/Graphics/SVG/1.1/DTD/svg11.dtd">
<svg version="1.1" id="Слой_1" xmlns="http://www.w3.org/2000/svg" x="0px" y="0px"
     width="512px" height="512px" viewBox="0 0 512 512" enable-background="new 0 0 512 512" xml:space="preserve">
<g>
	<g>
		<path d="M139.076,239.41c-16.25,43.594-26.915,97.49-0.792,139.513c25.227,40.58,76.354,51.422,120.722,53.391
			c13.846,0.614,13.786-20.855,0-21.467c-37.395-1.658-81.638-9.704-103.001-44.069c-22.503-36.2-10.014-84.681,3.77-121.661
			c2.045-5.488-2.231-11.755-7.496-13.203C146.261,230.258,141.118,233.933,139.076,239.41L139.076,239.41z"/>
	</g>
</g>
<g>
	<g>
		<path d="M257.753,62.469c-15.94-0.636-30.343,5.864-42.155,16.226c-5.721,5.019-9.473,12.539-11.485,19.786
			c-2.304,8.294-0.469,17.999-0.384,26.466c2.627-3.45,5.253-6.9,7.88-10.35c-19.856,5.948-38.615,15.466-47.737,35.065
			c-4.666,10.023-6.213,19.751-4.932,31.082c0.309,2.728,0.715,5.447,1.103,8.164c0.17,1.167,0.337,2.334,0.502,3.501
			c0.433,3.048-0.893,2.291,0.644,0.105c-3.278,4.659-6.511,9.052-8.861,14.284c-2.397,5.337-1.593,11.496,3.85,14.685
			c4.638,2.717,12.287,1.488,14.685-3.851c3.663-8.153,12.249-15.151,11.213-24.624c-0.513-4.695-1.341-9.351-1.871-14.043
			c-0.406-3.59-1.518-9.881,0.055-13.262c3.477-7.47,6.293-13.881,12.833-19.618c2.933-2.573,6.869-3.947,10.376-5.5
			c4.542-2.012,9.081-3.861,13.846-5.289c4.554-1.364,7.928-5.501,7.88-10.35c-0.108-10.761-3.217-22.934,5.582-31.073
			c7.397-6.844,16.963-10.338,26.976-9.938C271.601,84.488,271.547,63.02,257.753,62.469L257.753,62.469z"/>
	</g>
</g>
<g>
	<g>
		<path d="M348.314,387.113c-25.61,19.665-57.99,23.312-89.308,23.733c-13.832,0.187-13.85,21.653,0,21.467
			c34.707-0.468,71.756-4.868,100.142-26.665c4.631-3.556,7.089-9.157,3.851-14.685C360.321,386.393,352.968,383.54,348.314,387.113
			L348.314,387.113z"/>
	</g>
</g>
<g>
	<g>
		<path d="M372.722,339.77c-0.106,1.146-0.077,0.973,0.091-0.521c-0.147,0.914-0.37,1.816-0.584,2.717
			c-0.412,1.737-0.947,3.446-1.484,5.148c-1.195,3.787-2.625,7.503-4.085,11.194c-1.665,4.207-3.055,7.344-5.33,12.401
			c-2.4,5.335-1.591,11.498,3.851,14.685c4.64,2.719,12.283,1.486,14.685-3.851c5.912-13.141,13.077-27.226,14.324-41.773
			c0.5-5.838-5.262-10.733-10.733-10.733C377.227,329.036,373.222,333.942,372.722,339.77L372.722,339.77z"/>
	</g>
</g>
<g>
	<g>
		<path d="M258.558,83.76c9.61,1.522,19.805,3.769,27.535,10.071c8.109,6.61,9.071,15.135,7.085,25.005
			c-0.668,3.325-2.071,6.602-1.053,10.039c1.122,3.787,3.581,7.585,7.079,9.634c4.7,2.753,10.584,4.053,15.527,6.47
			c9.156,4.477,18.302,10.731,22.32,20.489c2.102,5.104,3.469,11.007,2.685,16.55c-0.972,6.872-4.767,12.364-3.248,19.564
			c1.31,6.21,5.698,12.184,8.604,17.788c2.996,5.78,5.854,11.63,8.592,17.536c5.343,11.519,9.843,23.393,13.602,35.52
			c3.852,12.425,4.97,25.469,6.22,38.353c0.565,5.821,4.455,10.733,10.733,10.733c5.423,0,11.299-4.899,10.733-10.733
			c-1.932-19.909-4.746-38.795-11.551-57.681c-6.741-18.706-15.454-36.653-24.856-54.147c-0.603-1.121-0.887-2.354-1.108-1.304
			c0.452-2.143,1.619-4.289,2.231-6.419c1.385-4.812,1.768-10.068,1.563-15.049c-0.399-9.713-3.804-20.08-9.344-28.063
			c-10.513-15.147-27.604-23.149-44.432-29.224c1.578,0.92,3.157,1.84,4.736,2.76c0.204,0.505,0.409,1.011,0.613,1.516
			c0,1.902,0,3.805,0,5.707c4.24-16.106,4.036-32.577-7.053-45.862c-10.092-12.09-26.497-17.574-41.507-19.951
			c-5.773-0.915-11.523,1.39-13.203,7.496C249.643,75.715,252.771,82.844,258.558,83.76L258.558,83.76z"/>
	</g>
</g>
<g>
	<g>
		<path d="M48.36,116.602c0.14,28.001,9.228,55.448,28.967,75.753c21.881,22.509,53.645,31.253,84.268,31.4
			c10.384,0.05,10.379-16.05,0-16.1c-26.323-0.126-52.833-7.091-72.083-25.881c-17.458-17.042-24.933-41.229-25.053-65.172
			C64.408,106.223,48.309,106.218,48.36,116.602L48.36,116.602z"/>
	</g>
</g>
<g>
	<g>
		<path d="M450.867,116.602c-0.119,23.765-7.457,47.093-24.252,64.369c-18.958,19.502-46.421,26.558-72.884,26.685
			c-10.38,0.05-10.385,16.149,0,16.1c30.578-0.146,61.177-8.838,83.467-30.597c20.443-19.955,29.629-48.468,29.769-76.556
			C467.019,106.218,450.919,106.223,450.867,116.602L450.867,116.602z"/>
	</g>
</g>
<g>
	<g>
		<path d="M36.185,438.872c0.119-23.765,7.456-47.093,24.251-64.369c18.958-19.501,46.421-26.557,72.884-26.684
			c10.379-0.05,10.384-16.149,0-16.1c-30.578,0.146-61.176,8.838-83.467,30.596c-20.443,19.955-29.628,48.469-29.768,76.557
			C20.034,449.257,36.133,449.252,36.185,438.872L36.185,438.872z"/>
	</g>
</g>
<g>
	<g>
		<path d="M203.32,357.356c-21.099-14.619-23.528-44.599-17.891-67.55c2.477-10.082-13.049-14.358-15.524-4.279
			c-7.513,30.588-2.132,66.729,25.29,85.731C203.752,377.188,211.79,363.226,203.32,357.356L203.32,357.356z"/>
	</g>
</g>
<g>
	<g>
		<path d="M256,370.95c-10.802-0.057-21.35-1.074-31.795-3.914c-10.034-2.728-14.287,12.805-4.28,15.525
			c11.761,3.197,23.912,4.425,36.075,4.488C266.385,387.104,266.379,371.004,256,370.95L256,370.95z"/>
	</g>
</g>
<g>
	<g>
		<path d="M497.473,438.872c-0.14-28.001-9.228-55.448-28.967-75.753c-21.881-22.509-53.645-31.253-84.268-31.399
			c-10.385-0.05-10.38,16.05,0,16.1c26.322,0.126,52.832,7.091,72.082,25.881c17.458,17.041,24.934,41.229,25.053,65.172
			C481.425,449.252,497.524,449.257,497.473,438.872L497.473,438.872z"/>
	</g>
</g>
<g>
	<g>
		<path d="M378.68,281.114c40.313,0,80.626,0,120.939,0c10.382,0,10.382-16.1,0-16.1c-40.313,0-80.626,0-120.939,0
			C368.298,265.015,368.298,281.114,378.68,281.114L378.68,281.114z"/>
	</g>
</g>
<g>
	<g>
		<path d="M12.422,281.114c41.859,0,83.719,0,125.578,0c10.382,0,10.382-16.1,0-16.1c-41.859,0-83.719,0-125.578,0
			C2.04,265.015,2.04,281.114,12.422,281.114L12.422,281.114z"/>
	</g>
</g>
</svg>
