<?xml version="1.0" encoding="utf-8"?>
<!-- Generator: Adobe Illustrator 16.0.0, SVG Export Plug-In . SVG Version: 6.00 Build 0)  -->
<!DOCTYPE svg PUBLIC "-//W3C//DTD SVG 1.1//EN" "http://www.w3.org/Graphics/SVG/1.1/DTD/svg11.dtd">
<svg version="1.1" id="Слой_1" xmlns="http://www.w3.org/2000/svg" x="0px" y="0px"
     width="512px" height="512px" viewBox="0 0 512 512" enable-background="new 0 0 512 512" xml:space="preserve">
<g>
	<g>
		<path d="M71.909,85.017c0.222-0.099,0.446-0.194,0.669-0.29c-2.506,1.07-3.061,1.267-0.589,0.27
			c2.713-1.094,5.456-2.114,8.211-3.095c9.451-3.364,19.105-6.156,28.865-8.47c6.334-1.502,12.726-2.754,19.152-3.79
			c1.645-0.265,3.294-0.506,4.944-0.738c-3.98,0.56,1.624-0.19,2.587-0.301c3.767-0.436,7.545-0.76,11.329-1.008
			c7.566-0.496,15.158-0.549,22.731-0.187c3.734,0.179,7.46,0.501,11.175,0.917c0.622,0.07,3.838,0.489,0.419,0.027
			c0.938,0.126,1.873,0.27,2.809,0.413c2.194,0.335,4.377,0.737,6.554,1.166c7.906,1.559,15.664,3.827,23.184,6.717
			c0.917,0.353,1.826,0.726,2.735,1.099c-2.906-1.193,0.174,0.103,0.638,0.31c1.817,0.813,3.604,1.689,5.381,2.587
			c3.918,1.981,7.704,4.218,11.385,6.608c1.737,1.128,3.43,2.322,5.106,3.537c0.31,0.225,3.079,2.347,0.814,0.582
			c0.837,0.652,1.656,1.326,2.475,1.999c3.648,2.999,7.078,6.255,10.36,9.647c1.571,1.625,3.078,3.311,4.562,5.015
			c0.757,0.869,1.49,1.757,2.224,2.646c0.104,0.125,2.479,3.132,0.949,1.144c3.229,4.195,6.16,8.613,8.912,13.133
			c11.866,19.487,18.903,40.28,25.94,62.432c7.269,22.877,12.837,46.293,16.935,69.939c3.761,21.705,6.003,43.574,6.649,66.729
			c0.298,10.682,0.148,21.376-0.439,32.046c-0.268,4.858-0.666,9.709-1.153,14.55c-0.236,2.35-0.516,4.694-0.81,7.037
			c-0.48,3.83,0.362-2.517-0.179,1.273c-0.216,1.509-0.454,3.014-0.696,4.518c-1.426,8.866-3.386,17.649-5.942,26.259
			c-1.129,3.802-2.424,7.552-3.841,11.256c-0.342,0.893-0.701,1.778-1.062,2.663c1.221-3.001,0.012-0.055-0.219,0.468
			c-0.861,1.951-1.796,3.868-2.764,5.769c-1.583,3.105-3.354,6.112-5.261,9.029c-0.912,1.396-1.886,2.75-2.88,4.087
			c2.208-2.969-1.435,1.657-2.146,2.455c-2.065,2.317-4.328,4.45-6.713,6.434c-2.105,1.75,2.325-1.727,0.141-0.101
			c-0.603,0.448-1.222,0.87-1.842,1.293c-1.436,0.978-2.938,1.853-4.464,2.681c-0.877,0.477-5.526,2.521-1.713,0.939
			c-1.378,0.571-2.793,1.048-4.216,1.491c-1.442,0.449-2.914,0.799-4.391,1.115c-0.749,0.16-1.505,0.287-2.261,0.414
			c-2.232,0.374,3.081-0.311-0.542,0.026c-6.371,0.591-12.941,0.096-19.282-0.626c-0.84-0.095-3.543-0.48,0.406,0.069
			c-0.721-0.101-1.439-0.215-2.158-0.329c-1.418-0.225-2.829-0.489-4.237-0.769c-2.971-0.589-5.911-1.327-8.822-2.163
			c-2.603-0.747-5.168-1.619-7.704-2.568c-0.961-0.359-5.377-2.215-1.312-0.477c-1.4-0.599-2.78-1.243-4.151-1.905
			c-4.758-2.299-9.304-5.026-13.622-8.068c-0.843-0.594-4.468-3.357-0.944-0.629c-0.97-0.751-1.917-1.53-2.857-2.317
			c-2.015-1.688-3.942-3.479-5.81-5.326c-1.703-1.686-3.325-3.449-4.896-5.256c-0.779-0.896-1.533-1.814-2.278-2.739
			c-0.558-0.691-1.968-2.553,0.499,0.666c-0.478-0.623-0.942-1.257-1.405-1.893c-2.86-3.928-5.385-8.095-7.622-12.405
			c-1.061-2.043-2.03-4.133-2.942-6.246c1.841,4.265,0.148,0.284-0.239-0.726c-0.476-1.239-0.914-2.493-1.338-3.752
			c-1.498-4.447-2.629-9.015-3.452-13.634c-0.195-1.097-0.361-2.198-0.517-3.302c0.685,4.847,0.108,0.603-0.003-0.532
			c-0.233-2.376-0.351-4.762-0.394-7.147c-0.039-2.184,0.024-4.368,0.15-6.549c0.063-1.084,0.157-2.165,0.262-3.246
			c0.052-0.538,0.115-1.076,0.177-1.613c0.249-2.132-0.543,3.727-0.081,0.648c0.663-4.416,1.734-8.767,3.14-13.003
			c0.336-1.012,0.704-2.012,1.083-3.007c1.344-3.534-1.024,2.247,0.164-0.454c0.929-2.11,1.982-4.164,3.111-6.173
			c1.046-1.861,2.199-3.662,3.413-5.418c0.616-0.891,3.128-4.163,0.278-0.491c0.773-0.995,1.585-1.96,2.412-2.91
			c1.434-1.648,2.967-3.209,4.553-4.712c0.804-0.761,1.636-1.493,2.476-2.215c0.424-0.363,0.856-0.717,1.289-1.07
			c2.4-1.962-1.99,1.492-0.309,0.228c3.894-2.928,8.122-5.392,12.514-7.487c0.55-0.262,1.105-0.512,1.661-0.761
			c2.19-0.982-2.952,1.216-0.719,0.295c1.16-0.478,2.335-0.915,3.515-1.34c2.651-0.954,5.359-1.745,8.088-2.441
			c2.654-0.677,5.344-1.208,8.045-1.66c0.698-0.117,1.398-0.22,2.098-0.322c-3.982,0.584-1.328,0.179-0.471,0.076
			c1.71-0.204,3.425-0.352,5.142-0.479c6.636-0.491,13.308-0.365,19.938,0.129c1.721,0.128,3.438,0.299,5.153,0.482
			c0.879,0.094,1.755,0.202,2.631,0.31c3.095,0.381-2.878-0.41,0.241,0.039c4.032,0.581,8.039,1.329,12.025,2.165
			c8.476,1.777,16.822,4.135,25.051,6.819c20.307,6.623,36.613,14.223,56.106,24.642c12.658,6.766,24.989,14.132,37.095,21.837
			c5.753,3.663,13.759,1.224,17.102-4.484c3.542-6.046,1.253-13.45-4.484-17.102c-36.806-23.429-76.705-44.545-119.416-54.74
			c-26.741-6.384-56.551-8.605-82.766,1.276c-20.125,7.586-37.357,21.818-46.696,41.439c-9.122,19.165-10.826,40.419-6.752,61.117
			c8.805,44.743,47.048,78.913,91.617,85.693c14.168,2.156,29.199,3.121,42.914-1.846c14.768-5.35,26.123-15.68,35.002-28.421
			c20.776-29.812,25.473-70.296,26.67-105.589c1.581-46.587-5.025-93.766-16.5-138.848c-5.892-23.146-13.413-45.891-22.613-67.934
			c-8.624-20.662-19.435-39.827-35.104-56.024C223.194,36.416,150.899,35.393,90.38,52.447
			c-10.566,2.978-21.048,6.521-31.089,10.983c-6.229,2.769-7.638,11.719-4.484,17.103C58.53,86.889,65.682,87.784,71.909,85.017
			L71.909,85.017z"/>
	</g>
</g>
<g>
	<g>
		<path d="M75.949,446.784c-2.302-10.272-4.191-20.648-6.005-31.017c-1.961-11.209-3.72-22.453-5.302-33.722
			c-0.216-1.542-0.427-3.084-0.636-4.627c0.568,4.191-0.157-1.224-0.285-2.207c-0.459-3.536-0.894-7.075-1.313-10.616
			c-0.847-7.151-1.602-14.314-2.276-21.485c-2.883-30.642-4.202-61.538-2.452-92.288c0.429-7.536,1.084-15.059,1.969-22.555
			c0.104-0.882,0.216-1.764,0.327-2.645c0.388-3.075-0.401,2.881,0.021-0.178c0.239-1.734,0.501-3.465,0.771-5.195
			c0.575-3.68,1.24-7.346,1.97-10.998c1.347-6.734,3.014-13.403,5.021-19.97c0.919-3.008,1.939-5.984,3.029-8.934
			c0.532-1.439,1.097-2.866,1.674-4.288c1.036-2.552-1.17,2.712-0.083,0.198c0.396-0.916,0.81-1.823,1.227-2.73
			c2.505-5.446,5.452-10.687,8.837-15.634c0.781-1.141,1.601-2.254,2.434-3.357c-2.556,3.381,0.399-0.419,1.045-1.177
			c1.881-2.208,3.914-4.285,6.041-6.257c0.97-0.899,1.979-1.757,3-2.599c0.65-0.536,2.641-2.025-0.454,0.327
			c0.524-0.399,1.061-0.782,1.598-1.164c2.333-1.664,4.798-3.133,7.333-4.466c1.182-0.622,2.394-1.188,3.613-1.733
			c2.319-1.038-2.866,1.166-0.495,0.224c0.632-0.251,1.272-0.482,1.912-0.713c2.844-1.026,5.773-1.806,8.728-2.438
			c1.416-0.303,2.844-0.54,4.275-0.757c-4.342,0.658,0.826-0.046,1.866-0.132c5.247-0.433,10.531-0.518,15.792-0.401
			c2.289,0.051,4.575,0.188,6.857,0.36c1.092,0.082,2.182,0.194,3.271,0.306c0.473,0.049,4.034,0.537,0.88,0.088
			c4.213,0.599,8.375,1.518,12.466,2.683c1.746,0.497,3.465,1.08,5.172,1.694c0.826,0.297,1.641,0.622,2.456,0.948
			c-3.194-1.275-0.46-0.178,0.159,0.104c3.219,1.465,6.297,3.225,9.25,5.168c0.798,0.525,4.987,3.686,1.881,1.254
			c1.202,0.94,2.354,1.942,3.488,2.962c2.41,2.167,4.627,4.541,6.719,7.013c0.478,0.565,0.939,1.143,1.401,1.721
			c-2.301-2.882-0.63-0.808-0.167-0.182c0.876,1.184,1.706,2.401,2.521,3.627c1.765,2.653,3.361,5.416,4.873,8.219
			c1.396,2.589,2.676,5.24,3.903,7.913c0.613,1.335,1.201,2.683,1.781,4.033c-1.656-3.852,0.578,1.442,0.976,2.436
			c4.68,11.693,8.642,23.646,13.767,35.163c4.421,9.935,10.391,19.943,19.039,26.759c10.991,8.663,24.075,12.246,38.029,11.498
			c73.13-3.917,81.291-89.385,88.113-145.654c0.443-3.654,0.889-7.307,1.348-10.959c0.224-1.784,0.454-3.567,0.688-5.349
			c0.404-3.083-0.392,2.875,0.024-0.186c0.156-1.153,0.318-2.305,0.481-3.458c0.96-6.761,2.06-13.505,3.461-20.19
			c1.208-5.76,2.693-11.474,4.702-17.009c0.217-0.597,0.448-1.188,0.68-1.779c0.884-2.26-1.263,2.904-0.311,0.711
			c0.47-1.083,0.987-2.144,1.525-3.195c0.51-0.997,1.071-1.966,1.654-2.922c0.619-1.016,3.422-4.666,0.468-0.919
			c0.617-0.783,1.293-1.519,1.99-2.231c0.813-0.831,3.768-3.132-0.006-0.244c0.742-0.567,1.537-1.06,2.348-1.521
			c3.062-1.743-2.931,0.911,0.424-0.221c0.905-0.305,1.841-0.51,2.778-0.682c2.111-0.387-3.525,0.397-1.359,0.204
			c0.487-0.043,0.977-0.055,1.465-0.068c1.635-0.045,8.297,0.663,2.914-0.071c1.775,0.242,3.527,0.637,5.253,1.114
			c0.874,0.242,1.736,0.526,2.593,0.823c0.433,0.15,0.86,0.313,1.288,0.477c2.632,1.005-2.683-1.177-0.853-0.371
			c3.701,1.631,7.16,3.778,10.412,6.172c2.31,1.7-2.565-2.086,0.306,0.268c0.817,0.67,1.613,1.367,2.401,2.07
			c1.776,1.585,3.467,3.267,5.107,4.992c1.594,1.676,3.114,3.422,4.594,5.2c0.768,0.922,1.514,1.861,2.253,2.805
			c-2.801-3.578,0.354,0.524,1.001,1.416c6.688,9.232,12.231,19.271,17.156,29.535c1.302,2.713,2.545,5.456,3.756,8.211
			c0.31,0.703,0.612,1.408,0.916,2.113c1.101,2.558-1.133-2.713-0.054-0.131c0.707,1.691,1.394,3.391,2.071,5.093
			c2.51,6.307,4.805,12.699,6.958,19.136c4.608,13.776,8.439,27.808,11.732,41.953c3.487,14.982,6.287,30.122,8.538,45.337
			c0.275,1.859,0.537,3.72,0.794,5.581c0.444,3.213-0.369-2.81,0.055,0.408c0.123,0.935,0.242,1.869,0.36,2.804
			c0.516,4.058,0.979,8.122,1.411,12.189c0.831,7.827,1.487,15.672,2.004,23.527c1.991,30.303,1.659,60.874-2.091,91.032
			c-0.106,0.853-0.219,1.705-0.33,2.558c0.479-3.644,0.082-0.654-0.02,0.065c-0.237,1.68-0.493,3.356-0.755,5.031
			c-0.558,3.57-1.186,7.129-1.863,10.678c-1.256,6.575-2.754,13.104-4.487,19.569c-1.639,6.115-3.544,12.158-5.709,18.108
			c-0.501,1.374-1.024,2.74-1.557,4.103c-0.36,0.92-2.312,5.589-0.649,1.674c-1.188,2.797-2.468,5.552-3.814,8.274
			c-2.463,4.98-5.246,9.801-8.335,14.419c-0.711,1.064-1.45,2.11-2.199,3.148c-0.37,0.514-0.75,1.02-1.129,1.526
			c-1.456,1.943,1.915-2.442,0.418-0.545c-1.652,2.094-3.409,4.103-5.236,6.045c-1.645,1.748-3.379,3.409-5.168,5.006
			c-0.882,0.787-1.79,1.544-2.706,2.289c-0.694,0.563-2.553,1.951,0.68-0.511c-0.619,0.472-1.252,0.926-1.886,1.377
			c-1.892,1.346-3.864,2.575-5.88,3.724c-1.006,0.573-2.033,1.106-3.066,1.627c-1.019,0.512-5.566,2.468-1.233,0.657
			c-3.989,1.666-8.157,2.877-12.391,3.735c-0.988,0.201-1.982,0.366-2.979,0.523c-2.397,0.377,3.316-0.414,0.896-0.118
			c-0.614,0.075-1.23,0.134-1.846,0.193c-2.313,0.223-4.638,0.305-6.96,0.314c-16.118,0.065-16.125,25.065,0,25
			c23.024-0.094,44.351-9.506,60.217-26.14c17.004-17.826,27.133-41.388,33.811-64.783c16.712-58.551,14.87-122.518,6.799-182.29
			c-4.035-29.886-10.197-59.541-19.24-88.327c-7.747-24.662-17.563-49.384-31.785-71.085C439.548,41.706,424.837,25.5,404.872,18.81
			c-10.017-3.356-21.134-3.451-30.806,0.895c-10.703,4.809-16.665,15.73-20.822,26.083c-4.64,11.554-6.646,24.173-8.471,36.421
			c-2.373,15.931-4.059,31.955-6.137,47.925c-0.079,0.603-0.513,3.857-0.058,0.469c-0.127,0.949-0.259,1.898-0.39,2.847
			c-0.262,1.898-0.536,3.795-0.815,5.691c-0.603,4.096-1.261,8.184-1.969,12.262c-1.334,7.679-2.921,15.314-4.86,22.863
			c-1.836,7.153-4.073,14.205-6.822,21.061c-1.112,2.775,1.122-2.579-0.058,0.148c-0.333,0.771-0.684,1.536-1.033,2.301
			c-0.69,1.507-1.431,2.991-2.19,4.465c-1.598,3.103-3.395,6.098-5.342,8.993c-0.53,0.788-3.708,4.976-1.286,1.887
			c-0.951,1.214-1.963,2.379-2.994,3.525c-2.208,2.453-4.645,4.689-7.221,6.748c3.105-2.48-0.981,0.601-1.798,1.134
			c-1.284,0.838-2.62,1.595-3.97,2.321c-0.854,0.459-5.624,2.571-1.961,1.048c-1.729,0.719-3.509,1.313-5.3,1.856
			c-1.592,0.483-3.211,0.865-4.836,1.214c-0.961,0.207-6.612,1.077-2.83,0.572c-3.484,0.465-7.002,0.648-10.516,0.569
			c-1.45-0.033-2.897-0.151-4.339-0.305c4.426,0.471-0.287-0.103-1.359-0.333c-1.254-0.269-2.486-0.625-3.707-1.014
			c-0.591-0.188-1.172-0.404-1.753-0.622c-2.034-0.759,3.119,1.435,0.206,0.062c-2.124-1.001-4.117-2.263-6.003-3.657
			c3.615,2.672,0.233,0.093-0.577-0.649c-1.003-0.919-1.939-1.909-2.849-2.919c-0.709-0.787-3.375-4.25-0.664-0.68
			c-0.73-0.961-1.412-1.958-2.081-2.963c-1.499-2.253-2.824-4.618-4.074-7.016c-1.208-2.317-2.302-4.694-3.354-7.085
			c-0.34-0.774-1.319-3.107,0.205,0.517c-0.263-0.625-0.52-1.254-0.776-1.882c-0.607-1.487-1.192-2.983-1.772-4.481
			c-2.145-5.54-4.146-11.135-6.252-16.689c-9.777-25.787-22.929-50.963-48.711-63.82c-16.675-8.315-35.488-10.787-53.948-10.296
			c-14.604,0.388-28.641,3.163-41.512,10.285c-23.214,12.845-36.748,37.388-44.698,61.8c-9.269,28.458-11.823,59.213-12.381,88.979
			c-1.021,54.438,5.69,109.233,15.578,162.694c1.322,7.149,2.685,14.302,4.275,21.398c1.49,6.649,9.051,10.47,15.377,8.73
			C74.02,460.29,77.438,453.428,75.949,446.784L75.949,446.784z"/>
	</g>
</g>
<path d="M98.429,63.922c-3.458-9.43-14.28-14.133-24.173-10.506l-46.956,17.22C17.41,74.263,12.195,84.849,15.653,94.28
	c3.458,9.431,14.28,14.135,24.173,10.507l46.955-17.221C96.672,83.939,101.887,73.353,98.429,63.922z M35.63,99.468
	c-6.724,0-12.174-5.45-12.174-12.174s5.451-12.174,12.174-12.174c6.724,0,12.175,5.45,12.175,12.174S42.354,99.468,35.63,99.468z"/>
<path d="M373.372,346.168c-5.405,8.571-2.499,20.114,6.493,25.784l42.679,26.913c8.99,5.667,20.659,3.313,26.064-5.259
	c5.405-8.571,2.5-20.113-6.492-25.784l-42.679-26.911C390.448,335.241,378.778,337.597,373.372,346.168z M440.45,374.452
	c4.141,5.371,3.144,13.083-2.228,17.225c-5.374,4.142-13.087,3.144-17.227-2.229c-4.143-5.371-3.144-13.084,2.228-17.226
	C428.599,368.08,436.311,369.078,440.45,374.452z"/>
</svg>
