<?xml version="1.0" encoding="utf-8"?>
<!-- Generator: Adobe Illustrator 16.0.0, SVG Export Plug-In . SVG Version: 6.00 Build 0)  -->
<!DOCTYPE svg PUBLIC "-//W3C//DTD SVG 1.1//EN" "http://www.w3.org/Graphics/SVG/1.1/DTD/svg11.dtd">
<svg version="1.1" id="Слой_1" xmlns="http://www.w3.org/2000/svg" x="0px" y="0px"
     width="512px" height="512px" viewBox="0 0 512 512" enable-background="new 0 0 512 512" xml:space="preserve">
<g>
	<g>
		<g>
			<path fill="none" d="M284.638,395.941c0,33.855,21.957,61.303,49.043,61.303s49.042-27.446,49.042-61.303
				c0-33.858-21.956-61.304-49.042-61.304c-11.143,0-21.416,4.645-29.651,12.47C292.245,358.304,284.638,376.012,284.638,395.941z"
				/>
			<g>
				<g>
					<path fill="#1C1300" d="M346.866,336.897c0.585-1.665,0.543-3.448-0.169-4.857c-0.352-0.71-0.856-1.348-1.486-1.865
						c-0.636-0.5-1.407-0.845-2.251-1.035c0,0-1.589-0.363-4.417-0.68c-1.415-0.164-3.143-0.259-5.123-0.262
						c-0.989,0.05-2.043,0.104-3.153,0.158c-0.554,0.043-1.127,0.035-1.703,0.126c-0.576,0.089-1.167,0.179-1.771,0.271
						c-4.814,0.7-10.36,2.334-15.641,5.231c-5.296,2.859-10.316,6.858-14.524,11.485c-4.215,4.627-7.68,9.823-10.239,14.988
						c-2.592,5.154-4.362,10.232-5.521,14.654c-1.146,4.427-1.779,8.188-2.063,10.827c-0.165,1.319-0.281,2.356-0.316,3.067
						c-0.051,0.71-0.078,1.088-0.078,1.088c-0.143,1.613,0.558,3.114,1.703,4.171c1.144,1.061,2.742,1.677,4.522,1.674
						c1.781-0.003,3.409-0.596,4.599-1.488c1.188-0.898,1.922-2.1,2.047-3.457c0,0,0.021-0.319,0.064-0.919
						c0.025-0.602,0.129-1.476,0.27-2.587c0.23-2.229,0.773-5.388,1.729-9.088c0.965-3.695,2.442-7.915,4.568-12.144
						c2.095-4.24,4.914-8.433,8.239-12.087c3.321-3.651,7.191-6.707,11.138-8.839c3.94-2.164,7.953-3.315,11.425-3.82
						c0.434-0.07,0.858-0.14,1.274-0.206c0.415-0.073,0.829-0.052,1.229-0.083c0.8-0.043,1.56-0.084,2.273-0.123
						c1.429,0.006,2.675,0.067,3.692,0.189c2.038,0.229,3.187,0.488,3.187,0.488c0.608,0.143,1.23,0.081,1.848-0.1
						c0.611-0.16,1.225-0.477,1.813-0.914C345.206,339.873,346.272,338.594,346.866,336.897z M294.403,432.656
						c1.529-0.913,3.229-1.243,4.692-1.104c1.45,0.157,2.75,0.722,3.5,1.815c0,0,0.392,0.512,1.123,1.47
						c0.737,0.953,1.873,2.303,3.403,3.926c3.101,3.14,8.009,7.392,14.931,9.931c1.711,0.67,3.563,1.118,5.479,1.525
						c1.932,0.343,3.949,0.546,6.036,0.57c2.086-0.019,4.222-0.198,6.377-0.59c2.146-0.431,4.306-1.064,6.438-1.919
						c4.265-1.709,8.369-4.384,12.038-7.755c3.651-3.396,6.876-7.477,9.458-11.986c5.221-9.016,7.896-19.541,8.317-29.46
						c0.212-4.973-0.11-9.796-0.813-14.281c-0.729-4.485-1.872-8.632-3.23-12.322c-2.716-7.412-6.388-12.866-9.226-16.319
						c-0.714-0.866-1.364-1.625-1.966-2.249c-0.577-0.647-1.102-1.163-1.53-1.575c-0.838-0.849-1.323-1.252-1.323-1.253
						c-0.955-0.883-1.401-2.159-1.385-3.634c0.031-1.479,0.48-3.094,1.529-4.548c1.034-1.437,2.514-2.408,4.064-2.658
						c1.554-0.264,3.22,0.143,4.457,1.281c0,0,0.624,0.528,1.697,1.605c0.548,0.529,1.216,1.188,1.949,2.008
						c0.762,0.796,1.585,1.751,2.48,2.84c3.573,4.341,8.079,11.092,11.35,20.021c1.642,4.451,3.006,9.414,3.87,14.749
						c0.84,5.338,1.217,11.032,0.966,16.902c-0.506,11.729-3.636,24.277-10.034,35.344c-3.173,5.532-7.182,10.65-11.876,15.013
						c-4.712,4.336-10.139,7.902-15.952,10.236c-2.903,1.167-5.881,2.044-8.855,2.634c-2.985,0.55-5.954,0.804-8.843,0.818
						c-2.89-0.027-5.694-0.31-8.371-0.792c-2.658-0.546-5.212-1.194-7.552-2.096c-4.727-1.702-8.685-4.042-11.944-6.354
						c-3.262-2.328-5.81-4.688-7.8-6.708c-1.949-2.057-3.374-3.759-4.297-4.949c-0.914-1.198-1.4-1.838-1.4-1.838
						c-0.944-1.359-1.219-2.993-0.77-4.517C291.819,434.923,292.874,433.569,294.403,432.656z M284.638,395.941
						c1.781,0.003,3.407,0.596,4.594,1.489c0.596,0.446,1.069,0.975,1.418,1.557c0.363,0.581,0.584,1.219,0.625,1.901
						c0,0,0.016,0.256,0.041,0.703c0.045,0.445,0.108,1.084,0.187,1.849c0.063,0.767,0.187,1.653,0.328,2.602
						c0.118,0.953,0.306,1.958,0.495,2.962c0.731,4.028,2.017,7.897,2.017,7.897c0.389,1.296,0.176,2.661-0.62,3.949
						c-0.747,1.261-2.013,2.421-3.658,3.103c-1.646,0.682-3.373,0.726-4.855,0.175c-1.428-0.562-2.668-1.697-3.143-3.258
						c0-0.001-1.541-4.65-2.412-9.445c-0.228-1.196-0.446-2.395-0.592-3.524c-0.168-1.128-0.312-2.182-0.39-3.089
						c-0.09-0.906-0.165-1.662-0.218-2.19c-0.032-0.529-0.051-0.833-0.051-0.833c-0.051-0.807,0.084-1.588,0.369-2.296
						c0.299-0.709,0.766-1.347,1.336-1.876C281.255,396.555,282.856,395.938,284.638,395.941z"/>
				</g>
			</g>
		</g>
		<g>
			<g>
				<g>
					<path fill="#1C1300" d="M400.894,366.673c-1.627-0.716-3.854,0.271-5.982,2.685c-2.131,2.396-4.125,6.221-5.134,10.79
						c0,0-0.246,1.066-0.63,3.093c-0.364,2.03-0.866,5.021-1.105,8.946c-0.235,4.013-0.124,8.607,0.503,13.961
						c0.691,5.316,1.91,11.302,4.228,17.546c2.281,6.242,5.604,12.774,10.369,18.899c4.75,6.095,10.962,11.865,18.77,15.836
						c3.886,1.981,8.137,3.507,12.598,4.396c4.465,0.88,9.114,1.073,13.729,0.602c4.623-0.457,9.191-1.68,13.474-3.505
						c4.294-1.81,8.297-4.229,11.883-7.092c7.221-5.7,12.813-13.018,16.816-20.817c4.021-7.813,6.486-16.14,7.65-24.313
						c2.349-16.368-0.434-32.081-5.92-44.232c-2.722-6.095-6.067-11.335-9.575-15.578c-3.501-4.255-7.125-7.536-10.374-9.914
						c-3.242-2.392-6.05-3.949-8.021-4.891c-0.972-0.497-1.742-0.83-2.268-1.044c-0.521-0.22-0.791-0.334-0.791-0.334
						c-4.616-1.942-9.354-2.122-12.601-1.326c-0.819,0.215-1.552,0.467-2.186,0.752c-0.637,0.304-1.175,0.666-1.606,1.034
						c-0.867,0.745-1.309,1.58-1.308,2.472c0.001,0.891,0.435,1.754,1.151,2.549c0.359,0.4,0.791,0.769,1.278,1.144
						c0.486,0.394,1.03,0.768,1.621,1.114c2.364,1.465,5.396,2.783,8.765,4.206c0,0,0.198,0.084,0.582,0.246
						c0.388,0.154,0.954,0.397,1.676,0.771c1.461,0.69,3.556,1.856,6.03,3.681c2.479,1.811,5.299,4.355,8.086,7.74
						c2.79,3.374,5.515,7.62,7.757,12.644c1.114,2.513,2.118,5.212,2.964,8.074c0.831,2.865,1.48,5.896,1.942,9.05
						c0.934,6.299,1.004,13.138,0.021,20.02c-0.979,6.879-3.055,13.831-6.352,20.23c-3.273,6.396-7.801,12.237-13.347,16.604
						c-2.754,2.202-5.764,4.01-8.922,5.336c-3.151,1.345-6.447,2.227-9.778,2.55c-3.327,0.337-6.682,0.206-9.898-0.432
						c-3.221-0.646-6.315-1.75-9.205-3.222c-5.8-2.934-10.661-7.391-14.457-12.266c-3.813-4.894-6.559-10.251-8.446-15.43
						c-1.926-5.177-2.946-10.202-3.533-14.679c-0.528-4.47-0.618-8.528-0.43-11.602c0.188-3.164,0.61-5.692,0.919-7.401
						c0.324-1.712,0.533-2.622,0.533-2.622c0.855-3.879,1.269-7.521,1.102-10.439C403.295,369.595,402.527,367.39,400.894,366.673z
						 M424.496,231.962c-3.539,0.414-7.223-6.203-8.247-14.783c-4.479-37.274-9.133-74.542-14.665-111.586
						c-1.396-9.256-2.855-18.494-4.465-27.672c-0.809-4.586-1.649-9.158-2.565-13.686c-0.918-4.516-1.904-9.026-3.076-13.27
						c-0.142-0.539-0.293-1.058-0.45-1.559c-0.159-0.496-0.304-1.044-0.473-1.499c-0.316-0.951-0.677-1.897-0.958-2.469
						c-0.166-0.311-0.115-0.261-0.124-0.262c0.001,0.015,0.008,0.02-0.066-0.052c-0.307-0.229-0.942-0.562-1.68-0.84
						c-1.489-0.58-3.398-1.008-5.344-1.263c-1.956-0.251-3.993-0.359-5.991-0.292c-1.998,0.058-3.974,0.286-5.729,0.685
						c-0.877,0.198-1.676,0.455-2.337,0.726c-0.655,0.263-1.158,0.58-1.288,0.704c-0.018,0.03,0.009-0.029,0.01-0.004
						c-0.003-0.002-0.01-0.009,0.007,0.003c0.002,0.022,0.001-0.075-0.058,0.097c-0.051,0.119-0.115,0.26-0.181,0.386l-0.434,1.187
						l-0.427,1.41c-0.556,1.977-1.019,4.169-1.455,6.354c-1.688,8.869-2.836,18.15-3.899,27.388
						c-1.045,9.262-1.941,18.57-2.769,27.893c-1.648,18.646-3.014,37.354-4.27,56.069c-1.244,18.719-2.363,37.454-3.396,56.195
						l-1.479,28.118l-1.174,24.425l5.942,3.908l8.977,5.991c5.969,4.021,11.909,8.086,17.813,12.222
						c5.903,4.136,11.771,8.337,17.584,12.661c5.813,4.332,11.567,8.759,17.213,13.559c3.419,2.92,5.948,6.253,7.268,9.409
						c0.577,1.063,0.988,2.064,1.208,2.885c0.187,0.849,0.266,1.524,0.131,2.078c-0.2,1.092-0.927,1.581-1.856,1.672
						c-1.059,0.104-2.276-0.149-3.398-0.314c-1.125-0.188-2.115-0.267-2.849-0.196c-2.519-1.016-5.724-3.03-8.882-5.721
						c-5.267-4.48-10.866-8.795-16.536-13.021c-5.679-4.224-11.457-8.36-17.283-12.442c-5.826-4.081-11.706-8.104-17.616-12.086
						l-8.891-5.936l-4.462-2.938l-7.577-4.92l1.504-31.884l1.482-28.178c1.034-18.784,2.155-37.563,3.405-56.345
						c1.259-18.781,2.629-37.562,4.289-56.351c0.833-9.396,1.738-18.792,2.801-28.204c1.09-9.426,2.235-18.812,4.057-28.408
						c0.486-2.418,0.985-4.829,1.698-7.377l0.596-1.961c0.236-0.69,0.489-1.387,0.782-2.12l0.561-1.213
						c0.159-0.376,0.518-0.946,0.821-1.426c0.304-0.505,0.667-0.963,1.063-1.398c0.363-0.438,0.845-0.873,1.258-1.241
						c1.654-1.408,3.253-2.209,4.762-2.846c1.512-0.62,2.966-1.056,4.379-1.379c2.826-0.642,5.542-0.927,8.239-1.011
						c2.696-0.086,5.366,0.049,8.069,0.396c2.707,0.369,5.427,0.917,8.325,2.026c1.45,0.567,2.952,1.257,4.557,2.4
						c0.385,0.294,0.856,0.658,1.299,1.061c0.411,0.415,0.863,0.8,1.201,1.278c0.352,0.461,0.714,0.948,1.012,1.422l0.387,0.692
						l0.317,0.612c0.746,1.542,1.188,2.808,1.623,4.081c0.233,0.648,0.391,1.238,0.588,1.86c0.194,0.619,0.372,1.229,0.529,1.826
						c1.327,4.815,2.34,9.492,3.296,14.182c0.946,4.683,1.806,9.351,2.628,14.018c1.636,9.332,3.107,18.655,4.516,27.981
						c5.57,37.298,10.23,74.625,14.718,111.977C430.088,224.245,428.034,231.549,424.496,231.962z M443.413,334.638
						c-0.001,0.891-0.436,1.761-1.149,2.568c-0.925,0.853-2.908,1.689-5.523,2.597c-1.32,0.446-2.836,0.884-4.518,1.305
						l-0.638,0.156l-0.325,0.078c-0.05,0.007-0.119,0.037-0.153,0.024l-0.032-0.127c-0.088-0.348-0.178-0.7-0.268-1.058
						c-0.177-0.731-0.351-1.518-0.52-2.351c-0.339-1.664-0.66-3.519-0.956-5.498c-0.133-0.946-0.268-1.907-0.403-2.883
						c-0.077-0.521-0.145-1.05-0.201-1.587c0,0-1.393-12.897-2.783-25.797c-1.43-12.896-2.858-25.792-2.858-25.792
						c-0.963-8.585,1.113-15.872,4.653-16.276c3.54-0.403,7.205,6.239,8.169,14.838c0,0,1.432,12.914,2.861,25.827
						c1.395,12.918,2.788,25.837,2.788,25.837c0.058,0.538,0.104,1.07,0.137,1.598l0.011,0.174l-0.009,0.002l-0.023,0.008
						l-0.055,0.027c-0.081,0.047-0.197,0.148-0.342,0.349c-0.07,0.101-0.148,0.225-0.232,0.374l-0.131,0.247
						c-0.04,0.084-0.038,0.119-0.056,0.184c-0.047,0.231-0.036,0.486,0.037,0.76c0.066,0.265,0.227,0.572,0.432,0.908
						c0.229,0.331,0.399,0.688,0.779,1.058C442.973,332.919,443.414,333.747,443.413,334.638z"/>
				</g>
			</g>
		</g>
	</g>
	<g>
		<line fill="none" x1="347.324" y1="281.953" x2="333.681" y2="334.638"/>
		<g>
			<path fill="#201600" d="M342.772,280.698c-4.548,17.563-9.096,35.123-13.644,52.686c-1.527,5.897,7.578,8.398,9.104,2.51
				c4.549-17.563,9.097-35.123,13.645-52.686C353.403,277.31,344.298,274.809,342.772,280.698L342.772,280.698z"/>
		</g>
	</g>
	<g>
		<line fill="none" x1="375.546" y1="299.901" x2="364.896" y2="345.113"/>
		<g>
			<path fill="#201600" d="M370.994,298.646c-3.55,15.07-7.101,30.142-10.649,45.212c-1.395,5.921,7.708,8.435,9.104,2.51
				c3.55-15.069,7.1-30.142,10.648-45.212C381.492,295.235,372.39,292.722,370.994,298.646L370.994,298.646z"/>
		</g>
	</g>
	<g>
		<g>
			<path fill="#201600" d="M396.968,258.864c-0.604,14.209-21.422,14.209-22.026,0C374.336,244.643,396.366,244.702,396.968,258.864
				c0.259,6.064,9.7,6.09,9.441,0c-0.488-11.474-8.981-19.967-20.455-20.455c-11.46-0.488-19.997,9.716-20.454,20.455
				c-0.487,11.459,9.715,19.998,20.454,20.455c11.46,0.487,19.998-9.715,20.455-20.455
				C406.668,252.774,397.227,252.8,396.968,258.864z"/>
		</g>
	</g>
	<g>
		<g>
			<g>
				<path fill="#1C1300" d="M35.672,66.354c-0.411-0.083-0.867,0.111-1.361,0.575c-0.479,0.466-1.068,1.188-1.521,2.19
					c-0.479,0.998-0.992,2.251-1.463,3.744c-0.375,1.479-0.774,3.275-1.076,5.141c-1.1,7.246-1.779,17.256-1.779,28.313
					c0,0,0,41.503,0,103.758c0,31.127,0,67.442,0,106.352c0,19.455,0,39.559,0,59.985c0,10.214,0,20.509,0,30.844
					c0,2.584,0,5.17,0,7.759v0.971l0.035,1.063l0.082,2.146c0.038,0.715,0.037,1.431,0.109,2.145l0.248,2.14
					c0.67,5.697,2.119,11.349,4.449,16.697c2.332,5.342,5.549,10.4,9.779,14.71c4.21,4.297,9.516,7.836,15.572,9.703l1.125,0.367
					c0.384,0.094,0.775,0.166,1.162,0.248l2.336,0.46c0.772,0.188,1.574,0.178,2.363,0.251l2.377,0.146
					c2.588,0.004,5.174,0.007,7.758,0.011c5.143,0,10.27,0,15.375,0c20.428,0,40.531,0,59.985,0c19.455,0,38.261,0,56.095,0
					c2.229,0,4.442,0,6.641,0h1.646c0.576-0.009,1.017,0.021,1.746-0.032c1.338-0.093,2.684-0.128,4-0.311
					c5.299-0.727,10.229-2.816,14.338-5.637c4.133-2.814,7.521-6.301,10.289-10.02c2.81-3.71,4.846-7.75,6.463-11.796
					c1.676-4.044,2.613-8.202,3.351-12.266l0.198-1.529c0.08-0.875,0.162-1.746,0.244-2.616c0.076-0.909,0.185-1.818,0.232-2.72
					c0.045-0.901,0.088-1.801,0.133-2.695c0.088-1.791,0.176-3.572,0.264-5.342c0-0.105,0.021-0.23,0.007-0.321l-0.332-0.005
					l-0.662-0.008l-1.323-0.019c-0.88-0.011-1.757-0.021-2.632-0.033c-1.75-0.021-3.487-0.044-5.214-0.065
					c-0.863-0.011-1.725-0.021-2.582-0.032l-1.378-0.003c-1.728,0-3.431,0-5.11,0c-3.359,0-6.622,0-9.783,0
					c-12.646,0-23.668,0-32.748,0c-18.158,0-28.533,0-28.533,0c-22.113,0-40.041,2.72-40.041,6.074
					c0,3.354,17.928,6.074,40.041,6.074c0,0,10.375,0,28.533,0c9.078,0,20.103,0,32.748,0c5.059,0,10.439,0,16.113,0v-0.016v-0.008
					v-0.004v-0.002l-0.016,0.121l-0.154,1.231c-0.605,3.247-1.332,6.577-2.657,9.729c-2.437,6.358-6.639,12.334-12.249,16.199
					c-2.798,1.926-5.953,3.23-9.255,3.678c-0.825,0.112-1.665,0.105-2.5,0.189c-0.358,0.052-1.013,0.021-1.53,0.029h-1.646
					c-2.198,0-4.412,0-6.642,0c-17.832,0-36.64,0-56.094,0c-19.453,0-39.558,0-59.984,0c-5.107,0-10.234,0-15.377,0
					c-2.56-0.003-5.123-0.006-7.688-0.009l-1.483-0.108c-0.494-0.05-0.998-0.005-1.479-0.146l-1.463-0.294
					c-0.244-0.049-0.491-0.086-0.734-0.143l-0.712-0.248c-3.832-1.185-7.43-3.507-10.461-6.597c-3.039-3.088-5.51-6.91-7.32-11.069
					c-1.813-4.164-2.978-8.667-3.515-13.253l-0.206-1.722c-0.063-0.574-0.052-1.157-0.083-1.734l-0.069-1.735l-0.033-0.878v-0.972
					c0-2.588,0-5.174,0-7.758c0-10.335,0-20.63,0-30.844c0-20.428,0-40.53,0-59.985c0-38.908,0-75.225,0-106.352
					c0-62.255,0-103.758,0-103.758c0-11.057-0.68-21.066-1.779-28.313c-0.247-1.756-0.458-3.233-0.741-4.631
					c-0.187-1.369-0.375-2.575-0.628-3.591c-0.277-1.021-0.449-1.822-0.751-2.408C36.43,66.791,36.083,66.437,35.672,66.354z
					 M188.779,341.199c0,3.354-17.92,6.074-40.041,6.074h-13.237h-6.619h-1.654c-0.293-0.004-0.513,0.007-0.866-0.008l-1.063-0.049
					c-1.421-0.022-2.83-0.271-4.233-0.504c-5.576-1.195-10.791-4.119-14.559-8.392c-1.887-2.12-3.504-4.508-4.629-7.134
					c-1.139-2.615-1.865-5.404-2.168-8.236c-0.256-2.832-0.075-5.689,0.517-8.479c0.589-2.796,1.708-5.462,3.146-7.912
					c2.869-4.938,7.41-8.793,12.631-11.068c2.636-1.096,5.438-1.775,8.27-2.03l2.129-0.104l1.685-0.006h3.31h13.237h99.823v-21.575
					h-72.322h-39.198h-4.899h-1.226c-0.183,0.003-0.437-0.005-0.71-0.02l-0.787-0.036l-1.574-0.092l-1.565-0.231
					c-2.089-0.307-4.116-0.951-6.079-1.724c-1.924-0.859-3.799-1.855-5.48-3.13c-3.387-2.496-6.229-5.755-8.106-9.54
					c-1.905-3.763-2.918-7.989-2.931-12.189c0.013-4.2,1.024-8.428,2.931-12.189c1.878-3.785,4.72-7.044,8.106-9.54
					c1.682-1.272,3.557-2.27,5.48-3.13c1.963-0.771,3.99-1.417,6.079-1.723l1.565-0.232l1.574-0.092l0.787-0.036
					c0.273-0.014,0.527-0.021,0.71-0.018h1.226h4.899h39.198h72.322v-21.575h-72.322h-39.198h-4.899h-1.227
					c-0.182,0.004-0.436-0.005-0.709-0.019l-0.787-0.035l-1.576-0.093l-1.563-0.231c-2.089-0.307-4.116-0.952-6.079-1.724
					c-1.925-0.86-3.799-1.856-5.48-3.13c-3.387-2.496-6.229-5.755-8.106-9.54c-1.905-3.763-2.918-7.989-2.931-12.189
					c0.013-4.201,1.024-8.427,2.931-12.19c1.878-3.785,4.72-7.043,8.106-9.54c1.682-1.272,3.556-2.27,5.48-3.13
					c1.963-0.771,3.99-1.417,6.079-1.723l1.563-0.232l1.574-0.092l0.788-0.036c0.272-0.013,0.527-0.021,0.709-0.018h1.226h4.899
					h39.198h72.322v-21.575H142.305h-13.527c-1.963,0.029-5.25-0.002-8.028-0.637c-2.856-0.601-5.584-1.743-8.08-3.229
					c-5.021-2.963-8.944-7.64-11.136-13.037c-1.129-2.692-1.703-5.599-1.885-8.488c-0.123-1.449-0.02-2.9,0.07-4.35
					c0.2-1.441,0.406-2.884,0.818-4.287c0.77-2.809,1.975-5.502,3.591-7.924c1.635-2.408,3.646-4.549,5.94-6.332
					c4.563-3.618,10.416-5.546,16.207-5.629l27.114-0.01h54.111h27.056h8.768l-0.012-0.06l-0.099-0.521l-0.726-2.704
					c-2.231-7.613-6.461-14.688-12.349-19.177c-2.924-2.236-6.212-3.774-9.624-4.408l-1.279-0.245l-1.299-0.069
					c-0.451-0.021-0.822-0.069-1.34-0.083h-1.691h-6.764h-54.111c-22.111,0-40.039-2.719-40.039-6.073
					c0-3.355,17.927-6.074,40.039-6.074h54.111h6.764h1.691c0.609,0.012,1.362,0.064,2.036,0.103l2.077,0.14l2.047,0.362
					c5.459,1.015,10.529,3.454,14.753,6.691c4.244,3.243,7.702,7.245,10.44,11.579c2.742,4.341,4.775,9.029,6.199,13.854l0.489,1.82
					l0.242,0.911c0.081,0.335,0.161,0.505,0.242,1.103l0.976,6.066c0.088,0.489,0.155,1.032,0.215,1.591l0.189,1.651l0.381,3.302
					l0.189,1.651l0.049,0.413c0.021,0.079,0.02,0.141-0.078,0.116l-0.208,0.003l-0.831,0.014l-3.324,0.05l-6.646,0.101l-3.023,0.041
					h-1.691h-6.764h-27.056H153.39l-26.998,0.011c-1.612,0.012-3.192,0.317-4.702,0.822c-1.513,0.498-2.937,1.275-4.191,2.271
					c-1.262,0.982-2.372,2.164-3.279,3.482c-0.887,1.334-1.535,2.811-1.959,4.344c-0.24,0.763-0.326,1.559-0.458,2.347
					c-0.024,0.803-0.114,1.604-0.028,2.406c0.108,1.595,0.394,3.186,1.026,4.653c1.206,2.941,3.358,5.552,6.128,7.164
					c1.372,0.81,2.854,1.455,4.419,1.772c1.638,0.328,2.888,0.375,5.429,0.354h13.527H256.6v45.87h-84.47h-39.198h-4.9h-1.223
					c-0.226-0.004-0.38,0.005-0.514,0.018l-0.436,0.024l-0.873,0.04l-0.856,0.139c-1.149,0.152-2.246,0.531-3.328,0.932
					c-1.044,0.491-2.084,1.013-3.002,1.727c-3.804,2.724-6.062,7.287-6.077,11.937c0.016,4.647,2.273,9.213,6.077,11.936
					c0.918,0.714,1.958,1.235,3.002,1.728c1.082,0.399,2.179,0.779,3.328,0.932l0.856,0.138l0.873,0.04l0.436,0.025
					c0.134,0.011,0.288,0.021,0.514,0.017h1.225h4.9h39.198h84.47v45.87h-84.47h-39.198h-4.9h-1.225
					c-0.226-0.004-0.38,0.005-0.515,0.017l-0.437,0.024l-0.871,0.04l-0.857,0.139c-1.15,0.152-2.247,0.53-3.328,0.933
					c-1.044,0.49-2.084,1.013-3.002,1.726c-3.803,2.724-6.063,7.287-6.077,11.938c0.015,4.647,2.272,9.213,6.077,11.936
					c0.918,0.713,1.958,1.235,3.002,1.727c1.082,0.4,2.178,0.778,3.328,0.933l0.857,0.139l0.871,0.039l0.437,0.025
					c0.134,0.011,0.289,0.021,0.515,0.016h1.225h4.9h39.198h84.47v45.871H144.631h-13.237h-3.31l-1.624,0.005l-1.177,0.063
					c-1.561,0.149-3.086,0.516-4.532,1.104c-2.839,1.266-5.384,3.369-6.938,6.098c-0.781,1.349-1.416,2.796-1.727,4.328
					c-0.313,1.525-0.421,3.109-0.288,4.678c0.181,1.557,0.575,3.074,1.19,4.509c0.603,1.442,1.515,2.745,2.547,3.916
					c2.07,2.376,4.951,3.941,7.983,4.619c0.775,0.103,1.541,0.271,2.332,0.266l0.589,0.036c0.196,0.014,0.529,0.003,0.787,0.006
					h1.654h6.619h13.236C170.859,335.125,188.779,337.845,188.779,341.199z M126.537,416.696c0,0.419-0.28,0.813-0.859,1.182
					c-0.578,0.361-1.459,0.742-2.625,0.896c-2.316,0.396-5.906,0.193-9.919-1.67c-3.994-1.807-8.286-5.496-10.997-10.986
					c-2.658-5.477-3.398-12.701-0.938-19.466c0,0,0.059-0.157,0.17-0.463c0.123-0.3,0.256-0.769,0.541-1.328
					c0.275-0.564,0.593-1.274,1.023-2.075c0.485-0.769,0.967-1.707,1.68-2.637c1.324-1.932,3.291-4.034,5.896-5.992
					c2.611-1.94,5.958-3.662,9.883-4.583c0.969-0.281,1.998-0.36,3.028-0.534c1.028-0.125,2.112-0.142,3.164-0.191
					c1.678,0,3.413,0,5.196,0c3.566,0,7.328,0,11.219,0c7.781,0,16.082,0,24.382,0c33.202,0,66.403,0,66.403,0
					c3,0,5.922,0.051,8.727,0.146c0.352,0.013,0.699,0.025,1.046,0.037l0.519,0.021l0.259,0.012l0.121,0.006l0.004,0.005
					c0.026,0.029,0.062,0.062,0.108,0.096c0.096,0.069,0.239,0.149,0.445,0.239c0.12-0.038,0.26-0.155,0.413-0.38
					c0.039-0.075,0.079-0.077,0.119-0.23c0.042-0.385,0.084-0.765,0.125-1.14c0.091-0.749,0.181-1.479,0.267-2.187
					c0.371-2.829,0.801-5.312,1.278-7.36c0.953-4.103,2.09-6.481,3.313-6.481c1.223,0,2.359,2.38,3.313,6.481
					c0.477,2.05,0.906,4.531,1.277,7.36c0.086,0.708,0.176,1.438,0.268,2.187c0.041,0.375,0.082,0.755,0.125,1.14
					c0.039,0.694,0.078,1.397,0.119,2.108c0.154,2.933,0.293,6.126,0.412,9.531c-2.385,0.076-4.842,0.156-7.364,0.238
					c-1.302,0.031-2.621,0.063-3.955,0.097c-0.729,0.025-1.467,0.053-2.212,0.079c-2.805,0.095-5.727,0.146-8.727,0.146
					c0,0-33.202,0-66.403,0c-8.3,0-16.601,0-24.382,0c-3.891,0-7.652,0-11.219,0c-1.783,0-3.519,0-5.196,0
					c-0.622,0.051-1.194,0.04-1.771,0.11c-0.561,0.12-1.135,0.119-1.658,0.297c-4.324,1.023-7.211,3.731-8.662,5.813
					c-0.408,0.502-0.642,1.036-0.928,1.446c-0.231,0.441-0.397,0.833-0.558,1.138c-0.17,0.303-0.222,0.565-0.292,0.729
					c-0.061,0.167-0.092,0.253-0.092,0.253c-1.332,3.675-1.238,7.651-0.178,10.977c1.123,3.325,3.104,6.122,5.269,8.081
					C122.033,413.866,126.558,414.893,126.537,416.696z"/>
			</g>
			<g>
				<polygon points="128.435,414.194 127.371,416.696 128.435,419.198 122.505,416.696 				"/>
			</g>
		</g>
	</g>
	<path d="M162.091,33.582c0,3.272-2.653,5.926-5.926,5.926h-49.921c-3.273,0-5.926-2.652-5.926-5.926l0,0
		c0-3.271,2.652-5.926,5.926-5.926h49.921C159.438,27.656,162.091,30.31,162.091,33.582L162.091,33.582z"/>
	<path d="M96.316,33.582c0,3.272-1.8,5.926-4.021,5.926h-33.88c-2.221,0-4.021-2.652-4.021-5.926l0,0
		c0-3.271,1.801-5.926,4.021-5.926h33.88C94.517,27.656,96.316,30.31,96.316,33.582L96.316,33.582z"/>
	<path d="M250.529,379.26c-3.272,0-5.926-1.8-5.926-4.021V341.36c0-2.223,2.652-4.021,5.926-4.021l0,0
		c3.271,0,5.924,1.801,5.924,4.021v33.879C256.451,377.46,253.8,379.26,250.529,379.26L250.529,379.26z"/>
	<path d="M219.42,341.411c0,3.272-3.915,5.926-8.746,5.926h-73.686c-4.832,0-8.748-2.652-8.748-5.926l0,0
		c0-3.271,3.916-5.925,8.748-5.925h73.686C215.505,335.486,219.42,338.14,219.42,341.411L219.42,341.411z"/>
	<path d="M34.544,106.54c-3.272,0-5.927-2.654-5.927-5.926V50.692c0-3.273,2.654-5.926,5.927-5.926l0,0
		c3.272,0,5.926,2.652,5.926,5.926v49.922C40.47,103.886,37.816,106.54,34.544,106.54L34.544,106.54z"/>
</g>
</svg>
