<?xml version="1.0" encoding="utf-8"?>
<!-- Generator: Adobe Illustrator 19.0.1, SVG Export Plug-In . SVG Version: 6.00 Build 0)  -->
<svg version="1.1" id="Слой_1" xmlns="http://www.w3.org/2000/svg" x="0px" y="0px"
     viewBox="0 0 512 512" style="enable-background:new 0 0 512 512;" xml:space="preserve">
<style type="text/css">
	.st0{fill:#1D1D1B;}
</style>
<g>
	<g>
		<path class="st0" d="M176.3,225c-0.6-8-9.8-11.1-16.4-13c-13.2-3.8-27.4-5-41.1-5.6c1.7,1.7,3.3,3.3,5,5
			c-0.7-13.9-1.8-28.3-5.8-41.7c-1.8-6-5.1-15.8-12.9-15.8c-7.8,0-11.1,9.8-12.9,15.8c-4,13.4-5.1,27.8-5.8,41.7
			c1.7-1.7,3.3-3.3,5-5c-14.2,0.7-29.1,1.8-42.7,6.1c-6.3,2-16.4,6-14.5,14.5c1.5,6.9,10.2,9.7,16.1,11.3
			c13.3,3.8,27.5,4.8,41.3,5.6c-1.7-1.7-3.3-3.3-5-5c0.7,13.7,1.3,28,5,41.3c1.6,5.7,4.2,13.4,10.6,15.4c8.1,2.6,12.6-5.9,14.9-12.2
			c5.1-14,6.1-30,6.8-44.7c-1.7,1.7-3.3,3.3-5,5c13.7-0.7,27.9-1.8,41.1-5.6C166.5,236.1,175.7,233,176.3,225c0.5-6.4-9.5-6.4-10,0
			c0.1-1.5,0.7-0.7-0.4-0.2c-0.9,0.4-1.8,1.1-2.7,1.5c-3.4,1.6-7.1,2.5-10.7,3.3c-11,2.5-22.4,3.5-33.7,4c-2.8,0.1-4.9,2.2-5,5
			c-0.6,12.5-1.6,25.2-4.9,37.3c-1,3.5-2.6,6.4-3.9,9.7c-0.8,2-0.8-0.3,0.2,0.4c-0.4-0.3,0.8,0.9-0.1-0.1c0.7,0.7-0.8-0.9-0.6-0.7
			c-0.6-0.8-1.1-1.8-1.5-2.8c-1.2-2.7-1.9-5.8-2.5-8.7c-2.5-11.4-3.1-23.3-3.7-35c-0.1-2.8-2.2-4.8-5-5c-11.5-0.7-23.1-1.6-34.3-4.2
			c-3.2-0.7-6.6-1.5-9.7-2.9c-1.1-0.5-2.1-1.1-3.1-1.7c-0.6-0.4-0.4-0.6-0.6-0.5c0.5-0.4-0.1,1.4-0.3,1.4c0.2,0,1.8-1.4,2.1-1.6
			c3.1-1.9,6.8-2.8,10.3-3.6c11.6-2.9,23.6-3.9,35.5-4.5c2.8-0.1,4.9-2.2,5-5c0.5-11.3,1.5-22.6,4-33.7c0.8-3.5,1.7-7,3.1-10.3
			c0.5-1.1,1.3-2,1.7-3.1c0.5-1.2,1.2-0.4-0.2-0.4c-1.4,0-0.8-0.8-0.2,0.4c0.4,0.9,1.1,1.8,1.5,2.7c1.5,3.2,2.4,6.7,3.2,10
			c2.7,11.2,3.6,22.8,4.2,34.3c0.1,2.8,2.2,4.9,5,5c11.3,0.5,22.6,1.5,33.7,4c3.5,0.8,7,1.7,10.3,3.1c1.1,0.5,2,1.3,3.1,1.7
			c1.2,0.5,0.5,1.3,0.4-0.2C166.7,231.4,176.7,231.4,176.3,225z"/>
	</g>
</g>
<g>
	<g>
		<path class="st0" d="M471.7,69.6c-0.6-7.6-9-10.5-15.2-12.4c-12.3-3.6-25.5-4.6-38.2-5.3c1.7,1.7,3.3,3.3,5,5
			c-0.6-12.7-1.6-25.9-5.3-38.2c-1.7-5.8-4.9-15.2-12.4-15.2c-7.3,0-10.5,9-12.2,14.6c-3.8,12.4-4.8,25.9-5.4,38.8
			c1.7-1.7,3.3-3.3,5-5c-13.2,0.6-27.2,1.6-39.8,5.7c-6,1.9-15.2,5.8-13.3,13.8c1.5,6.4,9.5,9.1,15,10.7c12.3,3.5,25.5,4.4,38.3,5.2
			c-1.7-1.7-3.3-3.3-5-5c0.6,12.5,1.2,25.6,4.5,37.8c1.5,5.6,4,13.1,10.2,15c7.8,2.4,12-5.6,14.2-11.6c4.7-13,5.6-27.7,6.3-41.3
			c-1.7,1.7-3.3,3.3-5,5c12.7-0.6,25.9-1.6,38.2-5.3C462.8,80.1,471.2,77.2,471.7,69.6c0.5-6.4-9.5-6.4-10,0
			c0.1-0.8,0.6-1.1-0.1-0.6c-0.8,0.6-1.8,1.1-2.7,1.5c-3.1,1.4-6.5,2.2-9.8,3c-10.1,2.3-20.4,3.2-30.7,3.7c-2.8,0.1-4.9,2.2-5,5
			c-0.5,11.3-1.5,22.8-4.4,33.8c-0.9,3.4-2.5,6.2-3.8,9.4c-0.6,1.6,0.1-0.8,0.6,0.1c0-0.1,0.1-0.1,0,0c0.8-0.4,0,0.8,0.1-0.1
			c0,0.2-0.3-0.3-0.3-0.4c-0.6-0.9-1.1-1.8-1.5-2.8c-1.1-2.6-1.7-5.4-2.3-8.1c-2.2-10.4-2.8-21.2-3.3-31.8c-0.1-2.8-2.2-4.8-5-5
			c-10.5-0.6-21.1-1.5-31.3-3.8c-3-0.7-6.1-1.4-8.9-2.6c-1-0.4-1.9-1-2.9-1.5c-0.8-0.4-0.3-0.7-0.5-0.3c0.4-0.6-0.2,1.2-0.1,1.2
			c-0.1,0,1-0.7,1.5-1c2.8-1.7,6.3-2.5,9.4-3.3c10.7-2.7,21.7-3.6,32.6-4.1c2.8-0.1,4.9-2.2,5-5c0.5-10.3,1.4-20.7,3.7-30.7
			c0.7-3.2,1.5-6.6,2.9-9.6c0.3-0.6,1.7-2.3,1.6-3c0-0.7,0.7-0.1-0.6-0.1c-1.2,0-0.6-0.5-0.6,0.1c0,0.6,1.3,2.1,1.5,2.7
			c1.3,2.9,2.1,6.1,2.9,9.2c2.4,10.3,3.3,20.9,3.8,31.4c0.1,2.8,2.2,4.9,5,5c10.3,0.5,20.7,1.4,30.7,3.7c3.2,0.7,6.6,1.5,9.6,2.9
			c1,0.5,2,1,3,1.6c0.7,0.5,0.2,0.2,0.1-0.6C462.2,76,472.2,76,471.7,69.6z"/>
	</g>
</g>
<g>
	<g>
		<path class="st0" d="M376.2,437.1c-0.6-7.4-8.6-10.3-14.7-12.1c-11.9-3.5-24.7-4.5-37-5.1c1.7,1.7,3.3,3.3,5,5
			c-0.6-12.3-1.6-25.1-5.1-37c-1.7-5.7-4.8-14.7-12.1-14.7c-7.3,0-10.4,9.1-12.1,14.7c-3.5,11.9-4.5,24.7-5.1,37
			c1.7-1.7,3.3-3.3,5-5c-12.7,0.6-25.9,1.6-38.1,5.4c-5.9,1.9-15.1,5.6-13.5,13.5c1.4,6.4,9.1,9,14.6,10.6
			c11.9,3.4,24.7,4.3,37.1,5.1c-1.7-1.7-3.3-3.3-5-5c0.6,12.4,1.2,25.4,4.6,37.4c1.5,5.2,4,12.1,9.8,13.8
			c7.5,2.2,11.6-5.4,13.8-11.3c4.6-12.6,5.5-26.9,6.1-40.1c-1.7,1.7-3.3,3.3-5,5c12.3-0.6,25.1-1.6,37-5.1
			C367.6,447.4,375.6,444.5,376.2,437.1c0.5-6.4-9.5-6.4-10,0c0.1-0.8,0.6-1.1-0.2-0.6c-0.9,0.6-1.8,1.1-2.7,1.5
			c-2.9,1.3-6.2,2.1-9.3,2.8c-9.7,2.2-19.7,3-29.6,3.5c-2.8,0.1-4.9,2.2-5,5c-0.5,10.9-1.4,22-4.3,32.7c-0.5,1.8-1,3.6-1.7,5.3
			c-0.4,1.1-1.5,2.3-1.7,3.4c-0.3,1.7-0.5-0.4,0.4,0.5c-0.1-0.1,0.2,0.2,0.2,0c0,0.7-0.5-0.7-0.4-0.4c-0.5-0.8-1-1.7-1.4-2.6
			c-1.1-2.4-1.6-5.1-2.2-7.6c-2.2-10.1-2.8-20.6-3.3-31c-0.1-2.8-2.2-4.8-5-5c-10.1-0.6-20.2-1.4-30.1-3.6c-3-0.7-6.1-1.4-8.9-2.6
			c-1.2-0.5-3.4-1.8-3.2-2.1c0.1-0.1,0.4,2.1,0.1,1.9c0,0,1.3-0.9,1.6-1.1c2.7-1.6,5.9-2.3,8.9-3.1c10.3-2.6,20.9-3.4,31.5-4
			c2.8-0.1,4.9-2.2,5-5c0.5-9.9,1.3-19.9,3.5-29.6c0.7-3.1,1.5-6.3,2.8-9.3c0.3-0.6,1.5-2.2,1.5-2.7c0-0.7,0.7-0.1-0.6-0.1
			c-1.2,0-0.6-0.5-0.6,0.1c0,0.5,1.1,1.9,1.3,2.4c1.3,2.8,2.1,6,2.8,9c2.3,9.9,3.2,20.1,3.7,30.2c0.1,2.8,2.2,4.9,5,5
			c9.9,0.5,19.9,1.3,29.6,3.5c3,0.7,6.2,1.4,9,2.7c1,0.4,2.1,1,3,1.6c0.7,0.5,0.2,0.2,0.2-0.6C366.7,443.5,376.7,443.6,376.2,437.1z
			"/>
	</g>
</g>
<g>
	<g>
		<path class="st0" d="M184.9,326.2c13.9,22,37.1,37.2,63.4,38.3c6.5,0.3,6.5-9.9,0-10.1c-22.6-0.9-42.7-14.3-54.6-33.2
			C190.1,315.6,181.4,320.7,184.9,326.2L184.9,326.2z"/>
	</g>
</g>
<g>
	<g>
		<path class="st0" d="M167.4,295.2c0.7,2.3,1.5,4.5,2.4,6.7c1,2.4,3.4,4.5,6.2,3.5c2.4-0.8,4.6-3.6,3.5-6.2
			c-0.9-2.2-1.7-4.5-2.4-6.7c-0.8-2.5-3.6-4.4-6.2-3.5C168.4,289.8,166.6,292.5,167.4,295.2L167.4,295.2z"/>
	</g>
</g>
<g>
	<g>
		<path class="st0" d="M133.9,240.4c-10,37.3-13.6,78.6,3.9,114.2c16.3,33.1,48.8,53,82.9,63.8c20.4,6.5,41.8,9.8,63,11.9
			c4.7,0.5,8.8-4.3,8.8-8.8c0-5.1-4-8.3-8.8-8.8c-32.9-3.2-67.1-10.1-95.4-28.1c-28.1-17.9-43.7-46.8-45.2-79.8
			c-0.9-20.3,2.4-40.2,7.7-59.7C153.7,234.2,136.8,229.5,133.9,240.4L133.9,240.4z"/>
	</g>
</g>
<g>
	<g>
		<path class="st0" d="M259.9,17.5C211.7,72,173.3,135.7,146.7,203.4c-1.7,4.4,1.9,9.6,6.1,10.8c5,1.4,9-1.7,10.8-6.1
			C189,143.3,226.2,82,272.3,29.9C279.7,21.5,267.4,9.1,259.9,17.5L259.9,17.5z"/>
	</g>
</g>
<g>
	<g>
		<path class="st0" d="M406.2,262.7c6.6,29,5.7,61.6-7.9,88.6c-13,25.7-36.2,44.7-63.6,53.4c-10.7,3.4-6.1,20.3,4.7,16.9
			c31.5-10.1,59-31.7,74.1-61.4c15.8-31.3,17.3-68.3,9.6-102C420.6,247.1,403.7,251.8,406.2,262.7L406.2,262.7z"/>
	</g>
</g>
<g>
	<g>
		<path class="st0" d="M395.3,230.4c1.4,3.7,2.8,7.4,4.1,11.1c1.5,4.3,6.1,7.6,10.8,6.1c4.3-1.4,7.7-6.1,6.1-10.8
			c-1.3-3.7-2.7-7.4-4.1-11.1c-1.7-4.3-5.9-7.7-10.8-6.1C397.2,220.9,393.5,225.8,395.3,230.4L395.3,230.4z"/>
	</g>
</g>
<g>
	<g>
		<path class="st0" d="M262.5,29c26.2,25.5,48.7,54.3,69.4,84.5c21.1,30.8,41.1,62.9,56.4,96.9c1.9,4.3,8.2,5.3,12,3.1
			c4.4-2.6,5.1-7.6,3.1-12c-15.6-34.7-36-67.2-57.5-98.5c-21.2-30.8-44.2-60.4-71-86.5C266.8,8.8,254.4,21.2,262.5,29L262.5,29z"/>
	</g>
</g>
</svg>
