<?xml version="1.0" encoding="utf-8"?>
<!-- Generator: Adobe Illustrator 16.0.0, SVG Export Plug-In . SVG Version: 6.00 Build 0)  -->
<!DOCTYPE svg PUBLIC "-//W3C//DTD SVG 1.1//EN" "http://www.w3.org/Graphics/SVG/1.1/DTD/svg11.dtd">
<svg version="1.1" id="Слой_1" xmlns="http://www.w3.org/2000/svg" x="0px" y="0px"
     width="512px" height="512px" viewBox="0 0 512 512" enable-background="new 0 0 512 512" xml:space="preserve">
<g>
	<g>
		<g>
			<g>
				<g>
					<path d="M387.203,227.253c-5.375,3.103-4.701,14.335,1.506,25.085c0,0,11.65,20.179,29.125,50.447
						c8.738,15.134,18.932,32.79,29.854,51.708c5.461,9.459,11.104,19.233,16.838,29.165c2.867,4.966,5.757,9.972,8.658,14.996
						c1.45,2.513,2.904,5.03,4.358,7.55c0.195,0.331,0.348,0.609,0.489,0.873l0.445,0.815c0.288,0.545,0.618,1.081,0.875,1.631
						c0.526,1.098,1.099,2.188,1.538,3.292c0.976,2.197,1.717,4.41,2.276,6.584c0.583,2.178,0.902,4.317,0.993,6.357
						c0.203,4.098-0.545,7.738-2.231,10.711c-1.663,2.986-4.265,5.471-7.669,7.394c-1.72,0.938-3.613,1.725-5.609,2.382
						c-2.023,0.62-4.147,1.103-6.336,1.442c-2.201,0.312-4.443,0.531-6.726,0.576l-1.707,0.041l-1.968,0.004
						c-1.328,0-2.65,0-3.964,0c-5.257,0-10.398,0-15.405,0c-10.012,0-19.477,0-28.215,0c-34.951,0-58.252,0-58.252,0
						c-12.412,0-22.477,5.032-22.477,11.238c0,6.208,10.064,11.24,22.477,11.24c0,0,23.301,0,58.252,0c8.738,0,18.203,0,28.215,0
						c5.007,0,10.148,0,15.405,0c1.313,0,2.636,0,3.964,0c0.673-0.001,1.348-0.003,2.025-0.004c0.766-0.017,1.535-0.033,2.305-0.05
						c3.081-0.069,6.241-0.358,9.443-0.822c3.209-0.495,6.469-1.22,9.746-2.235c3.275-1.063,6.564-2.412,9.775-4.181
						c3.203-1.788,6.311-4.029,9.123-6.73c2.811-2.697,5.307-5.881,7.256-9.396c1.95-3.511,3.369-7.332,4.162-11.192
						c0.805-3.861,1.043-7.739,0.863-11.489c-0.174-3.755-0.758-7.394-1.664-10.84c-0.888-3.459-2.032-6.78-3.408-9.911
						c-0.653-1.598-1.42-3.098-2.162-4.62c-0.367-0.767-0.791-1.479-1.186-2.219l-0.604-1.1l-0.579-1.03
						c-1.455-2.52-2.909-5.037-4.359-7.55c-2.901-5.025-5.79-10.03-8.657-14.996c-5.734-9.932-11.378-19.706-16.839-29.165
						c-10.923-18.918-21.116-36.574-29.854-51.708c-17.475-30.269-29.125-50.447-29.125-50.447
						C401.969,230.349,392.579,224.149,387.203,227.253z M163.564,459.545c0,6.208-10.061,11.24-22.48,11.24c0,0-12.044,0-33.122,0
						c-10.539,0-23.335,0-38.015,0c-3.669,0-7.457,0-11.356,0c-4.37-0.013-9.095-0.301-13.924-1.155
						c-4.84-0.86-9.884-2.255-14.911-4.614c-1.245-0.65-2.514-1.209-3.741-1.981c-0.616-0.371-1.233-0.743-1.852-1.117
						c-0.603-0.418-1.207-0.838-1.813-1.259c-0.608-0.414-1.203-0.86-1.782-1.35c-0.583-0.478-1.169-0.952-1.744-1.447
						c-1.109-1.062-2.253-2.086-3.271-3.287c-2.107-2.308-3.955-4.962-5.462-7.813c-1.544-2.839-2.689-5.911-3.467-9.036
						C5.011,431.447,5.03,425,5.976,418.959c1.008-6.035,2.899-11.762,5.39-17.073c0.651-1.302,1.254-2.661,1.967-3.923
						c0.688-1.255,1.436-2.64,2.042-3.665c1.276-2.209,2.561-4.435,3.854-6.676c10.351-17.928,21.266-36.833,32.558-56.391
						c22.583-39.114,46.671-80.837,70.76-122.559c24.088-41.723,48.177-83.445,70.759-122.56
						c5.646-9.779,11.197-19.395,16.631-28.806c0.679-1.177,1.357-2.35,2.032-3.52l0.508-0.879l0.601-0.994l1.206-1.981
						c0.839-1.307,1.71-2.6,2.609-3.875c0.953-1.257,1.838-2.533,2.881-3.742c1.962-2.466,4.237-4.773,6.612-6.974
						c2.436-2.17,5.091-4.17,7.957-5.937c2.911-1.725,6.037-3.193,9.348-4.28c3.312-1.089,6.827-1.709,10.336-1.898
						c1.76-0.118,3.515-0.033,5.258,0.068c1.731,0.188,3.457,0.399,5.125,0.79c3.336,0.743,6.546,1.83,9.438,3.274
						c2.909,1.418,5.613,3.07,8.019,4.916c2.461,1.81,4.61,3.814,6.641,5.85c3.978,4.122,7.195,8.517,9.902,12.945
						c36.24,62.716,60.4,104.527,60.4,104.527c6.206,10.75,6.882,21.985,1.506,25.089c-5.375,3.103-14.767-3.1-20.974-13.85
						c0,0-24.045-41.617-60.111-104.043c-1.999-3.275-4.285-6.345-6.834-8.993c-1.294-1.28-2.616-2.53-4.022-3.546
						c-1.384-1.079-2.837-1.931-4.298-2.651c-5.88-2.817-11.875-2.675-18.12,1.048c-1.534,0.963-3.06,2.093-4.545,3.409
						c-1.454,1.375-2.924,2.813-4.26,4.513c-0.704,0.794-1.324,1.722-1.994,2.585c-0.636,0.91-1.264,1.84-1.878,2.791l-0.89,1.468
						l-0.449,0.734l-0.505,0.875c-0.676,1.17-1.353,2.343-2.032,3.52c-5.434,9.412-10.986,19.027-16.631,28.806
						c-22.583,39.115-46.671,80.837-70.76,122.56c-24.088,41.723-48.177,83.444-70.76,122.559
						c-11.292,19.558-22.207,38.463-32.558,56.391c-1.293,2.241-2.579,4.467-3.854,6.677c-0.691,1.172-1.136,2.033-1.671,2.996
						c-0.542,0.94-0.944,1.901-1.428,2.842c-1.785,3.788-2.963,7.573-3.571,11.142c-0.547,3.559-0.497,6.891,0.253,9.727
						c0.354,1.43,0.841,2.759,1.514,3.963c0.644,1.221,1.413,2.354,2.362,3.371c1.805,2.096,4.296,3.755,7.057,5.112
						c2.805,1.317,5.964,2.229,9.22,2.803c3.281,0.578,6.589,0.8,10.015,0.813c3.899,0,7.687,0,11.356,0c14.679,0,27.476,0,38.015,0
						c21.077,0,33.122,0,33.122,0C153.503,448.307,163.564,453.339,163.564,459.545z M323.602,459.545
						c0,6.208-10.064,11.24-22.48,11.24h-74.559c-12.413,0-22.477-5.032-22.477-11.24c0-6.206,10.064-11.238,22.477-11.238h74.559
						C313.537,448.307,323.602,453.339,323.602,459.545z"/>
				</g>
			</g>
		</g>
		<circle cx="261.079" cy="376.575" r="25.878"/>
		<g>
			<path d="M271.395,302.102c-4.141,33.508-12.817,33.81-19.28,0.672l-19.441-99.686c-6.463-33.138,4.034-60.251,23.328-60.251
				s31.691,27.416,27.548,60.923L271.395,302.102z"/>
		</g>
	</g>
	<path d="M412.174,459.521c0,6.226-7.565,11.271-16.899,11.271H291.058c-9.333,0-16.899-5.046-16.899-11.271l0,0
		c0-6.225,7.566-11.271,16.899-11.271h104.217C404.608,448.25,412.174,453.296,412.174,459.521L412.174,459.521z"/>
</g>
</svg>
