<?xml version="1.0" encoding="utf-8"?>
<!-- Generator: Adobe Illustrator 16.0.0, SVG Export Plug-In . SVG Version: 6.00 Build 0)  -->
<!DOCTYPE svg PUBLIC "-//W3C//DTD SVG 1.1//EN" "http://www.w3.org/Graphics/SVG/1.1/DTD/svg11.dtd">
<svg version="1.1" id="Слой_1" xmlns="http://www.w3.org/2000/svg" x="0px" y="0px"
     width="512px" height="512px" viewBox="0 0 512 512" enable-background="new 0 0 512 512" xml:space="preserve">
<g>
	<g>
		<g>
			<path d="M289.072,225.001c0,6.526,7.551,11.818,16.863,11.818c0,0,17.481,0,43.703,0c1.639,0,3.312,0,5.017,0
				c0.85,0,1.707,0,2.572,0.001c0.731,0.017,1.47,0.034,2.214,0.051c2.974,0.118,6.033,0.432,9.125,1
				c6.182,1.128,12.49,3.347,18.328,6.709c5.838,3.348,11.164,7.909,15.185,13.396c2.011,2.736,3.72,5.684,5.005,8.785
				c1.273,3.104,2.151,6.346,2.6,9.646c0.237,1.648,0.315,3.316,0.352,4.985c0.001,2.175,0.002,4.348,0.003,6.516
				c0,4.354,0,8.689,0,12.991c0,8.604,0,17.072,0,25.267c0,16.388,0,31.685,0,44.795c0,26.222,0,43.703,0,43.703
				c0,9.313,5.291,16.863,11.817,16.863c6.528,0,11.819-7.551,11.819-16.863c0,0,0-17.481,0-43.703c0-13.11,0-28.407,0-44.795
				c0-8.194,0-16.662,0-25.267c0-4.302,0-8.638,0-12.991c-0.001-2.185-0.002-4.374-0.003-6.565
				c-0.038-2.695-0.185-5.398-0.562-8.078c-0.723-5.361-2.155-10.62-4.195-15.565c-2.05-4.945-4.724-9.553-7.807-13.745
				c-6.175-8.403-14.033-15.037-22.393-19.844c-8.369-4.822-17.235-7.901-25.822-9.479c-4.296-0.792-8.521-1.227-12.608-1.384
				c-1.021-0.022-2.035-0.044-3.039-0.065c-0.872,0-1.735-0.001-2.591-0.001c-1.705,0-3.378,0-5.017,0c-26.222,0-43.703,0-43.703,0
				C296.623,213.181,289.072,218.473,289.072,225.001z M332.375,487.999c0,6.528-7.548,11.819-16.865,11.819c0,0-36.145,0-90.361,0
				c-13.554,0-28.238,0-43.769,0c-7.766,0-15.743,0-23.896,0c-1.041-0.003-2.083-0.006-3.129-0.009
				c-1.186-0.029-2.374-0.059-3.565-0.088c-1.191-0.079-2.385-0.158-3.582-0.238c-1.194-0.131-2.391-0.264-3.59-0.396
				c-4.79-0.63-9.585-1.674-14.303-3.159c-9.433-2.957-18.564-7.732-26.552-14.357c-3.99-3.311-7.693-7.079-10.957-11.287
				c-3.244-4.224-6.044-8.883-8.239-13.883c-2.212-4.991-3.749-10.349-4.556-15.832c-0.097-0.686-0.205-1.371-0.286-2.06
				l-0.185-2.071c-0.148-1.382-0.15-2.769-0.196-4.155c-0.024-0.749-0.018-1.263-0.019-1.828v-1.686v-3.374c0-9,0-18.036,0-27.072
				c0-36.145,0-72.289,0-106.175c0-2.118,0-4.227,0-6.326c0-1.05,0-2.098,0-3.143v-0.783v-0.392l0.011-0.476l0.054-1.93
				c0.191-5.139,1.031-10.218,2.445-15.049c2.853-9.677,7.97-18.241,14.188-25.177c6.229-6.961,13.539-12.361,21.141-16.35
				c7.615-3.995,15.553-6.523,23.296-7.962c3.88-0.688,7.713-1.102,11.464-1.293c0.938-0.022,1.87-0.044,2.797-0.066l1.348-0.022
				h1.191c1.583,0,3.147,0,4.692,0c6.177,0,12.037,0,17.543,0c11.013,0,20.613,0,28.52,0c15.813,0,24.85,0,24.85,0
				c9.313,0,16.866,5.292,16.866,11.82c0,6.526-7.553,11.818-16.866,11.818c0,0-9.036,0-24.85,0c-7.907,0-17.507,0-28.52,0
				c-5.506,0-11.366,0-17.543,0c-1.544,0-3.108,0-4.692,0h-1.191l-1.049,0.02c-0.675,0.015-1.354,0.029-2.038,0.044
				c-2.727,0.145-5.5,0.445-8.295,0.936c-5.569,1.042-11.234,2.847-16.57,5.651c-5.326,2.795-10.342,6.537-14.476,11.161
				c-4.134,4.614-7.359,10.102-9.13,16.089c-0.872,2.996-1.384,6.109-1.502,9.285l-0.037,1.193l-0.01,0.307v0.392v0.783
				c0,1.045,0,2.093,0,3.143c0,2.1,0,4.208,0,6.326c0,33.886,0,70.03,0,106.175c0,9.036,0,18.072,0,27.072v3.374v1.686
				c0,0.558-0.005,1.167,0.017,1.54c0.039,0.856,0.018,1.717,0.123,2.566l0.107,1.277l0.183,1.268
				c0.497,3.376,1.43,6.685,2.83,9.823c1.383,3.144,3.169,6.136,5.291,8.906c2.143,2.758,4.62,5.285,7.337,7.54
				c5.437,4.515,11.84,7.906,18.568,10.009c3.363,1.059,6.807,1.81,10.267,2.266c0.868,0.096,1.734,0.191,2.598,0.287
				c0.869,0.058,1.736,0.115,2.6,0.173c0.868,0.021,1.734,0.041,2.597,0.063c1.003,0.003,2.004,0.006,3.002,0.009
				c8.154,0,16.131,0,23.896,0c15.531,0,30.214,0,43.769,0c54.217,0,90.361,0,90.361,0
				C324.827,476.182,332.375,481.473,332.375,487.999z M421.855,431.527c1.632-0.001,3.174,0.477,4.561,1.446
				c0.693,0.484,1.349,1.091,1.954,1.813c0.573,0.72,1.088,1.556,1.542,2.496c1.792,3.729,2.178,9.254,0.271,14.701
				c0,0-0.077,0.259-0.263,0.728c-0.182,0.47-0.448,1.159-0.788,2.037c-0.693,1.749-1.808,4.19-3.328,7.012
				c-1.567,2.789-3.577,5.929-6.023,9.041c-2.434,3.123-5.323,6.186-8.434,8.96c-6.208,5.591-13.354,9.86-18.946,12.404
				c-2.795,1.288-5.184,2.208-6.869,2.802c-1.69,0.582-2.658,0.906-2.658,0.906c-5.203,1.641-10.36,1.319-14.014-0.353
				c-3.687-1.654-5.86-4.48-6.089-7.745c-0.228-3.242,1.368-6.317,3.729-8.801c2.395-2.477,5.532-4.476,9.216-5.629
				c0,0,0.174-0.053,0.495-0.167c0.321-0.11,0.794-0.273,1.395-0.48c1.199-0.421,2.893-1.076,4.861-1.981
				c3.944-1.79,8.915-4.786,13.116-8.569c2.106-1.878,4.037-3.921,5.629-5.973c1.604-2.046,2.895-4.072,3.904-5.851
				c0.957-1.802,1.67-3.335,2.1-4.432c0.213-0.549,0.381-0.979,0.495-1.273c0.121-0.292,0.164-0.454,0.164-0.454
				c1.164-3.358,3.021-6.192,5.404-8.531c0.585-0.58,1.224-1.119,1.896-1.606c0.641-0.49,1.325-0.928,2.043-1.297
				C418.655,431.994,420.225,431.528,421.855,431.527z"/>
		</g>
	</g>
</g>
<g>
	<g>
		<g>
			<path d="M314.792,51.999c0-6.71-5.92-12.151-13.221-12.151H82.288c-7.301,0-13.221,5.441-13.221,12.151
				c0,6.712,5.92,12.153,13.221,12.153h219.283C308.872,64.152,314.792,58.711,314.792,51.999z M111.201,134.26
				c2.365-2.38,5.558-3.537,8.708-3.575c1.592-0.032,3.114,0.286,4.658,0.779c1.526,0.512,2.965,1.313,4.243,2.428
				c0,0,0.31,0.27,0.911,0.792c0.624,0.497,1.551,1.233,2.759,2.194c1.212,0.957,2.671,2.18,4.51,3.469
				c1.82,1.311,3.865,2.88,6.304,4.438c1.208,0.795,2.463,1.657,3.808,2.519c1.368,0.829,2.8,1.696,4.292,2.6
				c1.473,0.935,3.085,1.78,4.735,2.694c1.654,0.907,3.349,1.88,5.176,2.747c7.192,3.679,15.587,7.347,25.066,10.49
				c9.468,3.157,20.001,5.843,31.343,7.587c11.334,1.759,23.468,2.615,36.009,2.329c6.272-0.086,12.625-0.622,19.034-1.301
				c1.6-0.185,3.195-0.441,4.801-0.657c1.601-0.246,3.221-0.402,4.816-0.728c3.198-0.601,6.435-1.103,9.624-1.878
				c1.6-0.365,3.21-0.699,4.81-1.087c1.591-0.423,3.185-0.847,4.78-1.271l2.395-0.638l2.369-0.734
				c1.58-0.488,3.163-0.976,4.748-1.465l4.689-1.658l2.349-0.828l2.313-0.92l4.626-1.848l4.547-2.031l2.273-1.016l2.228-1.106
				l4.452-2.214l4.345-2.395l2.169-1.2l2.113-1.284c5.703-3.318,11.051-7.124,16.238-11.02c2.531-2.025,5.094-3.997,7.471-6.151
				c2.466-2.06,4.725-4.306,7.028-6.48c1.143-1.096,2.196-2.268,3.295-3.39c1.093-1.129,2.185-2.251,3.186-3.444
				c1.026-1.171,2.048-2.337,3.066-3.5c0.962-1.205,1.921-2.405,2.875-3.601l1.429-1.79l1.329-1.847
				c0.884-1.228,1.765-2.451,2.641-3.667c0.814-1.255,1.625-2.505,2.432-3.748c0.4-0.623,0.815-1.235,1.202-1.862
				c0.368-0.636,0.736-1.271,1.104-1.904c0.733-1.266,1.464-2.525,2.189-3.776c0.661-1.284,1.318-2.56,1.973-3.829
				c0.327-0.634,0.652-1.266,0.978-1.896c0.291-0.646,0.581-1.289,0.87-1.93c0.581-1.281,1.159-2.554,1.732-3.818
				c2.063-5.145,3.951-10.203,5.254-15.241c0.232-0.847,0.458-1.664,0.673-2.449c-32.715,0-54.524,0-54.524,0
				c-7.302,0-13.223-5.441-13.223-12.153c0-6.71,5.921-12.151,13.223-12.151c0,0,7.084,0,19.481,0c6.199,0,13.726,0,22.359,0
				c2.159,0,4.387,0,6.68,0c1.147,0,2.311,0,3.489,0c0.59,0,1.184,0,1.78,0c0.939,0.011,1.885,0.021,2.836,0.032
				c4.754,0.073,9.631,0.148,14.623,0.225c2.496,0.038,5.021,0.077,7.574,0.116c1.276,0.02,2.561,0.04,3.851,0.059l0.484,0.008
				c0.063,0.016,0.202-0.032,0.202,0.038l-0.038,0.239l-0.152,0.96c-0.102,0.641-0.203,1.283-0.305,1.927
				c-0.841,5.147-1.573,10.428-2.629,15.744c-0.496,2.665-0.996,5.355-1.501,8.07c-0.12,0.699-0.262,1.324-0.421,1.946l-0.414,1.578
				c-0.204,0.748-0.408,1.499-0.614,2.253c-1.582,6.056-3.819,12.126-6.306,18.27c-0.682,1.509-1.368,3.028-2.06,4.557
				c-0.348,0.764-0.695,1.53-1.045,2.299c-0.384,0.75-0.77,1.503-1.156,2.258c-0.778,1.507-1.563,3.023-2.351,4.548
				c-0.857,1.484-1.72,2.976-2.587,4.477c-0.437,0.749-0.875,1.499-1.313,2.251c-0.456,0.741-0.941,1.465-1.414,2.201
				c-0.953,1.465-1.911,2.938-2.873,4.418c-1.028,1.431-2.062,2.87-3.1,4.314l-1.567,2.167l-1.667,2.1
				c-1.119,1.398-2.242,2.802-3.37,4.212c-1.187,1.356-2.378,2.719-3.573,4.085c-1.175,1.388-2.438,2.696-3.707,4.009
				c-1.273,1.306-2.509,2.663-3.83,3.935c-2.66,2.526-5.293,5.118-8.128,7.5c-2.754,2.482-5.689,4.76-8.608,7.084
				c-5.951,4.484-12.092,8.828-18.588,12.62l-2.414,1.461l-2.467,1.37l-4.95,2.722l-5.055,2.52l-2.532,1.252l-2.576,1.156
				l-5.156,2.298l-5.234,2.095l-2.619,1.037l-2.652,0.939l-5.3,1.869c-1.787,0.553-3.572,1.105-5.354,1.657l-2.674,0.824
				l-2.696,0.723c-1.798,0.477-3.593,0.953-5.385,1.428c-1.801,0.438-3.611,0.818-5.411,1.227c-3.592,0.864-7.223,1.442-10.817,2.11
				c-1.795,0.358-3.609,0.545-5.406,0.819c-1.801,0.244-3.593,0.525-5.387,0.732c-7.183,0.771-14.302,1.358-21.313,1.462
				c-14.018,0.32-27.597-0.638-40.324-2.614c-12.732-1.96-24.592-4.979-35.281-8.544c-10.7-3.55-20.213-7.7-28.39-11.88
				c-2.071-0.992-4.006-2.091-5.889-3.125c-1.878-1.041-3.708-2.009-5.395-3.071c-1.703-1.032-3.335-2.023-4.896-2.969
				c-1.539-0.984-2.979-1.967-4.359-2.877c-2.782-1.789-5.14-3.581-7.224-5.087c-2.102-1.484-3.79-2.885-5.184-3.986
				c-1.389-1.108-2.454-1.957-3.171-2.53c-0.695-0.602-1.054-0.912-1.054-0.912c-1.478-1.284-2.663-2.767-3.522-4.333
				c-0.877-1.546-1.325-3.296-1.495-4.946C107.787,139.835,108.836,136.639,111.201,134.26z M69.066,52
				c3.329-0.426,6.57,0.612,9.091,2.464c1.281,0.926,2.294,2.08,3.213,3.375c0.911,1.297,1.575,2.764,1.921,4.384
				c0,0,0.032,0.152,0.093,0.437c0.057,0.286,0.146,0.704,0.301,1.227c0.287,1.05,0.697,2.551,1.189,4.352
				c0.126,0.449,0.242,0.922,0.388,1.403c0.159,0.478,0.324,0.972,0.494,1.48c0.337,1.016,0.692,2.088,1.06,3.197
				c0.339,1.118,0.79,2.24,1.244,3.382c0.447,1.144,0.901,2.306,1.355,3.469c0.98,2.296,2.04,4.563,3.01,6.696
				c1.079,2.086,2.085,4.033,2.948,5.701c1.893,3.254,3.154,5.423,3.154,5.423c0.898,1.412,1.491,2.921,1.77,4.49
				c0.142,0.783,0.208,1.578,0.204,2.375c0.023,0.78-0.025,1.561-0.145,2.334c-0.482,3.09-2.073,6.082-4.762,8.088
				c-2.689,2.006-6.01,2.596-9.291,1.804c-0.818-0.197-1.634-0.477-2.432-0.841c-0.771-0.383-1.522-0.849-2.243-1.392
				c-1.437-1.089-2.763-2.481-3.819-4.151c0,0-1.494-2.569-3.735-6.423c-1.025-1.983-2.222-4.297-3.504-6.776
				c-1.168-2.538-2.426-5.243-3.593-7.988c-0.545-1.39-1.09-2.78-1.626-4.148c-0.54-1.367-1.071-2.712-1.488-4.052
				c-0.441-1.33-0.868-2.616-1.272-3.835c-0.201-0.61-0.397-1.204-0.586-1.777c-0.175-0.579-0.319-1.146-0.471-1.686
				c-0.591-2.166-1.083-3.97-1.427-5.234c-0.181-0.629-0.291-1.132-0.361-1.476c-0.075-0.343-0.114-0.526-0.114-0.526
				c-0.423-1.95-0.491-3.884-0.246-5.679c0.237-1.795,0.939-3.481,1.805-4.91C62.96,54.312,65.739,52.426,69.066,52z"/>
		</g>
	</g>
</g>
<polygon points="90.5,64.063 59.375,64.063 58.438,39.75 90.5,39.75 "/>
<g>
	<g>
		<g>
			<path stroke="#000000" stroke-width="4" stroke-miterlimit="10" d="M293.444,407.298c-0.769-1.025-1.666-1.73-2.563-2.114
				c-0.896-0.385-1.73-0.321-2.371,0.063c0,0-0.512,0.32-1.537,1.025c-0.514,0.32-1.154,0.705-1.923,1.153
				c-0.769,0.449-1.666,0.897-2.691,1.41c-0.257,0.128-0.513,0.256-0.769,0.385c-0.257,0.128-0.577,0.256-0.834,0.384
				c-0.576,0.257-1.153,0.513-1.794,0.833c-1.282,0.513-2.628,1.09-4.165,1.538c-3.012,1.025-6.473,1.923-10.317,2.436
				c-3.845,0.576-8.074,0.769-12.496,0.448c-4.421-0.256-9.1-1.153-13.714-2.627c-4.613-1.41-9.228-3.589-13.521-6.28
				c-4.293-2.756-8.33-6.088-11.854-9.868c-7.049-7.626-11.855-17.175-13.97-26.658c-1.09-4.742-1.475-9.42-1.41-13.906
				c0.064-4.485,0.641-8.651,1.538-12.432c1.73-7.562,4.742-13.457,7.113-17.238c0.577-0.961,1.153-1.794,1.666-2.563
				c0.448-0.769,0.962-1.346,1.282-1.794c0.384-0.513,0.641-0.833,0.832-1.09c0.193-0.256,0.32-0.384,0.32-0.384
				c0.962-1.153,0.257-3.461-1.602-5.127s-4.293-1.923-5.447-0.513c0,0-0.128,0.128-0.32,0.449c-0.191,0.32-0.512,0.704-0.961,1.281
				c-0.449,0.576-0.961,1.218-1.538,2.114c-0.577,0.833-1.282,1.795-1.923,2.948c-2.755,4.422-6.215,11.214-8.266,19.93
				c-2.115,8.715-2.563,19.416-0.129,30.375c2.371,10.957,8.011,21.979,16.085,30.759c4.037,4.422,8.651,8.267,13.649,11.406
				c4.998,3.141,10.253,5.64,15.636,7.306s10.702,2.691,15.828,3.012c5.127,0.32,9.997,0.128,14.419-0.576
				c4.422-0.642,8.459-1.666,11.919-2.82c1.73-0.576,3.333-1.217,4.806-1.794c0.705-0.32,1.41-0.641,2.051-0.961
				c0.32-0.129,0.641-0.32,0.962-0.449c0.32-0.128,0.576-0.32,0.897-0.448c1.152-0.577,2.178-1.153,3.075-1.666
				s1.666-0.897,2.243-1.281c1.153-0.77,1.794-1.154,1.794-1.154c0.769-0.448,1.09-1.409,1.09-2.371
				C294.598,409.412,294.213,408.323,293.444,407.298z M318.437,365.901c1.218,0.191,2.307,0.704,3.012,1.409
				s1.089,1.603,0.897,2.436c0,0-0.129,0.576-0.32,1.602c-0.129,0.513-0.257,1.09-0.449,1.795c-0.191,0.704-0.32,1.474-0.641,2.307
				c-0.961,3.396-2.563,7.754-4.742,11.919c-2.114,4.165-4.742,8.074-6.92,10.766c-1.09,1.346-2.051,2.5-2.692,3.269
				c-0.704,0.769-1.089,1.153-1.089,1.153c-1.218,1.346-3.717,0.897-5.447-0.897c-1.73-1.794-2.242-4.101-1.218-5.254
				c0,0,0.321-0.385,0.962-1.025c0.576-0.641,1.409-1.603,2.371-2.82c1.857-2.371,4.165-5.767,5.959-9.355
				c1.858-3.589,3.269-7.369,4.102-10.317c0.256-0.705,0.385-1.409,0.513-1.986s0.32-1.09,0.384-1.538
				c0.193-0.897,0.257-1.346,0.257-1.346c0.128-0.769,0.769-1.346,1.666-1.73C316.002,365.901,317.219,365.709,318.437,365.901z
				 M317.859,343.921c2.436-0.513,4.742,0.513,4.999,2.307c0,0,0.063,0.449,0.128,1.09s0.256,1.538,0.32,2.435
				c0.064,0.897,0.129,1.795,0.192,2.436c0,0.641,0.063,1.089,0.063,1.089c0.064,0.897-0.448,1.73-1.217,2.308
				c-0.833,0.576-1.986,0.961-3.204,0.961s-2.371-0.32-3.204-0.833s-1.346-1.218-1.41-1.986c0,0,0-0.385-0.064-0.962
				c-0.063-0.576-0.128-1.346-0.191-2.114c-0.064-0.769-0.192-1.538-0.257-2.114c-0.063-0.577-0.128-0.962-0.128-0.962
				C313.694,346.1,315.425,344.434,317.859,343.921z M208.664,314.892c-1.922-1.666-2.436-4.037-1.218-5.383
				c0,0,0.064-0.128,0.257-0.256c0.191-0.192,0.448-0.449,0.833-0.77c0.32-0.32,0.769-0.769,1.281-1.281s1.153-1.025,1.794-1.666
				c2.756-2.436,6.922-5.64,12.496-8.651c5.576-2.948,12.496-5.64,20.25-6.985s16.277-1.409,24.479,0.192
				c8.267,1.538,16.149,4.742,22.813,8.907c3.332,2.051,6.344,4.358,9.1,6.729c2.691,2.371,5.063,4.871,7.113,7.241
				c4.037,4.807,6.729,9.356,8.395,12.625c0.896,1.602,1.41,2.947,1.858,3.845c0.192,0.448,0.32,0.769,0.448,1.025
				c0.064,0.256,0.129,0.384,0.129,0.384c0.32,0.834,0.127,1.795-0.385,2.563c-0.577,0.833-1.538,1.538-2.691,1.923
				c-1.154,0.385-2.371,0.448-3.269,0.256c-0.961-0.191-1.666-0.641-1.986-1.409c0,0-0.642-1.73-2.114-4.55
				c-1.41-2.82-3.781-6.729-7.242-10.958c-1.794-2.051-3.845-4.229-6.151-6.28c-2.371-2.051-4.999-4.037-7.882-5.832
				c-5.768-3.652-12.625-6.344-19.738-7.689c-7.112-1.41-14.482-1.346-21.211-0.192s-12.688,3.461-17.494,6.024
				c-4.806,2.563-8.395,5.383-10.766,7.497c-0.576,0.513-1.153,0.961-1.602,1.41c-0.449,0.448-0.834,0.769-1.09,1.089
				c-0.32,0.32-0.513,0.513-0.705,0.705c-0.128,0.128-0.256,0.257-0.256,0.257C212.957,316.942,210.586,316.494,208.664,314.892z"/>
		</g>
	</g>
</g>
<g>
	<g>
		<path fill="#222221" stroke="#000000" stroke-width="4" stroke-miterlimit="10" d="M254.034,340.652
			c-0.063,7.37-0.063,14.803-0.063,22.173c0,1.794,1.537,3.332,3.332,3.332c10.894,0,21.787,0.064,32.682-0.064
			c4.293-0.063,4.293-6.664,0-6.6c-10.895,0.128-21.788,0.063-32.682,0.063c1.089,1.09,2.178,2.179,3.332,3.332
			c0-7.369,0-14.803,0.064-22.172C260.699,336.423,254.034,336.423,254.034,340.652L254.034,340.652z"/>
	</g>
</g>
<g>
	<g>
		<path fill="#222221" stroke="#000000" stroke-width="4" stroke-miterlimit="10" d="M252.668,321.772c0,1.218,0,2.435,0,3.717
			c0,1.729,1.538,3.396,3.332,3.332c1.794-0.064,3.333-1.474,3.333-3.332c0-1.218,0-2.436,0-3.717c0-1.73-1.539-3.396-3.333-3.333
			C254.142,318.504,252.668,319.914,252.668,321.772L252.668,321.772z"/>
	</g>
</g>
</svg>
