<?xml version="1.0" encoding="utf-8"?>
<!-- Generator: Adobe Illustrator 19.0.1, SVG Export Plug-In . SVG Version: 6.00 Build 0)  -->
<svg version="1.1" id="Слой_1" xmlns="http://www.w3.org/2000/svg" x="0px" y="0px"
     viewBox="0 0 512 512" style="enable-background:new 0 0 512 512;" xml:space="preserve">
<path d="M249,227.3c2.1-1.4,4.5-2.3,6.9-2.7c0.7-0.2,1.4-0.6,1.9-1.3c0.5-0.7,0.9-1.7,0.9-2.7c0-1-0.4-2-1.1-2.7
	c-0.7-0.6-1.8-1.1-2.9-0.9c-3.6,0.5-7.1,1.9-10.1,4c-1.9,1.3-1.9,3.8-0.5,5.3C245.7,227.8,247.8,228.2,249,227.3 M308.4,272
	c2.5,0.4,4.8,1.4,6.9,2.8c1.2,0.8,3.2,0.5,4.8-0.9c1.5-1.4,1.5-4-0.4-5.3c-3-2.1-6.4-3.5-10-4.1c-1.1-0.2-2.1,0.1-2.9,0.8
	c-0.7,0.7-1.1,1.6-1.1,2.6c0,1,0.4,2,0.9,2.7C307.1,271.3,307.7,271.8,308.4,272 M278.9,330.8c-2.1,0-3.8-1.5-3.8-3.4v-0.8
	c0-1.9,1.7-3.4,3.8-3.4c2.1,0,3.8,1.5,3.8,3.4v0.8C282.7,329.3,281,330.8,278.9,330.8 M305.7,267.9c0,2.1-1.5,3.8-3.4,3.8h-27.2
	v-28.6c0-2.2,0-3.7-0.4-5.4c-0.4-1.6-1-3.2-1.8-4.7c-1.7-2.9-4.2-5.4-7.2-6.9c-0.7-0.3-1.1-1-1.4-1.8c-0.3-0.8-0.3-1.9,0-2.8
	c0.3-1,1-1.8,1.8-2.2c0.9-0.4,2-0.5,3,0.1c4.4,2.1,8.1,5.7,10.5,9.9c1.2,2.1,2.1,4.5,2.6,6.9c0.5,2.4,0.6,5.1,0.5,7v21h19.6
	C304.2,264.1,305.7,265.8,305.7,267.9 M278.9,317.6c-2.1,0-3.8-1.5-3.8-3.4v-9.1h20.7h8.5c1.5,0,2.5,0,3.7-0.2
	c1.1-0.2,2.3-0.4,3.3-0.8c4.3-1.5,8-5,9.8-9.2c1.8-4.2,1.7-9.2-0.2-13.4c-0.6-1.3,0.1-3.3,1.8-4.5c1.7-1.2,4.2-0.7,5.1,1.4
	c2.8,6.1,2.9,13.3,0.3,19.5c-2.6,6.2-7.9,11.1-14.2,13.4c-1.6,0.6-3.2,1-4.9,1.2c-1.6,0.3-3.5,0.3-4.7,0.3h-8.5h-13.1v1.6
	C282.7,316.1,281,317.6,278.9,317.6 M240.8,230.8c1.8,1.1,2.6,3,2.1,4.4c-0.4,1.1-0.7,2.2-0.9,3.4c-0.1,0.6-0.2,1.1-0.2,1.7l0,0.9
	v1.1v8.6v20.9h-18.5h-7.4c-2.4,0-5.1-0.1-6.9,0.2c-4,0.5-7.7,2.5-10.4,5.6c-2.7,3-4.2,7-4.2,11c0,4,1.5,8,4.2,11
	c2.6,3,6.4,5.1,10.4,5.6c1.8,0.2,4.4,0.1,6.9,0.2h7.4h18.5v25.6c0,1.8,0,3.7,0,5.4c0,1.5,0.3,2.9,0.7,4.4c0.9,2.8,2.4,5.4,4.6,7.5
	c4.3,4.2,10.8,5.6,16.5,3.8c5.7-1.8,10.2-6.8,11.3-12.6c0.3-1.4,2-2.6,4.1-2.6c2.1,0,3.8,1.9,3.3,4.1c-1.7,8.5-8.2,15.7-16.4,18.3
	c-4.1,1.3-8.5,1.5-12.7,0.5c-4.2-1-8.1-3-11.2-6c-3.1-2.9-5.4-6.7-6.7-10.8c-0.6-2.1-0.9-4.2-1-6.4c0-2,0-3.7,0-5.5v-18h-11h-7.4
	h-3.7c-0.6,0-1.2,0-2,0c-0.7,0-1.5,0-2.2-0.2c-5.8-0.7-11.2-3.7-15.1-8.1c-3.8-4.4-6.1-10.2-6.1-16c0-5.8,2.2-11.6,6.1-16
	c3.8-4.4,9.3-7.4,15.1-8.1c0.7-0.1,1.4-0.1,2.2-0.2c0.8,0,1.4-0.1,2,0h3.7h7.4h11v-13.4v-8.6v-1.1l0.1-1.3c0-0.8,0.1-1.7,0.3-2.5
	c0.2-1.7,0.7-3.3,1.3-4.9C236.6,230.3,239,229.6,240.8,230.8"/>
<g>
	<g>
		<path d="M250.4,126.3c-46.3,0.1-92.6,0.2-138.9,0.3c-20.4,0-43.2-2.6-62.1,6.6c-21.2,10.2-36.5,33.7-37.2,57.1
			c-0.2,4.7,0,9.5,0,14.2c0,53.3,0,106.6,0,159.9c0,6.4,0,12.9,0,19.3c0.1,18.5,7.8,36.2,21.2,49.1c12.6,12.1,29,18,46.3,18
			c7.4,0,14.8,0,22.2,0c50.9,0,101.9,0,152.8,0c1.2,0,2.5,0,3.7,0c11.3,0,11.3-17.5,0-17.5c-45,0-89.9,0-134.9,0
			c-15.7,0-31.5,0.4-47.2,0c-21.5-0.6-40.2-17.1-45.3-37.7c-1.6-6.6-1.3-13.4-1.3-20.1c0-51.7,0-103.4,0-155.1
			c0-19.5-2.9-41.1,10.6-57.2c9.7-11.5,21.6-18.8,37-19c7-0.1,14,0,21,0c49.6-0.1,99.2-0.2,148.7-0.3c1.2,0,2.3,0,3.5,0
			C261.7,143.8,261.7,126.3,250.4,126.3L250.4,126.3z"/>
	</g>
</g>
<g>
	<g>
		<path d="M250.4,143.8c45.5,0.1,91.1,0.2,136.6,0.3c16.3,0,32.7-0.3,49,0.1c19.6,0.4,38.1,15.2,44.1,33.8c2.5,7.6,2.2,15.2,2.2,23
			c0,52.4,0,104.8,0,157.2c0,7.8,0,15.6,0,23.4c0,13.1-3.8,24.8-12.4,34.9c-9.7,11.5-23.3,16.7-38.1,16.7c-7.7,0-15.4,0-23.2,0
			c-50.5,0-100.9,0-151.4,0c-1.2,0-2.5,0-3.7,0c-11.3,0-11.3,17.5,0,17.5c47.3,0,94.5,0,141.8,0c10.3,0,20.6,0,30.9,0
			c9.5,0,18.9-0.2,28-3.3c23.3-8,41.3-29.5,44.7-53.9c0.9-6.7,0.7-13.4,0.7-20.1c0-53.8,0-107.6,0-161.4c0-6.5,0-13,0-19.5
			c-0.1-19.2-8.8-36.7-22.9-49.5c-12-10.9-27.3-16.4-43.4-16.4c-8,0-16.1,0-24.1,0c-51.8-0.1-103.6-0.2-155.4-0.3
			c-1.2,0-2.4,0-3.6,0C239.1,126.3,239.1,143.8,250.4,143.8L250.4,143.8z"/>
	</g>
</g>
<g>
	<g>
		<g>
			<path d="M162.2,309.5c-1.9,0.4-3.5,1.3-4.5,2.5c-1,1.2-1.6,2.6-1.1,3.9c0,0,0.3,1.1,0.9,3.2c0.3,1.1,0.8,2.3,1.3,3.8
				c0.5,1.5,1.2,3.2,1.9,5.1c0.2,0.5,0.4,1,0.6,1.5c0.2,0.5,0.4,1,0.7,1.5c0.5,1,1,2.1,1.5,3.2c1.1,2.2,2.3,4.6,3.8,7
				c2.8,4.9,6.5,10.3,11,15.6c4.5,5.3,10,10.6,16.4,15.5c6.3,4.9,13.7,9.2,21.7,12.8c8,3.6,16.8,6.1,25.8,7.6
				c1.1,0.2,2.3,0.3,3.4,0.5c1.1,0.1,2.3,0.3,3.5,0.4l3.6,0.3c0.6,0.1,1.2,0.1,1.7,0.1l1.6,0c4.7,0.2,9.3-0.1,14-0.5
				c18.6-2,36.5-9.1,50.6-19.5c14.2-10.3,24.6-23.4,31.2-35.7c6.6-12.4,9.5-23.9,10.9-31.9c0.4-2,0.6-3.8,0.8-5.4
				c0.2-1.6,0.3-3,0.4-4.1c0.1-1.1,0.1-2,0.2-2.6c0-0.6,0-0.8,0-0.8c0.1-2.6-3-4.8-6.9-4.9s-7.1,1.9-7.1,4.5c0,0,0,0.3,0,0.8
				c0,0.5-0.1,1.2-0.2,2.1c-0.1,0.9-0.1,2-0.3,3.4c-0.2,1.4-0.3,2.9-0.7,4.7c-1.2,7-3.7,16.9-9.4,27.6c-2.8,5.4-6.5,10.9-11,16.2
				c-4.5,5.3-9.8,10.4-16,14.8c-12.2,9-27.7,15.2-43.9,16.9c-4,0.4-8.1,0.6-12.1,0.5l-1.6,0c-0.5,0-1.1,0-1.6-0.1l-2.9-0.2
				c-0.9,0-2-0.2-2.9-0.3c-1-0.1-2-0.2-3-0.4c-7.9-1.3-15.5-3.5-22.4-6.6c-6.9-3.1-13.3-6.8-18.8-11.1c-5.5-4.2-10.3-8.9-14.2-13.5
				c-3.9-4.6-7.1-9.3-9.5-13.5c-1.3-2.1-2.3-4.2-3.3-6.1c-0.4-1-0.9-1.9-1.3-2.8c-0.2-0.4-0.4-0.9-0.6-1.3c-0.2-0.4-0.3-0.9-0.5-1.3
				c-0.7-1.6-1.2-3.1-1.7-4.4c-0.4-1.3-0.9-2.4-1.1-3.3c-0.5-1.8-0.8-2.8-0.8-2.8c-0.4-1.2-1.3-2-2.7-2.5
				C165.9,309.2,164,309.1,162.2,309.5z M175.6,235.2c1.6,1,2.8,2.4,3.5,3.8c0.6,1.3,0.7,2.7,0.1,3.7c0,0-0.4,0.7-1.1,1.9
				c-0.3,0.6-0.7,1.4-1.1,2.2c-0.4,0.9-1,1.8-1.4,2.9c-2,4.3-4.3,10.2-5.8,16.3c-0.3,1.5-0.7,3.1-1,4.6c-0.3,1.5-0.6,3-0.8,4.5
				c-0.2,1.5-0.4,2.9-0.5,4.2c-0.1,1.3-0.2,2.5-0.3,3.7c-0.1,0.5-0.1,1.2-0.1,1.8c0,0.6,0,1.1,0,1.6c0,0.5,0,1,0,1.4
				c0,0.2,0,0.4,0,0.6l0,0.2l0,0c0-0.1,0,0.2,0-0.2l0,0l0,0l0,0.1c0,0.1,0,0.2,0,0.3c0,1.4,0.1,2.2,0.1,2.2c0,2.4-2.9,4.6-6.8,4.9
				c-3.8,0.3-7.2-1.7-7.2-4.5c0,0,0-0.9-0.1-2.5c0-0.1,0-0.2,0-0.3l0-0.3l0-0.2c0-0.2,0-0.4,0-0.6c0-0.4,0-0.9,0-1.4
				c0-0.5,0-1.1,0-1.6c0-0.6,0-1.2,0.1-1.9c0.1-1.4,0.2-2.9,0.3-4.5c0.2-1.6,0.4-3.2,0.6-4.9c0.2-1.7,0.6-3.4,0.9-5.2
				c0.3-1.8,0.8-3.5,1.2-5.3c1.8-7.1,4.4-13.9,6.7-18.8c0.5-1.3,1.2-2.3,1.7-3.3c0.5-1,0.9-1.9,1.3-2.5c0.8-1.4,1.2-2.2,1.2-2.2
				c0.7-1.2,2-1.9,3.6-2C172.2,233.7,174,234.2,175.6,235.2z M198.9,210c2.3,3.1,2.6,6.8,0.8,8.3c0,0-0.5,0.4-1.1,1
				c-0.7,0.6-1.6,1.3-2.5,2.2c-0.9,0.8-1.7,1.7-2.4,2.3c-0.6,0.7-1,1.1-1,1.1c-0.8,0.9-2.2,1.1-3.7,0.9c-1.5-0.2-3.1-1-4.6-2.3
				s-2.4-2.8-2.8-4.4c-0.3-1.5,0-3,0.9-4c0,0,0.5-0.5,1.2-1.2c0.8-0.7,1.8-1.7,2.8-2.6c1-1,2.1-1.8,2.8-2.5c0.8-0.7,1.3-1.1,1.3-1.1
				C192.9,205.8,196.6,206.9,198.9,210z M356.9,288.5c-3.9,0-7.1-2-7.1-4.4c0,0,0-0.2,0-0.5c0-0.3-0.1-0.9-0.1-1.5
				c-0.1-0.7-0.1-1.5-0.2-2.4c-0.1-1-0.2-2.1-0.4-3.3c-0.7-4.9-2-11.9-5-19.9c-3-7.9-7.6-16.9-14.3-25.2c-6.6-8.3-15.3-16-25.1-21.7
				c-9.8-5.8-20.6-9.6-31.1-11.3c-1.3-0.3-2.6-0.4-3.9-0.6c-0.6-0.1-1.3-0.2-1.9-0.2c-0.6,0-1.2-0.1-1.9-0.1
				c-1.3-0.1-2.4-0.2-3.8-0.2c-1.3,0-2.6-0.1-3.8-0.1c-4.9,0-9.5,0.4-13.7,1c-8.4,1.3-15.2,3.5-19.8,5.4c-4.6,1.8-7.1,3.2-7.1,3.2
				c-1.1,0.6-2.4,0.4-3.7-0.4c-1.3-0.7-2.6-2-3.6-3.7c-0.9-1.7-1.3-3.5-1.2-5c0.2-1.5,1-2.8,2.2-3.4c0,0,0.2-0.1,0.5-0.3
				c0.3-0.2,0.9-0.4,1.6-0.8c1.4-0.6,3.4-1.6,6.1-2.6c5.3-2.1,13.1-4.7,22.9-6.2c4.9-0.7,10.2-1.2,15.8-1.2c1.4,0,2.8,0.1,4.2,0.1
				c1.3,0,2.9,0.2,4.4,0.3c0.8,0.1,1.5,0.1,2.3,0.2c0.7,0.1,1.5,0.2,2.2,0.3c1.5,0.2,3,0.3,4.5,0.6c12.1,1.9,24.7,6.4,35.9,13.1
				c11.3,6.6,21.2,15.4,28.9,25c7.7,9.5,13.1,19.8,16.5,29c3.4,9.2,5,17.3,5.7,23c0.2,1.4,0.4,2.7,0.5,3.8c0.1,1.1,0.2,2.1,0.2,2.8
				c0.1,0.8,0.1,1.3,0.1,1.7c0,0.4,0,0.6,0,0.6C363.8,286.3,360.8,288.6,356.9,288.5z"/>
		</g>
	</g>
</g>
<g>
	<g>
		<path d="M138.8,121.3c0-9.1-1.9-20.8,2.1-29.3c4.1-8.7,12.6-12.8,21.9-12.9c15-0.1,30-0.1,45-0.1c41.4-0.1,82.8-0.2,124.2-0.3
			c7.3,0,13.6,0.2,20.2,4.4c15.2,9.7,7.6,29.6,10,44.5c0.5,2.9,3.4,5.4,6.1,6.1c0,0,0,0,0,0c10.9,2.8,15.6-14.1,4.7-16.9
			c0,0,0,0,0,0c2,2,4.1,4.1,6.1,6.1c0.6,4,0.2,0.2,0.2-0.7c0-1.6,0-3.2,0-4.8c0-4.8,0-9.6,0-14.4c0.1-9.9-2.3-18.8-8.7-26.6
			c-8.3-10.1-21.2-15.1-34-15.1c-16.1,0-32.1,0.1-48.2,0.1c-41.7,0.1-83.3,0.2-125,0.3c-14.1,0-26.8,5.7-35,17.4
			c-8.7,12.5-7,27.8-7,42.3C121.3,132.6,138.8,132.6,138.8,121.3L138.8,121.3z"/>
	</g>
</g>
</svg>
