<?xml version="1.0" encoding="utf-8"?>
<!-- Generator: Adobe Illustrator 19.0.1, SVG Export Plug-In . SVG Version: 6.00 Build 0)  -->
<svg version="1.1" id="Слой_1" xmlns="http://www.w3.org/2000/svg" x="0px" y="0px"
     viewBox="0 0 512 512" style="enable-background:new 0 0 512 512;" xml:space="preserve">
<style type="text/css">
	.st0{fill:#222221;}
</style>
<g>
	<g>
		<g>
			<path d="M111.4,472.7c-0.5,2.8,0.2,5.6,2.3,7.9c0.2,0.2,0.5,0.5,0.7,0.7c0.2,0.2,0.5,0.4,0.7,0.6c0.5,0.4,1,0.8,1.6,1.1
				c0.3,0.1,0.6,0.3,0.9,0.4l0.2,0.1l0.1,0l0.1,0l0,0l0,0l0,0c-0.1,0,1,0,0.6,0l0,0l0.5,0.1c0.6,0.1,1.3,0.2,1.9,0.2
				c0,0,35.1,0,87.8,0c26.4,0,57.1,0,90,0c16.5,0,33.5,0,50.8,0c8.6,0,17.4,0,26.1,0c4.4,0,8.8,0,13.1,0h3.3h1.6h0.8
				c0.3,0,0.5,0,0.9,0l4.2-0.2c1.4-0.1,2.8-0.4,4.2-0.6c5.5-1.1,10.9-3.1,15.7-5.9c4.8-2.8,9-6.5,12.6-10.6c1.8-2,3.4-4.3,4.9-6.6
				l2-3.5c0.6-1.2,1.1-2.4,1.7-3.7c0.6-1.2,1-2.5,1.4-3.8c0.4-1.3,0.9-2.5,1.2-3.8c0.3-1.3,0.6-2.6,0.9-3.9c0.2-1.4,0.4-2.9,0.6-4.3
				l0.1-1.1l0-0.8l0.1-1.6l0.1-1.6l0-0.2l0-0.7v-0.4v-0.8c0-2.2,0-4.3,0-6.4c0-4.3,0-8.5,0-12.8c0-8.5,0-16.8,0-25.1
				c0-32.9,0-63.7,0-90c0-52.7,0-87.8,0-87.8c0-5.3-4.7-9.5-10.5-9.5c-5.8,0-10.5,4.3-10.5,9.5c0,0,0,35.1,0,87.8
				c0,26.4,0,57.1,0,90c0,8.2,0,16.6,0,25.1c0,4.2,0,8.5,0,12.8c0,2.1,0,4.3,0,6.4v0.8v0.4c0,0.2,0-0.8,0-0.3l0,0.2l-0.1,1.6
				l-0.1,1.6l0,0.8l-0.1,0.5c-0.1,0.7-0.2,1.4-0.3,2.1l-0.6,2.4c-0.1,0.8-0.5,1.6-0.7,2.4c-0.3,0.8-0.5,1.6-0.9,2.3
				c-0.4,0.7-0.6,1.5-1,2.2l-1.2,2.2c-0.9,1.4-1.8,2.7-2.9,3.9c-2.1,2.5-4.6,4.6-7.4,6.3c-2.8,1.6-5.8,2.7-8.9,3.3
				c-0.8,0.1-1.5,0.3-2.3,0.4c-0.8,0-1.6,0.1-2.4,0.1c-0.2,0-0.5,0-0.7,0h-0.8H392h-3.3c-4.4,0-8.8,0-13.1,0c-8.7,0-17.5,0-26.1,0
				c-17.3,0-34.3,0-50.8,0c-32.9,0-63.7,0-90,0c-52.7,0-87.8,0-87.8,0c-0.7,0-1.3,0.1-1.9,0.2l-0.5,0.1l0,0c-0.5,0,0.7,0,0.5,0l0,0
				l0,0l0,0l-0.1,0l-0.1,0l-0.2,0.1c-0.3,0.1-0.6,0.2-0.9,0.3c-0.6,0.2-1.1,0.5-1.7,0.9c-0.3,0.2-0.5,0.4-0.8,0.6
				c-0.3,0.2-0.5,0.4-0.6,0.6C113.3,467.4,111.9,469.8,111.4,472.7z M78.8,332c5.8,0,10.5,4.3,10.5,9.5c0,0,0,27.4,0,54.8
				c0,6.9,0,13.7,0,20.1c0,3.2,0,6.3,0,9.3c0,1.5,0,2.9,0,4.3c0,0.3,0,0.7,0,1c0,0.3,0,0.5,0,0.8c0,0.5,0,1,0.1,1.5
				c0,1,0.2,1.9,0.3,2.8c0.1,0.4,0.1,0.9,0.2,1.3c0.1,0.4,0.2,0.8,0.3,1.2c0.2,0.8,0.3,1.5,0.5,2.2c0.2,0.7,0.4,1.2,0.6,1.8
				c0.3,1.1,0.8,1.9,1,2.4c0.2,0.6,0.4,0.9,0.4,0.9c0.9,1.8,0.8,3.9,0.1,6.1c-0.4,1.1-0.9,2.3-1.7,3.4c-0.7,1.1-1.6,2.2-2.8,3.1
				s-2.4,1.6-3.7,1.9c-1.3,0.3-2.7,0.4-4,0.1c-2.8-0.5-5.3-2.5-6.8-5.4c0,0-0.2-0.5-0.6-1.4c-0.4-0.9-1.1-2.2-1.6-4
				c-0.3-0.9-0.6-1.9-1-2.9c-0.3-1.1-0.6-2.2-0.9-3.5c-0.1-0.6-0.3-1.3-0.4-1.9c-0.1-0.7-0.2-1.4-0.3-2.1c-0.2-1.4-0.5-2.9-0.5-4.5
				c0-0.8-0.1-1.6-0.1-2.4c0-0.4,0-0.8-0.1-1.2c0-0.4,0-0.7,0-1.1c0-1.4,0-2.8,0-4.3c0-2.9,0-6,0-9.3c0-6.4,0-13.3,0-20.1
				c0-27.4,0-54.8,0-54.8C68.3,336.3,73,332,78.8,332z M78.8,262.5c5.8,0,10.5,4.3,10.5,9.5v20.8c0,5.3-4.7,9.5-10.5,9.5
				s-10.5-4.3-10.5-9.5V272C68.3,266.8,73,262.5,78.8,262.5z M320.9,46.3c0,5.8-4.3,10.5-9.5,10.5c0,0-24.6,0-61.6,0
				c-18.5,0-40,0-63.1,0c-11.5,0-23.5,0-35.6,0c-6.1,0-12.2,0-18.3,0c-3.1,0-6.1,0-9.2,0H119h-0.6l-0.4,0l-0.8,0.1l-1.7,0.1
				c-4.4,0.5-8.6,2.1-12.4,4.6l-0.7,0.5c-0.2,0.2-0.4,0.4-0.7,0.5l-1.3,1.1c-0.5,0.3-0.8,0.8-1.2,1.2L98,66l-1.1,1.3
				c-0.4,0.4-0.8,0.8-1.1,1.3l-1,1.4c-0.2,0.2-0.3,0.5-0.5,0.7L94,71.5L93.1,73c-0.3,0.5-0.5,1-0.7,1.6l-0.7,1.6l-0.5,1.6
				c-0.2,0.5-0.4,1.1-0.5,1.6l-0.4,1.7c-0.3,1.2-0.4,2.1-0.6,3l-0.1,0.7l0,0.2l0,0.3l0,0.6L89.3,88l-0.1,1.1l0,0.1
				c0,0.5,0-0.5,0-0.4v0.3v0.6v2.2c0,2.9,0,5.8,0,8.7c0,23.1,0,44.6,0,63.1c0,36.9,0,61.6,0,61.6c0,5.3-4.7,9.5-10.5,9.5
				s-10.5-4.3-10.5-9.5c0,0,0-24.6,0-61.6c0-18.5,0-40,0-63.1c0-2.9,0-5.8,0-8.7v-2.2v-0.6v-0.3l0-0.6l0-0.1l0.1-1.1l0.1-2.2l0-0.6
				l0-0.3l0-0.4l0.2-1.5c0.3-2,0.5-4,1-5.8l0.7-2.7c0.2-0.9,0.6-1.8,0.9-2.6l0.9-2.6l1.1-2.6c0.4-0.8,0.7-1.7,1.2-2.5l1.4-2.5
				l0.7-1.2c0.2-0.4,0.5-0.8,0.8-1.2l1.6-2.3c0.5-0.8,1.2-1.5,1.8-2.2l1.9-2.2c0.7-0.7,1.4-1.4,2-2c0.7-0.7,1.3-1.4,2.1-2l2.3-1.8
				c0.4-0.3,0.8-0.6,1.1-0.9l1.2-0.8c6.4-4.3,14-7.2,21.9-8.1l3-0.2l1.5-0.1l0.7,0h0.6h4.6c3.1,0,6.1,0,9.2,0c6.1,0,12.2,0,18.3,0
				c12.1,0,24,0,35.6,0c23.1,0,44.6,0,63.1,0c36.9,0,61.6,0,61.6,0C316.7,35.8,320.9,40.5,320.9,46.3z"/>
		</g>
	</g>
</g>
<g>
	<g>
		<g>
			<path d="M447,191.5c-1.2-1.6-2.6-2.7-4-3.3c-1.4-0.6-2.7-0.5-3.7,0.1c0,0-0.8,0.5-2.4,1.6c-0.8,0.5-1.8,1.1-3,1.8
				c-1.2,0.7-2.6,1.4-4.2,2.2c-0.4,0.2-0.8,0.4-1.2,0.6c-0.4,0.2-0.9,0.4-1.3,0.6c-0.9,0.4-1.8,0.8-2.8,1.3c-2,0.8-4.1,1.7-6.5,2.4
				c-4.7,1.6-10.1,3-16.1,3.8c-6,0.9-12.6,1.2-19.5,0.7c-6.9-0.4-14.2-1.8-21.4-4.1c-7.2-2.2-14.4-5.6-21.1-9.8
				c-6.7-4.3-13-9.5-18.5-15.4c-11-11.9-18.5-26.8-21.8-41.6c-1.7-7.4-2.3-14.7-2.2-21.7c0.1-7,1-13.5,2.4-19.4
				c2.7-11.8,7.4-21,11.1-26.9c0.9-1.5,1.8-2.8,2.6-4c0.7-1.2,1.5-2.1,2-2.8c0.6-0.8,1-1.3,1.3-1.7c0.3-0.4,0.5-0.6,0.5-0.6
				c1.5-1.8,0.4-5.4-2.5-8c-2.9-2.6-6.7-3-8.5-0.8c0,0-0.2,0.2-0.5,0.7c-0.3,0.5-0.8,1.1-1.5,2c-0.7,0.9-1.5,1.9-2.4,3.3
				c-0.9,1.3-2,2.8-3,4.6c-4.3,6.9-9.7,17.5-12.9,31.1c-3.3,13.6-4,30.3-0.2,47.4c3.7,17.1,12.5,34.3,25.1,48
				c6.3,6.9,13.5,12.9,21.3,17.8c7.8,4.9,16,8.8,24.4,11.4c8.4,2.6,16.7,4.2,24.7,4.7c8,0.5,15.6,0.2,22.5-0.9
				c6.9-1,13.2-2.6,18.6-4.4c2.7-0.9,5.2-1.9,7.5-2.8c1.1-0.5,2.2-1,3.2-1.5c0.5-0.2,1-0.5,1.5-0.7c0.5-0.2,0.9-0.5,1.4-0.7
				c1.8-0.9,3.4-1.8,4.8-2.6c1.4-0.8,2.6-1.4,3.5-2c1.8-1.2,2.8-1.8,2.8-1.8c1.2-0.7,1.7-2.2,1.7-3.7
				C448.8,194.8,448.2,193.1,447,191.5z M486,126.9c1.9,0.3,3.6,1.1,4.7,2.2c1.1,1.1,1.7,2.5,1.4,3.8c0,0-0.2,0.9-0.5,2.5
				c-0.2,0.8-0.4,1.7-0.7,2.8c-0.3,1.1-0.5,2.3-1,3.6c-1.5,5.3-4,12.1-7.4,18.6c-3.3,6.5-7.4,12.6-10.8,16.8
				c-1.7,2.1-3.2,3.9-4.2,5.1c-1.1,1.2-1.7,1.8-1.7,1.8c-1.9,2.1-5.8,1.4-8.5-1.4c-2.7-2.8-3.5-6.4-1.9-8.2c0,0,0.5-0.6,1.5-1.6
				c0.9-1,2.2-2.5,3.7-4.4c2.9-3.7,6.5-9,9.3-14.6c2.9-5.6,5.1-11.5,6.4-16.1c0.4-1.1,0.6-2.2,0.8-3.1c0.2-0.9,0.5-1.7,0.6-2.4
				c0.3-1.4,0.4-2.1,0.4-2.1c0.2-1.2,1.2-2.1,2.6-2.7C482.2,126.9,484.1,126.6,486,126.9z M485.1,92.6c3.8-0.8,7.4,0.8,7.8,3.6
				c0,0,0.1,0.7,0.2,1.7c0.1,1,0.4,2.4,0.5,3.8c0.1,1.4,0.2,2.8,0.3,3.8c0,1,0.1,1.7,0.1,1.7c0.1,1.4-0.7,2.7-1.9,3.6
				c-1.3,0.9-3.1,1.5-5,1.5s-3.7-0.5-5-1.3c-1.3-0.8-2.1-1.9-2.2-3.1c0,0,0-0.6-0.1-1.5c-0.1-0.9-0.2-2.1-0.3-3.3
				c-0.1-1.2-0.3-2.4-0.4-3.3c-0.1-0.9-0.2-1.5-0.2-1.5C478.6,96,481.3,93.4,485.1,92.6z M314.7,47.3c-3-2.6-3.8-6.3-1.9-8.4
				c0,0,0.1-0.2,0.4-0.4c0.3-0.3,0.7-0.7,1.3-1.2c0.5-0.5,1.2-1.2,2-2c0.8-0.8,1.8-1.6,2.8-2.6c4.3-3.8,10.8-8.8,19.5-13.5
				c8.7-4.6,19.5-8.8,31.6-10.9c12.1-2.1,25.4-2.2,38.2,0.3c12.9,2.4,25.2,7.4,35.6,13.9c5.2,3.2,9.9,6.8,14.2,10.5
				c4.2,3.7,7.9,7.6,11.1,11.3c6.3,7.5,10.5,14.6,13.1,19.7c1.4,2.5,2.2,4.6,2.9,6c0.3,0.7,0.5,1.2,0.7,1.6c0.1,0.4,0.2,0.6,0.2,0.6
				c0.5,1.3,0.2,2.8-0.6,4c-0.9,1.3-2.4,2.4-4.2,3c-1.8,0.6-3.7,0.7-5.1,0.4c-1.5-0.3-2.6-1-3.1-2.2c0,0-1-2.7-3.3-7.1
				c-2.2-4.4-5.9-10.5-11.3-17.1c-2.8-3.2-6-6.6-9.6-9.8c-3.7-3.2-7.8-6.3-12.3-9.1c-9-5.7-19.7-9.9-30.8-12
				c-11.1-2.2-22.6-2.1-33.1-0.3c-10.5,1.8-19.8,5.4-27.3,9.4c-7.5,4-13.1,8.4-16.8,11.7c-0.9,0.8-1.8,1.5-2.5,2.2
				c-0.7,0.7-1.3,1.2-1.7,1.7c-0.5,0.5-0.8,0.8-1.1,1.1c-0.2,0.2-0.4,0.4-0.4,0.4C321.4,50.5,317.7,49.8,314.7,47.3z"/>
		</g>
	</g>
</g>
<g>
	<g>
		<path class="st0" d="M385.5,87.5c-0.1,11.5-0.1,23.1-0.1,34.6c0,2.8,2.4,5.2,5.2,5.2c17,0,34,0.1,51-0.1c6.7-0.1,6.7-10.4,0-10.3
			c-17,0.2-34,0.1-51,0.1c1.7,1.7,3.4,3.4,5.2,5.2c0-11.5,0-23.1,0.1-34.6C395.9,80.9,385.5,80.9,385.5,87.5L385.5,87.5z"/>
	</g>
</g>
<g>
	<g>
		<path class="st0" d="M385.5,67.4c0,1.9,0,3.8,0,5.8c0,2.7,2.4,5.3,5.2,5.2c2.8-0.1,5.2-2.3,5.2-5.2c0-1.9,0-3.8,0-5.8
			c0-2.7-2.4-5.3-5.2-5.2C387.8,62.3,385.5,64.5,385.5,67.4L385.5,67.4z"/>
	</g>
</g>
<g>
	<g>
		<path class="st0" d="M224.8,284.6c52.3,0,104.5,0,156.8,0c6.7,0,6.7-10.3,0-10.3c-52.3,0-104.5,0-156.8,0
			C218.1,274.3,218.1,284.6,224.8,284.6L224.8,284.6z"/>
	</g>
</g>
<g>
	<g>
		<path class="st0" d="M131.9,284.6c26.5,0,53,0,79.5,0c6.7,0,6.7-10.3,0-10.3c-26.5,0-53,0-79.5,0
			C125.2,274.3,125.2,284.6,131.9,284.6L131.9,284.6z"/>
	</g>
</g>
<g>
	<g>
		<path class="st0" d="M303.1,322.8c26.2,0,52.3,0,78.5,0c6.7,0,6.7-10.3,0-10.3c-26.2,0-52.3,0-78.5,0
			C296.4,312.5,296.4,322.8,303.1,322.8L303.1,322.8z"/>
	</g>
</g>
<g>
	<g>
		<path class="st0" d="M131.9,322.8c52.3,0,104.5,0,156.8,0c6.7,0,6.7-10.3,0-10.3c-52.3,0-104.5,0-156.8,0
			C125.2,312.5,125.2,322.8,131.9,322.8L131.9,322.8z"/>
	</g>
</g>
<g>
	<g>
		<path class="st0" d="M226.8,361c51.6,0,103.2,0,154.7,0c6.7,0,6.7-10.3,0-10.3c-51.6,0-103.2,0-154.7,0
			C220.2,350.7,220.2,361,226.8,361L226.8,361z"/>
	</g>
</g>
<g>
	<g>
		<path class="st0" d="M131.9,361c26.2,0,52.3,0,78.5,0c6.7,0,6.7-10.3,0-10.3c-26.2,0-52.3,0-78.5,0
			C125.2,350.7,125.2,361,131.9,361L131.9,361z"/>
	</g>
</g>
<g>
	<g>
		<path class="st0" d="M287,399.2c31.5,0,63.1,0,94.6,0c6.7,0,6.7-10.3,0-10.3c-31.5,0-63.1,0-94.6,0
			C280.3,388.8,280.3,399.2,287,399.2L287,399.2z"/>
	</g>
</g>
<g>
	<g>
		<path class="st0" d="M131.9,399.2c46.9,0,93.7,0,140.6,0c6.7,0,6.7-10.3,0-10.3c-46.9,0-93.7,0-140.6,0
			C125.2,388.8,125.2,399.2,131.9,399.2L131.9,399.2z"/>
	</g>
</g>
<g>
	<g>
		<g>
			<path d="M112.3,170c1-0.8,1.6-1.8,1.9-2.7c0.1-0.5,0.3-0.9,0.3-1.4c0-0.4-0.1-0.8-0.3-1.2c-1-2-1.6-4.3-1.6-6.6
				c0-2.3,0.6-4.5,1.6-6.6c2-4,6.1-7.1,10.6-7.7l0.8-0.1l0.9,0c0.5,0,1.3,0,2.1,0h4.5h8.9h22.4V108v-1l0-0.5l0-0.4
				c0-0.5,0-1,0.1-1.5c0.1-1,0.3-2,0.7-2.9c0.7-1.9,1.7-3.6,3-5.1c2.7-2.9,6.6-4.7,10.6-4.7c4,0,7.9,1.7,10.6,4.7
				c1.4,1.5,2.4,3.2,3,5.1c0.3,0.9,0.6,1.9,0.7,2.9c0.1,0.5,0.1,1,0.1,1.5l0,0.4l0,0.5v1v35.8h33.5c2.1,0,3.8-2,3.8-4.5
				c0-2.5-1.7-4.5-3.8-4.5h-24.4V108v-1l0-0.5l0-0.6c-0.1-0.8,0-1.6-0.2-2.4c-0.2-1.6-0.6-3.2-1.1-4.7c-1.1-3.1-2.8-5.9-5-8.2
				c-4.3-4.8-10.8-7.6-17.2-7.6c-6.5,0-12.9,2.8-17.2,7.6c-2.2,2.4-3.9,5.2-5,8.2c-0.5,1.5-0.9,3.1-1.1,4.7
				c-0.2,0.8-0.1,1.6-0.2,2.4l0,0.6l0,0.5v1v26.8h-13.4h-8.9h-4.5c-0.8,0-1.4,0-2.4,0l-1.4,0.1c-0.5,0.1-0.9,0.1-1.4,0.2
				c-7.3,1.1-13.9,5.9-17.2,12.5c-1.7,3.3-2.6,7-2.6,10.7c0,3.7,0.9,7.4,2.6,10.7c0.3,0.6,0.7,1.1,1.2,1.4c0.5,0.4,1,0.6,1.6,0.7
				C110.2,171.2,111.4,170.8,112.3,170z M160,190.1c-2.5,0-4.5-1.7-4.5-3.8v-4.5h-13h-8.7h-4.4l-2.2,0c-0.9,0-1.8-0.1-2.7-0.2
				c-0.6-0.1-1.2-0.3-1.8-0.6c-0.5-0.3-0.9-0.8-1.2-1.3c-0.6-1-0.7-2.2-0.3-3.4c0.4-1.2,1.1-2.1,1.9-2.8c0.4-0.3,0.8-0.5,1.2-0.7
				c0.4-0.2,0.8-0.2,1.2-0.2c0.6,0.1,1.1,0.1,1.7,0.1l2.2,0h4.4h8.7h22v13.5C164.5,188.4,162.5,190.1,160,190.1z M161.6,217.8
				c-1.1,0.5-2.4,0.6-3.4,0.1c-0.5-0.2-1-0.6-1.4-1.1c-0.4-0.5-0.6-1-0.8-1.7c0,0,0-0.2-0.1-0.4c0-0.3-0.1-0.7-0.2-1.2
				c-0.2-1-0.2-2.2-0.3-3.5c0-2.1,0-4.2,0-4.2c0-2.1,2-3.8,4.5-3.8c2.5,0,4.5,1.7,4.5,3.8c0,0,0,2.1,0,4.2c0.1,0.8,0.1,1.6,0.2,2.2
				c0,0.3,0.1,0.5,0.1,0.7c0,0.2,0.1,0.3,0.1,0.3c0.1,0.4,0.1,0.8-0.1,1.2c-0.1,0.4-0.3,0.8-0.6,1.2
				C163.6,216.4,162.8,217.2,161.6,217.8z M230.7,139.3c0-1.2,0.4-2.4,1.3-3.1c0.8-0.8,2.1-1.1,3.4-0.9c2.2,0.5,4.4,1.3,6.4,2.3
				c2,1.1,3.8,2.5,5.5,4.1c1.6,1.6,3,3.5,4.1,5.5c1.1,2,1.8,4.2,2.3,6.4c0.4,2.2,0.6,4.5,0.4,6.8c-0.2,2.3-0.7,4.5-1.6,6.6
				c-1.7,4.3-4.7,8-8.4,10.6c-1.9,1.3-3.9,2.4-6.1,3.1c-2.2,0.7-4.5,1.1-6.7,1.1c-0.6,0-1,0-1.5,0h-1.4h-2.8h-5.5h-17.6v12.9v8.7
				v4.3v2.2c0,0.8-0.1,1.8-0.1,2.6c-0.7,7.1-4.9,13.9-11.1,17.6c-3.1,1.9-6.5,3.1-10.1,3.4c-3.6,0.3-7.2-0.2-10.6-1.5
				c-0.6-0.2-1.1-0.6-1.5-1c-0.4-0.5-0.7-0.9-0.9-1.5c-0.3-1.1-0.1-2.3,0.6-3.4s1.6-1.8,2.5-2.2c0.4-0.2,0.9-0.4,1.3-0.4
				c0.4,0,0.8,0,1.2,0.1c2.1,0.8,4.3,1.1,6.5,0.9c2.2-0.2,4.3-0.9,6.2-2.1c3.8-2.3,6.4-6.4,6.8-10.8l0.1-1.7v-2.2v-4.3v-8.7v-21.9
				h26.7h5.5h2.8h1.4c0.5,0,1,0,1.3,0c1.4,0,2.8-0.3,4.1-0.7c1.3-0.4,2.6-1.1,3.8-1.9c2.3-1.6,4.1-3.9,5.2-6.5
				c0.6-1.3,0.8-2.7,1-4.1c0.1-1.4,0-2.8-0.2-4.2c-0.3-1.4-0.8-2.7-1.4-3.9c-0.7-1.2-1.5-2.4-2.5-3.4c-1-1-2.2-1.8-3.4-2.5
				c-1.2-0.7-2.6-1.1-3.9-1.4c-0.8-0.1-1.4-0.8-2-1.6C231.1,141.7,230.7,140.5,230.7,139.3z"/>
		</g>
	</g>
</g>
</svg>
