<?xml version="1.0" encoding="utf-8"?>
<!-- Generator: Adobe Illustrator 16.0.0, SVG Export Plug-In . SVG Version: 6.00 Build 0)  -->
<!DOCTYPE svg PUBLIC "-//W3C//DTD SVG 1.1//EN" "http://www.w3.org/Graphics/SVG/1.1/DTD/svg11.dtd">
<svg version="1.1" id="Слой_1" xmlns="http://www.w3.org/2000/svg" x="0px" y="0px"
     width="512px" height="512px" viewBox="0 0 512 512" enable-background="new 0 0 512 512" xml:space="preserve">
<g>
	<g>
		<g>
			<path d="M77.354,448.776c-1.655,1.757-1.712,4.725-0.255,8.101c1.452,3.36,4.447,7.098,8.62,10.106c0,0,0.971,0.715,2.832,1.997
				c1.863,1.278,4.622,3.121,8.251,5.275c7.244,4.294,18.056,9.86,31.929,14.063c13.825,4.23,30.738,6.93,48.802,6.121
				c9.026-0.381,18.331-1.632,27.57-3.836c9.24-2.199,18.408-5.358,27.166-9.406c17.55-8.059,33.308-19.774,45.605-33.016
				c12.369-13.218,21.271-27.839,27.043-41.092c5.813-13.276,8.605-25.116,10.039-33.416c0.723-4.159,1.106-7.454,1.346-9.701
				c0.232-2.248,0.319-3.45,0.319-3.45c0.421-5.101-0.481-9.885-2.079-13.055c-0.788-1.591-1.741-2.943-2.811-3.838
				c-1.067-0.9-2.246-1.349-3.449-1.291c-1.21,0.058-2.331,0.587-3.358,1.457c-1.024,0.875-1.957,2.085-2.752,3.659
				c-1.571,3.16-2.619,7.13-2.988,11.659c0,0-0.076,1.059-0.281,3.038c-0.211,1.979-0.548,4.88-1.184,8.538
				c-1.262,7.303-3.716,17.709-8.828,29.386c-5.076,11.654-12.911,24.525-23.807,36.17c-10.833,11.665-24.714,21.982-40.149,29.069
				c-15.406,7.156-32.244,11.006-48.156,11.646c-15.948,0.712-30.817-1.666-42.972-5.386c-12.196-3.694-21.708-8.59-28.083-12.369
				c-3.194-1.896-5.622-3.519-7.263-4.644c-1.639-1.129-2.494-1.759-2.494-1.759c-3.665-2.642-7.427-4.471-10.752-5.264
				C81.904,446.752,79.01,447.018,77.354,448.776z M279.739,221.608c-4.521,1.713-10.919-4.086-14.596-12.854
				c-12.626-30.128-27.56-59.367-44.018-87.724c-8.236-14.177-16.866-28.135-25.862-41.846c-4.498-6.855-9.089-13.647-13.777-20.361
				l-3.535-5.019l-2.873-4.013L156.6,81.804c-4.208,7.241-8.425,14.473-12.721,21.708l-3.254,5.436l-1.667,2.735l-1.676,2.701
				l-6.571,10.622c-8.719,14.184-17.275,28.45-25.533,42.849c-8.252,14.4-16.217,28.932-23.595,43.678
				c-7.368,14.748-14.15,29.712-19.776,44.999c-5.656,15.285-10.006,30.897-13.178,46.924c-0.801,4.006-1.539,8.036-2.232,12.088
				l-1.008,6.095l-0.509,3.194l-0.523,3.006c-0.158,0.967-0.304,1.938-0.439,2.909l-0.377,2.937
				c-0.206,1.883-0.402,3.883-0.54,5.821c-0.272,3.91-0.379,7.815-0.297,11.734c0.298,15.666,3.479,31.239,9.379,45.731
				c1.694,4.185,2.58,8.271,2.564,11.688c-0.018,3.404-0.957,6.152-3.059,7.347c-2.097,1.192-4.998,0.547-7.932-1.671
				c-2.924-2.206-5.848-6.005-7.779-10.776c-6.711-16.477-10.327-34.208-10.664-51.97c-0.093-4.438,0.028-8.896,0.337-13.323
				c0.16-2.23,0.369-4.391,0.621-6.662l0.422-3.279c0.153-1.099,0.318-2.194,0.497-3.289l0.55-3.171l0.477-2.996l1.038-6.274
				c0.717-4.187,1.484-8.378,2.322-12.568c3.314-16.771,7.961-33.465,13.915-49.537c5.926-16.094,12.977-31.626,20.546-46.78
				c7.583-15.154,15.697-29.951,24.067-44.557c8.375-14.603,17.018-29.011,25.806-43.309l6.62-10.702l1.63-2.625l1.595-2.619
				l3.186-5.321c4.238-7.139,8.442-14.348,12.633-21.56l12.535-21.679l19.059-33.236l7.407,9.617
				c2.476,3.201,4.938,6.533,7.371,9.875l4.367,6.077l3.617,5.135c4.792,6.863,9.474,13.791,14.061,20.78
				c9.171,13.979,17.964,28.199,26.364,42.658c16.783,28.92,32.048,58.789,45.028,89.756
				C285.079,211.059,284.253,219.897,279.739,221.608z M308.282,342.34c-2.415,0.137-4.701-1.677-6.512-4.643
				c-1.815-2.972-3.166-7.098-3.718-11.759c0,0-0.391-3.503-1.157-8.744c-0.76-5.241-1.944-12.215-3.371-19.155
				c-2.796-13.896-6.695-27.59-6.695-27.59c-2.536-9.094-1.193-17.608,3.405-19.108c4.586-1.498,10.788,4.886,13.444,14.403
				c-0.001,0.001,4.054,14.229,6.984,28.788c1.494,7.27,2.74,14.603,3.542,20.128c0.809,5.524,1.222,9.231,1.222,9.231
				c0.584,4.935,0.01,9.524-1.322,12.865C312.77,340.105,310.689,342.203,308.282,342.34z"/>
		</g>
	</g>
</g>
<g>
	<g>
		<g>
			<path d="M463.279,280.858c-1.278-1.357-3.147-1.91-5.09-1.836c-1.953,0.077-3.988,0.773-5.81,2.086c0,0-0.431,0.304-1.239,0.874
				c-0.816,0.56-2.023,1.366-3.611,2.31c-3.17,1.879-7.897,4.312-13.959,6.148c-6.042,1.849-13.433,3.031-21.368,2.678
				c-7.915-0.319-16.281-2.232-23.939-5.79c-7.673-3.522-14.576-8.653-19.963-14.455c-5.418-5.79-9.313-12.19-11.837-17.983
				c-2.541-5.804-3.761-10.976-4.388-14.606c-0.316-1.819-0.484-3.261-0.589-4.245c-0.092-0.985-0.14-1.511-0.14-1.511
				c-0.351-4.394-3.192-8.296-6.927-8.453c-1.859-0.118-3.602,0.965-4.813,2.638c-1.23,1.64-1.946,4.202-1.723,6.903
				c0,0,0.059,0.636,0.169,1.829c0.127,1.191,0.331,2.938,0.714,5.143c0.76,4.4,2.241,10.679,5.323,17.719
				c3.06,7.026,7.779,14.777,14.335,21.782c6.519,7.019,14.87,13.229,24.176,17.502c9.284,4.315,19.453,6.638,29.02,7.021
				c9.57,0.429,18.538-1.002,25.869-3.245c7.355-2.229,13.089-5.181,16.929-7.457c1.924-1.142,3.386-2.119,4.374-2.796
				c0.979-0.69,1.501-1.059,1.501-1.059c2.213-1.596,3.656-3.766,4.162-5.825C464.967,284.159,464.558,282.215,463.279,280.858z
				 M359.112,163.934c-3.485-1.321-4.842-6.262-2.871-10.962c6.731-16.059,14.638-31.524,23.325-46.493
				c4.349-7.483,8.898-14.841,13.646-22.075c2.375-3.617,4.799-7.202,7.281-10.756c0.702-1.014,3.831-5.453,6.227-8.644
				c2.536-3.358,5.037-6.551,7.576-9.859l11.516,20.087l6.445,11.147l6.489,11.073c1.1,1.847,2.15,3.604,3.276,5.397l3.412,5.517
				c9.043,14.754,17.877,29.696,25.753,45.383c3.92,7.85,7.582,15.915,10.668,24.3c3.101,8.371,5.528,17.1,7.25,25.825
				c0.436,2.18,0.834,4.357,1.206,6.528l1.063,6.421c0.094,0.571,0.184,1.164,0.268,1.778l0.215,1.664
				c0.142,1.277,0.246,2.368,0.333,3.566c0.163,2.346,0.227,4.71,0.177,7.06c-0.179,9.408-2.097,18.809-5.653,27.542
				c-1.025,2.531-2.793,4.45-4.676,5.43c-1.89,0.988-3.877,1.05-5.497,0.129c-1.622-0.922-2.6-2.606-2.988-4.512
				c-0.386-1.915-0.192-4.055,0.649-6.133c2.932-7.201,4.513-14.936,4.662-22.727c0.041-1.95-0.012-3.888-0.146-5.833
				c-0.066-0.947-0.171-1.997-0.264-2.856l-0.198-1.535c-0.062-0.45-0.133-0.921-0.214-1.411l-1.044-6.306
				c-0.354-2.068-0.729-4.121-1.137-6.158c-1.613-8.15-3.811-16.045-6.682-23.808c-2.855-7.762-6.309-15.388-10.073-22.924
				c-7.562-15.068-16.245-29.779-25.178-44.349l-3.374-5.455c-1.161-1.849-2.319-3.782-3.419-5.631l-6.558-11.188l-7.803-13.504
				l-1.211,1.723c-2.401,3.438-4.755,6.919-7.061,10.433c-4.612,7.027-9.037,14.183-13.259,21.449
				c-8.437,14.533-16.086,29.512-22.545,44.922C366.823,162.662,362.603,165.257,359.112,163.934z M344.42,226.075
				c-3.716-0.172-6.53-4.572-5.913-9.759c0,0,0.218-1.934,0.639-4.814c0.416-2.881,1.067-6.701,1.845-10.484
				c1.525-7.579,3.633-14.971,3.633-14.972c1.382-4.953,5.542-7.966,9.088-6.808c3.545,1.157,5.211,5.814,3.921,10.44
				c0,0-1.987,6.98-3.409,14.046c-0.726,3.53-1.33,7.074-1.714,9.735c-0.389,2.661-0.588,4.438-0.588,4.438
				C351.359,222.589,348.155,226.25,344.42,226.075z"/>
		</g>
	</g>
</g>
<g>
	<g>
		<path d="M146.957,433.502c10.86,2.498,21.499,2.412,32.565,2.38c8.674-0.025,8.676-13.479,0-13.453
			c-9.838,0.029-19.335,0.322-28.989-1.899C142.089,418.587,138.504,431.557,146.957,433.502L146.957,433.502z"/>
	</g>
</g>
<g>
	<g>
		<path d="M78.421,318.469c-6.254,19.977-4.438,42.117,3.186,61.455c8.5,21.56,24.132,37.471,45.305,46.824
			c7.858,3.472,14.71-8.116,6.79-11.615c-18.492-8.17-32.167-21.142-39.635-40.083c-6.605-16.756-8.081-35.734-2.674-53.005
			C93.992,313.743,81.003,310.22,78.421,318.469L78.421,318.469z"/>
	</g>
</g>
<g>
	<g>
		<path d="M428.44,266.835c-4.298,0.98-8.52,0.859-12.898,0.844c-3.86-0.013-3.859,5.973,0,5.986
			c4.927,0.016,9.655,0.044,14.49-1.059C433.794,271.749,432.198,265.978,428.44,266.835L428.44,266.835z"/>
	</g>
</g>
<g>
	<g>
		<path d="M454.753,223.017c5.029,16.76-3.05,34.282-18.823,41.417c-3.512,1.589-0.466,6.746,3.021,5.168
			c18.122-8.198,27.308-29.063,21.573-48.176C459.418,217.739,453.641,219.311,454.753,223.017L454.753,223.017z"/>
	</g>
</g>
<path d="M294.519,299.933c0,0,7.319,51.603,1.196,81.646c-6.126,30.045,16.824,2.77,16.824,2.77
	c7.476-47.264,6.772-52.64-3.372-96.182C297.449,237.874,294.519,299.933,294.519,299.933z"/>
<path d="M475.488,201.568c0,0,4.475,20.823,2.07,39.594c-2.403,18.771,11.477,10.001,11.477,10.001s0.364-1.118,0.465-1.497
	c2.867-10.796,6.408-21.139-1.302-55.021C480.485,160.764,475.488,201.568,475.488,201.568z"/>
</svg>
