<?xml version="1.0" encoding="utf-8"?>
<!-- Generator: Adobe Illustrator 19.0.1, SVG Export Plug-In . SVG Version: 6.00 Build 0)  -->
<svg version="1.1" id="Слой_1" xmlns="http://www.w3.org/2000/svg" x="0px" y="0px"
     viewBox="0 0 512 512" style="enable-background:new 0 0 512 512;" xml:space="preserve">
<g>
	<g>
		<path d="M234.1,321.5c-3.9,5.8-7.9,11.6-11.8,17.4c-3.5,5.2,4.9,10.1,8.4,4.9c3.9-5.8,7.8-11.6,11.8-17.4
			C246,321.2,237.6,316.3,234.1,321.5L234.1,321.5z"/>
	</g>
</g>
<g>
	<g>
		<path d="M244,306.6c-0.9,1.3-1.7,2.6-2.6,3.9c-1.4,2.1-0.5,5.5,1.7,6.7c2.4,1.3,5.2,0.5,6.7-1.7c0.9-1.3,1.7-2.6,2.6-3.9
			c1.4-2.1,0.5-5.5-1.7-6.7C248.2,303.6,245.5,304.3,244,306.6L244,306.6z"/>
	</g>
</g>
<g>
	<g>
		<path d="M296,229.7c-15.3,22-30.2,44.1-45,66.4c-3.5,5.2,5,10.1,8.4,4.9c14.8-22.3,29.7-44.4,45-66.4
			C308,229.4,299.6,224.5,296,229.7L296,229.7z"/>
	</g>
</g>
<g>
	<g>
		<path d="M413.2,90.9c-12.4,27.9-25.1,55.7-37.2,83.8c-1.9,4.3-1.3,9.4,3.1,12c3.7,2.2,10.1,1.2,12-3.1
			c12.1-28.1,24.8-55.9,37.2-83.8c1.9-4.3,1.3-9.4-3.1-12C421.4,85.6,415.1,86.5,413.2,90.9L413.2,90.9z"/>
	</g>
</g>
<g>
	<g>
		<path d="M333.5,84.8c10.3-19.3,21.4-38.5,33.2-56.9c-2.5,1.4-5,2.9-7.6,4.3c31.7-1.2,63.4-1,95.1-1c-2.5-4.4-5-8.8-7.6-13.2
			c-0.7,1.6-1.4,3.1-2.1,4.6c5.3,2.2,10.7,4.5,16,6.7c0.3-0.9,0.7-1.8,1.2-2.6c-5-2.9-10.1-5.9-15.1-8.8c-8,17.7-16,35.4-23.9,53.1
			c-1.9,4.3-1.3,9.4,3.1,12c3.7,2.2,10,1.2,12-3.1c7.9-17.7,15.9-35.4,23.9-53.1c4.6-10-9.5-18.8-15.1-8.8c-1.2,2.2-2.1,4.4-3,6.7
			c-3.4,9.2,11.6,15.6,16,6.7c0.8-1.5,1.4-3.1,2.1-4.6c2.6-5.9-0.3-13.2-7.6-13.2c-18.3,0-36.6-0.1-55,0c-9,0.1-18,0.2-26.9,0.5
			c-4.9,0.1-10.8-0.5-15.5,0.7c-3.7,1-5.4,4.2-7.2,7.2c-11,17.5-21.5,35.5-31.2,53.7C313.1,85.9,328.2,94.7,333.5,84.8L333.5,84.8z"
			/>
	</g>
</g>
<g>
	<g>
		<path d="M288.5,171c12-22.6,23.1-45.7,35.3-68.3c5.4-9.9-9.7-18.8-15.1-8.8c-12.2,22.5-23.3,45.6-35.3,68.3
			C268.1,172.1,283.2,181,288.5,171L288.5,171z"/>
	</g>
</g>
<g>
	<g>
		<path d="M305.9,182.4c25.5,2.1,51.1,3.1,76.6,5.4c4.7,0.4,8.8-4.3,8.8-8.8c0-5.1-4-8.3-8.8-8.8c-25.5-2.3-51.1-3.4-76.6-5.4
			C294.7,164,294.7,181.5,305.9,182.4L305.9,182.4z"/>
	</g>
</g>
<g>
	<g>
		<path d="M450.5,503.5c3.7,0,7.4-0.1,11.1-0.1c6.4,0,6.4-10,0-10c-3.7,0-7.4,0-11.1,0.1C444.1,493.5,444.1,503.5,450.5,503.5
			L450.5,503.5z"/>
	</g>
</g>
<g>
	<g>
		<path d="M428.3,503.7c1.2,0,2.3,0,3.5-0.1c2.6,0,5.1-2.3,5-5c-0.1-2.7-2.2-5-5-5c-1.2,0-2.3,0-3.5,0.1c-2.6,0-5.1,2.3-5,5
			C423.4,501.4,425.5,503.8,428.3,503.7L428.3,503.7z"/>
	</g>
</g>
<g>
	<g>
		<path d="M308.1,506.3c33.8-0.5,67.5-1.5,101.3-2.2c6.4-0.1,6.4-10.1,0-10c-33.8,0.7-67.5,1.7-101.3,2.2
			C301.7,496.4,301.7,506.4,308.1,506.3L308.1,506.3z"/>
	</g>
</g>
<g>
	<g>
		<path d="M221.1,508.2c22.3-0.4,44.6-0.9,66.9-1.4c6.4-0.1,6.4-10.1,0-10c-22.3,0.5-44.6,0.9-66.9,1.4
			C214.6,498.3,214.6,508.3,221.1,508.2L221.1,508.2z"/>
	</g>
</g>
<g>
	<g>
		<path d="M197,508.4c2.3,0,4.6,0,6.9-0.1c2.6,0,5.1-2.3,5-5c-0.1-2.7-2.2-5-5-5c-2.3,0-4.6,0-6.9,0.1c-2.6,0-5.1,2.3-5,5
			C192.1,506.1,194.2,508.5,197,508.4L197,508.4z"/>
	</g>
</g>
<g>
	<g>
		<path d="M125.6,509.8c18.2,0.7,36.4-1.2,54.5-1c6.4,0,6.4-10,0-10c-18.2-0.1-36.3,1.7-54.5,1C119.2,499.6,119.2,509.6,125.6,509.8
			L125.6,509.8z"/>
	</g>
</g>
<g>
	<g>
		<path d="M213.3,437.6c-10.7,6.5-22.2,11.3-34,15.7c-12.2,4.6-24.4,9.4-36.8,13.3c-25.6,8.1-52.1,13.4-78.8,16.4
			c-4,0.5-7.5,3.1-7.5,7.5c0,3.7,3.4,8,7.5,7.5c28.1-3.2,55.9-8.4,82.8-16.9c13-4.1,25.7-9.1,38.5-14c12.3-4.7,24.5-9.8,35.9-16.6
			C229.1,445.5,221.6,432.5,213.3,437.6L213.3,437.6z"/>
	</g>
</g>
<g>
	<g>
		<path d="M162,365.7c9.1-15.1,20.9-28.1,31.1-42.4c10.5-14.6,20.5-29.4,31.1-43.9c10.8-14.8,21.4-29.7,32-44.5
			c5.2-7.2,10.3-14.5,15.7-21.5c2.5-3.3,5.2-6.6,7.9-9.8c1.6-1.9,1.7-2.3,3.1-2.6c2.3-0.5,5.2,0,7.6,0.1c16.6,0.3,33.1,1.8,49.7,3.2
			c4.1,0.3,8.2,0.7,12.3,1c1.7,0.1,5.1,1,6.6,0.5c0.3,0,0.6,0,1,0.1c-1.2-1.2-2.4-2.4-3.7-3.6c-0.2,0.1-0.3,4-0.4,4.5
			c-0.8,8.8-1.9,17.6-3.4,26.3c-6.2,34.8-17.9,69.8-35.8,100.4c-20.3,34.9-47,65.5-80,88.9c-7.8,5.5-0.3,18.6,7.6,13
			c64-45.4,106.3-115.5,121.5-192.2c1.9-9.4,3.3-18.9,4.3-28.4c0.9-8.3,4.3-21.7-7.2-23.6c-9.3-1.6-19.2-1.5-28.6-2.3
			c-8.9-0.8-17.7-1.5-26.6-2.1c-4.3-0.2-8.5-0.4-12.8-0.6c-5.1-0.2-11.1-1-16,0.1c-8.4,1.8-14,11.8-18.9,18.2
			c-11.9,15.5-23.1,31.5-34.3,47.4c-12.8,18.1-26.3,35.7-38.7,54c-12.1,17.9-26.9,33.9-38,52.4C144,366.4,157,374,162,365.7
			L162,365.7z"/>
	</g>
</g>
<g>
	<g>
		<path d="M140.6,394.2c4-4.5,7.7-9.3,11.3-14.2c2.4-3.3,0.5-8.4-2.7-10.3c-3.8-2.2-7.9-0.6-10.3,2.7c-2.8,3.9-5.8,7.6-9,11.1
			c-2.7,3-3,7.6,0,10.6C132.7,396.9,137.9,397.2,140.6,394.2L140.6,394.2z"/>
	</g>
</g>
<g>
	<g>
		<path d="M68.5,493.1c21.7-28.7,41.7-58.7,63.7-87.2c2.5-3.2,0.5-8.4-2.7-10.3c-3.8-2.3-7.8-0.5-10.3,2.7
			c-21.9,28.6-42,58.5-63.7,87.2c-2.5,3.3-0.5,8.4,2.7,10.3C62,498.1,66,496.3,68.5,493.1L68.5,493.1z"/>
	</g>
</g>
</svg>
