<?xml version="1.0" encoding="utf-8"?>
<!-- Generator: Adobe Illustrator 16.0.0, SVG Export Plug-In . SVG Version: 6.00 Build 0)  -->
<!DOCTYPE svg PUBLIC "-//W3C//DTD SVG 1.1//EN" "http://www.w3.org/Graphics/SVG/1.1/DTD/svg11.dtd">
<svg version="1.1" id="Слой_1" xmlns="http://www.w3.org/2000/svg" x="0px" y="0px"
     width="512px" height="512px" viewBox="0 0 512 512" enable-background="new 0 0 512 512" xml:space="preserve">
<g>
	<g>
		<g>
			<path d="M267.078,31.526c-1.165,2.884-0.74,6.104,0.452,8.972c1.227,2.874,3.202,5.458,5.918,7.472c0,0,0.629,0.49,1.81,1.408
				c0.573,0.49,1.28,1.095,2.111,1.806c0.984,0.888,2.115,1.909,3.383,3.053c5.068,4.575,12.308,11.109,20.996,18.951
				c17.376,15.684,40.545,36.595,63.713,57.507c46.337,41.823,92.673,83.646,92.673,83.646c6.172,5.57,14.563,6.333,18.739,1.705
				c4.179-4.629,2.563-12.898-3.608-18.468c0,0-46.337-41.823-92.673-83.646c-23.169-20.912-46.337-41.823-63.713-57.507
				c-8.688-7.842-15.929-14.376-20.997-18.951c-1.267-1.144-2.397-2.165-3.382-3.053c-1.153-0.999-2.178-1.893-3.007-2.572
				c-1.707-1.327-2.617-2.035-2.617-2.035c-3.965-2.944-8.562-4.094-12.226-3.609C270.957,26.665,268.245,28.632,267.078,31.526z
				 M471.755,309.743c4.63,4.179,3.867,12.568-1.706,18.742c0,0-1.351,1.497-3.885,4.304c-1.267,1.403-2.829,3.135-4.665,5.169
				c-2.167,2.364-4.911,5.104-8.244,7.734c-6.651,5.28-15.985,10.422-27.557,12.836c-11.495,2.455-25.234,2.074-38.74-2.98
				c-3.376-1.236-6.701-2.806-9.965-4.613c-3.267-1.806-6.44-3.919-9.461-6.313c-0.77-0.583-1.515-1.198-2.244-1.84l-1.105-0.951
				l-0.539-0.47l-0.461-0.416c-1.23-1.11-2.472-2.23-3.722-3.358c-2.499-2.257-5.037-4.547-7.61-6.869
				c-10.292-9.289-21.145-19.085-32.372-29.219c-22.455-20.268-46.406-41.886-70.358-63.504
				c-23.952-21.618-47.903-43.237-70.358-63.504c-1.403-1.267-2.801-2.528-4.192-3.784l-2.082-1.88
				c-0.363-0.332-0.655-0.58-1.075-0.981l-1.197-1.131c-3.173-3.026-6.055-6.315-8.598-9.801c-5.1-6.967-8.809-14.725-11.025-22.67
				c-2.232-7.945-3.005-16.066-2.46-23.859c0.588-7.792,2.462-15.251,5.39-21.943c1.472-3.342,3.174-6.5,5.063-9.444
				c1.924-2.92,3.999-5.638,6.207-8.119c3.705-4.109,7.22-8.006,10.523-11.669c6.587-7.298,12.33-13.66,17.059-18.899
				c0.591-0.655,1.167-1.292,1.726-1.912c0.291-0.32,0.578-0.635,0.86-0.945c0.336-0.354,0.667-0.703,0.992-1.046
				c1.279-1.396,2.604-2.585,3.805-3.721c2.496-2.172,4.715-3.916,6.617-5.182c1.864-1.323,3.402-2.166,4.399-2.795
				c1.035-0.564,1.569-0.856,1.569-0.856c4.427-2.408,9.22-2.853,12.782-1.817c0.897,0.262,1.718,0.589,2.457,1.004
				c0.743,0.43,1.4,0.926,1.962,1.481c1.125,1.109,1.869,2.454,2.215,3.974c0.346,1.52,0.272,3.07-0.08,4.553
				c-0.176,0.741-0.424,1.465-0.73,2.161c-0.302,0.71-0.655,1.413-1.063,2.068c-1.636,2.652-3.92,4.873-6.802,6.439
				c0,0-0.352,0.19-1.034,0.558c-0.646,0.426-1.667,0.961-2.882,1.838c-1.254,0.82-2.695,1.979-4.344,3.394
				c-0.78,0.759-1.664,1.525-2.501,2.456c-0.216,0.226-0.436,0.455-0.659,0.688c-0.263,0.289-0.53,0.582-0.801,0.879
				c-0.559,0.62-1.135,1.257-1.726,1.912c-4.729,5.239-10.472,11.602-17.059,18.899c-3.281,3.638-6.772,7.509-10.452,11.59
				c-1.457,1.642-2.815,3.431-4.085,5.341c-1.233,1.934-2.347,4.003-3.317,6.195c-1.923,4.393-3.162,9.325-3.566,14.541
				c-0.359,5.219,0.156,10.714,1.674,16.12c1.504,5.407,4.033,10.708,7.538,15.488c1.748,2.393,3.732,4.658,5.933,6.758l0.828,0.788
				c0.249,0.245,0.665,0.605,0.989,0.903l2.083,1.879c1.391,1.256,2.789,2.517,4.192,3.784
				c22.455,20.268,46.407,41.886,70.358,63.504c23.952,21.619,47.904,43.237,70.358,63.504
				c11.228,10.134,22.081,19.93,32.373,29.219c2.572,2.322,5.11,4.613,7.61,6.869c1.25,1.129,2.49,2.248,3.721,3.358l0.461,0.417
				l0.397,0.342l0.769,0.659c0.504,0.448,1.02,0.876,1.555,1.273c2.087,1.66,4.27,3.114,6.514,4.349
				c2.241,1.236,4.513,2.32,6.821,3.161c9.228,3.46,18.564,3.69,26.237,2.044c7.731-1.619,13.828-4.997,18.19-8.455
				c2.208-1.749,3.935-3.476,5.479-5.144c1.837-2.035,3.399-3.766,4.666-5.17c2.533-2.807,3.885-4.304,3.885-4.304
				C458.859,307.181,467.127,305.566,471.755,309.743z M476.873,216.046c1.044-1.158,2.349-1.968,3.865-2.393
				c1.513-0.423,3.26-0.481,5.045-0.061c3.601,0.774,7.556,3.378,10.305,7.5c0,0,0.5,0.779,1.376,2.142
				c0.853,1.377,2.033,3.373,3.273,5.863c2.518,4.953,5.108,11.985,6.375,19.325c0.637,3.665,0.974,7.384,1.041,10.88
				c0.08,3.498-0.191,6.767-0.501,9.555c-0.362,2.786-0.818,5.087-1.175,6.689c-0.396,1.594-0.622,2.505-0.622,2.505
				c-1.283,4.859-4.258,8.665-7.482,10.536c-3.236,1.913-6.597,1.969-9.269,0.353c-2.659-1.607-4.252-4.429-5.063-7.395
				c-0.786-2.994-0.835-6.168,0.005-9.354c0,0,0.15-0.604,0.413-1.659c0.233-1.063,0.534-2.592,0.781-4.449
				c0.194-1.862,0.394-4.048,0.334-6.404c-0.05-2.354-0.275-4.866-0.704-7.352c-0.863-4.977-2.621-9.777-4.346-13.16
				c-0.847-1.702-1.656-3.067-2.238-4.011c-0.6-0.935-0.941-1.469-0.941-1.469c-1.868-2.803-2.884-5.897-3.073-9.028
				c-0.065-1.581,0.043-3.118,0.454-4.594C475.138,218.594,475.83,217.204,476.873,216.046z"/>
		</g>
	</g>
</g>
<g>
	<g>
		<path d="M368.298,170.75c8.596-9.171,15.528-19.788,24.514-28.601c6.914-6.782-3.699-17.382-10.607-10.606
			c-8.984,8.813-15.918,19.429-24.514,28.601C351.084,167.192,361.67,177.821,368.298,170.75L368.298,170.75z"/>
	</g>
</g>
<g>
	<g>
		<path d="M292.588,261.304c21.298-24.852,42.599-49.7,63.897-74.551c6.258-7.302-4.302-17.963-10.607-10.606
			c-21.298,24.851-42.599,49.699-63.897,74.55C275.723,257.998,286.283,268.659,292.588,261.304L292.588,261.304z"/>
	</g>
</g>
<g>
	<g>
		<g>
			<path d="M286.315,354.225c2.436,1.391,5.16,1.586,7.742,0.568c1.313-0.487,2.465-1.342,3.501-2.437
				c1.064-1.078,1.857-2.481,2.407-4.055c0,0,0.064-0.185,0.19-0.541c0.128-0.355,0.318-0.884,0.504-1.599
				c0.393-1.421,1.031-3.486,1.457-6.225c0.595-2.701,0.852-6.064,1.006-9.915c-0.066-1.926-0.002-3.987-0.295-6.132
				c-0.127-1.072-0.207-2.183-0.395-3.299c-0.212-1.111-0.428-2.248-0.648-3.409c-1.032-4.601-2.662-9.437-4.969-14.194
				c-2.349-4.724-5.334-9.348-8.817-13.694c-6.946-8.757-15.953-16.154-25.481-22.259c-4.798-3.002-9.737-5.694-14.695-8.088
				c-4.985-2.311-9.948-4.439-14.848-6.162c-9.768-3.569-19.146-5.886-27.223-7.503c-4.04-0.819-7.768-1.386-11.071-1.897
				c-3.314-0.404-6.197-0.832-8.585-1.021c-4.767-0.494-7.499-0.621-7.499-0.622c-1.455-0.088-2.857,0.088-4.138,0.54
				c-1.281,0.466-2.438,1.165-3.408,2.044c-1.944,1.759-3.128,4.238-3.176,7.019c-0.047,2.781,1.021,5.336,2.72,7.216
				c0.851,0.94,1.863,1.712,2.99,2.259c1.127,0.562,2.366,0.94,3.687,1.021c0,0,2.484,0.113,6.804,0.563
				c2.168,0.166,4.772,0.563,7.773,0.922c2.982,0.466,6.352,0.974,9.986,1.713c7.266,1.455,15.68,3.535,24.304,6.692
				c4.337,1.52,8.674,3.394,13.013,5.396c4.296,2.077,8.53,4.391,12.586,6.923c8.024,5.141,15.327,11.222,20.548,17.846
				c2.634,3.289,4.794,6.659,6.449,9.968c1.601,3.327,2.676,6.576,3.369,9.608c0.146,0.761,0.289,1.507,0.429,2.235
				c0.128,0.729,0.158,1.451,0.248,2.149c0.22,1.395,0.127,2.732,0.199,3.981c-0.141,2.498-0.25,4.683-0.672,6.446
				c-0.25,1.787-0.693,3.152-0.942,4.092c-0.113,0.473-0.246,0.825-0.336,1.063c-0.086,0.239-0.13,0.362-0.13,0.362
				c-0.372,1.051-0.44,2.153-0.407,3.258c0.065,1.109,0.402,2.269,0.82,3.372C282.213,350.647,283.924,352.858,286.315,354.225z
				 M97.55,262.915c0.987,2.589,0.85,5.335-0.059,7.692c-0.459,1.173-1.121,2.24-1.963,3.136c-0.821,0.935-1.821,1.699-2.996,2.231
				c0,0-1.152,0.496-3.225,1.565c-1.043,0.523-2.342,1.151-3.798,1.99c-0.737,0.407-1.528,0.845-2.373,1.312
				c-0.819,0.499-1.69,1.029-2.61,1.59c-3.645,2.271-7.956,5.208-12.31,9.074c-1.056,0.99-2.22,1.956-3.253,3.07
				c-0.535,0.543-1.078,1.093-1.629,1.651c-0.512,0.582-1.032,1.172-1.558,1.77c-1.096,1.169-2.014,2.482-3.045,3.773
				c-0.492,0.658-0.922,1.355-1.398,2.04c-0.234,0.344-0.47,0.689-0.708,1.037c-0.208,0.358-0.418,0.72-0.629,1.082
				c-1.77,2.87-3.178,6.018-4.223,9.34c-1.036,3.324-1.708,6.84-1.782,10.495c-0.158,7.3,1.929,15.002,6.332,22.266
				c4.336,7.294,10.94,13.978,18.618,19.715c3.828,2.896,8.009,5.493,12.347,7.889c2.149,1.229,4.412,2.303,6.643,3.428
				c2.292,1.023,4.554,2.11,6.908,3.028c9.315,3.87,19.155,6.679,28.99,8.755c9.865,1.992,19.758,3.192,29.38,3.67
				c9.628,0.446,18.963,0.196,27.738-0.589c8.778-0.789,16.986-2.194,24.428-3.913c14.914-3.428,26.594-8.379,34.267-12.423
				c0.957-0.513,1.863-0.998,2.715-1.454c0.83-0.486,1.608-0.942,2.332-1.366c1.466-0.825,2.633-1.623,3.607-2.236
				c0.979-0.609,1.701-1.106,2.177-1.453c0.483-0.339,0.732-0.514,0.732-0.514c0.514-0.361,1.057-0.654,1.623-0.887
				c0.553-0.244,1.116-0.438,1.704-0.566c1.163-0.268,2.437-0.261,3.643-0.109c2.43,0.331,4.927,1.521,6.76,3.612
				c1.832,2.091,2.605,4.735,2.249,7.418c-0.166,1.354-0.667,2.616-1.397,3.837c-0.37,0.603-0.801,1.191-1.3,1.729
				c-0.508,0.521-1.076,1.007-1.7,1.445c0,0-0.303,0.212-0.89,0.623c-0.583,0.421-1.458,1.021-2.626,1.753
				c-1.164,0.738-2.58,1.692-4.309,2.673c-0.859,0.502-1.782,1.041-2.768,1.616c-1.001,0.537-2.064,1.108-3.188,1.711
				c-9.005,4.75-22.397,10.38-39.074,14.211c-8.327,1.924-17.447,3.477-27.146,4.351c-9.699,0.87-19.96,1.142-30.547,0.649
				c-10.588-0.524-21.508-1.842-32.471-4.06c-10.943-2.307-21.951-5.443-32.58-9.852c-2.673-1.048-5.284-2.289-7.91-3.471
				c-2.586-1.294-5.188-2.54-7.709-3.976c-5.067-2.798-10.007-5.867-14.659-9.375c-9.296-6.96-17.767-15.342-23.833-25.465
				c-3.034-5.032-5.453-10.461-7.029-16.09c-1.585-5.624-2.306-11.428-2.193-17.049c0.116-5.628,1.138-11.065,2.7-16.057
				c1.569-4.996,3.674-9.587,6.136-13.616c0.301-0.51,0.6-1.017,0.898-1.521c0.324-0.481,0.646-0.96,0.966-1.437
				c0.649-0.945,1.266-1.907,1.931-2.802c1.366-1.75,2.653-3.521,4.069-5.059c0.693-0.785,1.368-1.575,2.057-2.323
				c0.709-0.723,1.409-1.436,2.099-2.138c1.357-1.438,2.796-2.66,4.146-3.911c5.491-4.868,10.703-8.404,15.061-11.123
				c1.097-0.666,2.135-1.297,3.112-1.891c0.995-0.552,1.927-1.069,2.795-1.551c1.727-0.986,3.235-1.722,4.452-2.333
				c2.427-1.245,3.752-1.819,3.752-1.82c1.358-0.618,2.771-0.949,4.144-1.011c1.387-0.021,2.735,0.225,3.961,0.707
				C94.586,258.361,96.555,260.308,97.55,262.915z M167.875,251.346c-0.053,2.78-1.214,5.295-2.98,7.113
				c-0.885,0.909-1.924,1.644-3.07,2.149c-1.146,0.521-2.399,0.854-3.722,0.886c0,0-0.497,0.014-1.366,0.038
				c-0.87,0.01-2.11,0.073-3.596,0.169c-2.976,0.144-6.933,0.464-10.874,0.895c-1.964,0.256-3.94,0.443-5.771,0.735
				c-1.833,0.286-3.543,0.553-5.009,0.781c-2.913,0.543-4.855,0.904-4.855,0.904c-2.564,0.554-5.129-0.06-7.258-1.409
				c-2.119-1.34-3.831-3.503-4.534-6.194c-0.703-2.69-0.229-5.409,1.183-7.648c1.408-2.227,3.771-3.881,6.643-4.496
				c0,0,2.163-0.403,5.407-1.007c1.625-0.276,3.527-0.551,5.563-0.868c2.035-0.322,4.218-0.536,6.395-0.815
				c4.36-0.478,8.729-0.83,12.01-0.989c1.64-0.104,3.006-0.173,3.963-0.186c0.957-0.027,1.504-0.042,1.504-0.042
				c1.457-0.036,2.853,0.191,4.116,0.689c1.263,0.512,2.394,1.252,3.332,2.167C166.834,246.045,167.929,248.566,167.875,251.346z"/>
		</g>
	</g>
</g>
<g>
	<g>
		<path d="M30.524,336.593c2.187,21.495,4.374,42.989,6.56,64.484c0.551,5.421,4.131,10,10,10c5.033,0,10.553-4.566,10-10
			c-2.187-21.495-4.374-42.989-6.56-64.484c-0.551-5.421-4.131-10-10-10C35.491,326.593,29.971,331.159,30.524,336.593
			L30.524,336.593z"/>
	</g>
</g>
<g>
	<g>
		<path d="M281.204,343.094c-1.679,19.691-3.358,39.382-5.037,59.073c-0.464,5.439,4.899,10,10,10c5.802,0,9.537-4.571,10-10
			c1.679-19.691,3.358-39.382,5.037-59.073c0.464-5.439-4.899-10-10-10C285.402,333.094,281.667,337.665,281.204,343.094
			L281.204,343.094z"/>
	</g>
</g>
<g>
	<g>
		<path d="M112.092,446.393c32.37,11.309,68.311,10.18,101.46,3.101c28.31-6.046,59.283-17.651,79.687-39.047
			c8.896-9.328-5.227-23.492-14.143-14.143c-17.635,18.493-45.502,28.313-70.861,33.903c-29.684,6.544-61.894,7.008-90.827-3.1
			c-5.148-1.799-10.929,1.997-12.301,6.984C103.588,439.615,106.951,444.597,112.092,446.393L112.092,446.393z"/>
	</g>
</g>
<g>
	<g>
		<path d="M40.013,407.24c14.295,15.114,32.762,24.161,51.704,32.027c5.044,2.095,10.991-2.223,12.301-6.984
			c1.583-5.754-1.954-10.212-6.984-12.301c-15.725-6.53-31.055-14.383-42.878-26.885C45.277,383.711,31.159,397.878,40.013,407.24
			L40.013,407.24z"/>
	</g>
</g>
<g>
	<g>
		<path d="M218.236,309.814c14.946-6.619,28.806-15.376,43.533-22.44c8.72-4.182,1.106-17.113-7.57-12.951
			c-14.728,7.063-28.587,15.82-43.533,22.44c-3.74,1.656-4.581,7.034-2.691,10.261C210.211,310.941,214.499,311.471,218.236,309.814
			L218.236,309.814z"/>
	</g>
</g>
<g>
	<g>
		<path d="M78.77,381.707c38.737-19.146,76.629-39.925,115.176-59.442c8.632-4.37,1.037-17.31-7.57-12.951
			c-38.547,19.517-76.439,40.296-115.176,59.442C62.527,373.042,70.13,385.978,78.77,381.707L78.77,381.707z"/>
	</g>
</g>
<g>
	<g>
		<path d="M221.487,70.164c1.603-1.638,1.937-1.761,3.484-2.816c3.634-2.479,7.597-4.123,11.89-5.053
			c16.962-3.678,31.629,10.219,41.29,22.239c4.04,5.027,11.068-2.096,7.07-7.071c-11.839-14.732-28.546-28.042-48.567-25.218
			c-8.031,1.133-16.494,4.98-22.238,10.848C209.904,67.703,216.97,74.778,221.487,70.164L221.487,70.164z"/>
	</g>
</g>
<g>
	<g>
		<path d="M287.361,94.461c6.126,6.713,12.253,13.427,18.38,20.141c4.355,4.773,11.407-2.319,7.07-7.071
			c-6.126-6.713-12.253-13.427-18.38-20.141C290.076,82.617,283.024,89.709,287.361,94.461L287.361,94.461z"/>
	</g>
</g>
<path fill="#201600" d="M491.664,226.369c-3.085,3.983,7.02,35.468-7.436,18.501c-1.771-2.078-6.643-11.911-9.687-14.828
	c-36.873-35.333-12.997-19.71-9.472-24.264s-5.471-23.16,18.367,1.097C501.25,225,495.189,221.815,491.664,226.369z"/>
</svg>
