<?xml version="1.0" encoding="utf-8"?>
<!-- Generator: Adobe Illustrator 16.0.0, SVG Export Plug-In . SVG Version: 6.00 Build 0)  -->
<!DOCTYPE svg PUBLIC "-//W3C//DTD SVG 1.1//EN" "http://www.w3.org/Graphics/SVG/1.1/DTD/svg11.dtd">
<svg version="1.1" id="Слой_1" xmlns="http://www.w3.org/2000/svg" x="0px" y="0px"
     width="512px" height="512px" viewBox="0 0 512 512" enable-background="new 0 0 512 512" xml:space="preserve">
<g>
	<g>
		<g>
			<path d="M216.705,484.598c-1.758-1.355-3.693-1.846-5.43-2.443c-1.739-0.572-3.288-1.246-4.479-2.336
				c-0.5-0.459-0.961-1.028-1.285-1.608c-0.327-0.583-0.509-1.151-0.592-1.586c-0.084-0.439-0.077-0.754-0.049-0.945
				c0.028-0.192,0.078-0.265,0.078-0.265s-0.331-0.393-0.95-1.129c-1.813-2.182-4.48-5.688-7.642-10.586
				c-6.335-9.756-14.606-25.042-22.353-44.366c-3.861-9.657-7.614-20.314-10.808-31.729c-3.201-11.403-5.854-23.591-7.273-36.088
				c-0.357-3.123-0.603-6.258-0.781-9.398c-0.077-1.567-0.143-3.139-0.165-4.704c-0.026-0.786-0.021-1.565-0.02-2.347
				c-0.001-0.815,0.009-1.423-0.019-2.684c-0.069-9.016-1.92-17.15-4.22-24.804c-2.347-7.643-5.296-14.787-8.445-21.729
				c-3.163-6.931-6.57-13.623-10.071-20.177c-7.014-13.097-14.385-25.671-21.477-37.979c-7.099-12.298-13.939-24.312-20.067-36.027
				c-6.118-11.71-11.496-23.128-15.726-34.05c-4.191-10.917-7.2-21.34-8.67-30.805c-0.721-4.729-1.073-9.207-1.103-13.382
				c-0.035-4.179,0.386-8.014,0.96-11.539c0.169-0.873,0.336-1.731,0.5-2.575c0.175-0.84,0.427-1.636,0.624-2.436
				c0.357-1.614,0.966-3.066,1.409-4.516c0.245-0.716,0.567-1.382,0.832-2.056c0.29-0.663,0.511-1.338,0.831-1.954
				c0.648-1.226,1.155-2.446,1.805-3.527c0.66-1.076,1.206-2.133,1.836-3.072c0.638-0.936,1.235-1.813,1.792-2.629
				c0.589-0.799,1.188-1.512,1.703-2.183c0.522-0.667,0.979-1.284,1.471-1.79c0.933-1.041,1.649-1.839,2.131-2.377
				c0.496-0.53,0.783-0.785,0.783-0.785c2.255-2.288,4.327-4.632,6.148-7.011c0.938-1.166,1.778-2.366,2.526-3.579
				c0.806-1.16,1.509-2.338,2.106-3.518c0.298-0.59,0.569-1.18,0.812-1.767c0.258-0.571,0.495-1.131,0.696-1.693
				c0.404-1.121,0.685-2.226,0.827-3.295c0.284-2.137,0.019-4.131-0.952-5.795c-0.971-1.665-2.566-2.839-4.688-3.493
				c-1.06-0.328-2.25-0.525-3.555-0.593c-0.651-0.033-1.333-0.038-2.036,0c-0.694,0.059-1.413,0.151-2.154,0.279
				c-1.483,0.254-3.058,0.646-4.697,1.172c-1.606,0.598-3.275,1.341-4.98,2.216c-3.375,1.814-6.827,4.322-9.982,7.527
				c0,0-0.385,0.354-1.088,1.1c-0.688,0.766-1.71,1.902-3.042,3.384c-0.68,0.723-1.368,1.616-2.133,2.588
				c-0.759,0.978-1.612,2.021-2.479,3.2c-0.829,1.215-1.721,2.521-2.671,3.913c-0.932,1.407-1.801,2.997-2.772,4.632
				c-0.962,1.644-1.791,3.49-2.743,5.372c-0.471,0.945-0.844,1.963-1.28,2.979c-0.411,1.025-0.876,2.058-1.257,3.144
				c-0.714,2.184-1.577,4.434-2.148,6.839c-0.304,1.197-0.66,2.412-0.925,3.658c-0.245,1.249-0.494,2.52-0.747,3.811
				c-0.865,5.166-1.42,10.696-1.381,16.415c0.032,5.715,0.516,11.626,1.435,17.625c1.87,11.996,5.491,24.264,10.206,36.555
				c4.754,12.274,10.591,24.606,17.032,36.94c6.449,12.326,13.489,24.677,20.629,37.05c7.131,12.372,14.392,24.773,21.039,37.19
				c3.316,6.207,6.471,12.42,9.292,18.602c2.806,6.177,5.322,12.342,7.152,18.321c0.424,1.487,0.901,2.981,1.228,4.432
				c0.17,0.727,0.389,1.466,0.524,2.179l0.428,2.137c0.468,2.798,0.859,5.553,0.815,8.01c0.029,0.483,0.017,1.618,0.019,2.544
				c-0.002,0.958-0.005,1.915,0.024,2.862c0.028,1.903,0.106,3.786,0.199,5.658c0.209,3.736,0.503,7.422,0.915,11.038
				c1.647,14.469,4.625,27.985,8.136,40.518c3.51,12.537,7.582,24.09,11.775,34.582c8.42,20.977,17.394,37.675,24.832,49.153
				c3.706,5.741,7.051,10.184,9.572,13.216c0.316,0.379,0.614,0.735,0.893,1.069c0.102,0.13,0.351,0.404,0.567,0.645
				c0.216,0.241,0.424,0.473,0.624,0.695c0.817,0.895,1.43,1.632,2.081,2.258c1.224,1.235,1.855,1.873,1.855,1.873
				c2.553,2.387,5.212,4.509,7.9,5.884c2.678,1.395,5.31,2.198,7.78,2.44c2.468,0.254,4.81-0.049,6.95-0.796
				c0.534-0.181,1.05-0.396,1.546-0.651c0.504-0.221,0.96-0.535,1.405-0.836l0.33-0.227c0.129-0.014,0.212-0.146,0.319-0.215
				c0.2-0.166,0.398-0.332,0.594-0.496c0.399-0.322,0.745-0.671,1.065-1.024c0.763-0.953,1.366-1.886,1.908-2.795
				c0.475-1.001,0.884-1.947,1.158-2.929c0.253-1.01,0.439-1.959,0.541-2.867c0.065-0.955,0.065-1.842,0.005-2.661
				c-0.05-0.809-0.191-1.581-0.398-2.295c-0.198-0.706-0.445-1.339-0.734-1.905C218.303,486.122,217.555,485.261,216.705,484.598z
				 M278.298,63.888c-0.566-1.838-0.365-3.799,0.36-5.834c0.365-1.009,0.867-2.022,1.486-3.019c0.62-0.994,1.339-2.062,2.171-3.058
				c3.328-4.05,8.165-8.074,14.207-11.651c5.075-3.019,10.057-6.399,15.011-10.023c2.481-1.822,4.948-3.69,7.468-5.641
				c2.535-1.949,5.042-3.933,7.908-6.071l1.141-0.827l0.57-0.413l0.285-0.206l0.446-0.302c1.367-0.921,2.534-1.559,3.645-2.125
				c2.215-1.122,4.155-1.872,6.098-2.571c3.847-1.356,7.521-2.319,11.196-3.079c7.337-1.5,14.643-2.25,22.029-2.289
				c7.377-0.028,14.82,0.608,22.224,2.172c7.397,1.523,14.757,4.003,21.742,7.519c3.479,1.785,6.876,3.788,10.096,6.085
				c3.199,2.319,6.283,4.827,9.103,7.609c2.802,2.789,5.47,5.727,7.788,8.889c1.225,1.542,2.258,3.192,3.366,4.801
				c1.008,1.654,2.06,3.298,2.963,4.996c3.707,6.764,6.458,13.851,8.445,20.969c1.988,7.125,3.226,14.285,3.95,21.374
				c1.419,14.188,0.949,28.109-0.521,41.688c-1.502,13.579-3.924,26.876-7.016,39.902c-0.794,3.248-1.535,6.518-2.412,9.732
				c-0.848,3.227-1.69,6.476-2.577,9.581c-1.769,6.277-3.459,12.569-5.305,18.832c-7.221,25.08-14.989,50.063-23.804,74.815
				c-4.419,12.371-9.104,24.687-14.13,36.888c-5.003,12.18-10.498,24.306-15.835,35.974c-2.632,5.82-5.194,11.506-7.084,16.826
				c-1.914,5.355-3.161,10.277-3.642,15.542c-0.524,5.25-0.406,10.917,0.089,16.861c0.491,5.626,1.401,12.846,1.757,19.67
				c0.396,6.897,0.475,13.876,0.104,20.936c-0.381,7.059-1.168,14.193-2.713,21.404c-0.356,1.798-0.828,3.609-1.282,5.416
				l-0.768,2.718c-0.122,0.452-0.279,0.908-0.422,1.362l-0.636,1.909c-2.102,6.105-4.835,11.958-8.16,16.759
				c-0.791,1.281-1.719,2.266-2.582,3.389c-0.43,0.575-0.911,0.996-1.364,1.502c-0.465,0.469-0.91,1.008-1.391,1.42
				c-1.896,1.761-3.886,3.138-5.938,4.182c-2.065,1.012-4.184,1.641-6.536,1.831c-1.163,0.077-2.534,0.09-3.645-0.156l-0.871-0.14
				l-0.815-0.223c-0.545-0.146-1.097-0.288-1.585-0.481l-3.203-1.663c-0.517-0.307-1.008-0.711-1.513-1.061l-0.753-0.545
				c-0.248-0.194-0.481-0.444-0.724-0.664l-1.438-1.361c-0.479-0.453-0.913-1.076-1.372-1.605c-0.448-0.562-0.913-1.081-1.35-1.677
				l-1.246-1.957c-3.319-5.256-5.875-11.974-8.084-18.479l-0.91-2.837l-0.813-2.668c-0.526-1.772-1.044-3.542-1.529-5.299
				c-0.993-3.523-1.887-7.01-2.778-10.497c-3.485-13.92-6.479-27.686-9.486-41.377c-2.999-13.686-5.972-27.289-9.186-40.728
				c-3.224-13.42-6.663-26.723-10.782-39.445c-2.078-6.326-4.312-12.552-6.88-18.24c-1.28-2.831-2.624-5.585-4.057-7.974
				c-1.411-2.392-2.937-4.504-4.221-5.832c-0.164-0.206-0.31-0.313-0.452-0.438c-0.142-0.127-0.279-0.258-0.414-0.395
				c-0.067-0.073-0.115-0.077-0.172-0.122l-0.074-0.052l0.028,0.016l0.077,0.041l0.08-0.035c0.046-0.024-0.04,0.03-0.077,0.05
				c-0.046,0.024-0.093,0.04-0.153,0.11c-0.114,0.112-0.233,0.217-0.358,0.316c-0.122,0.075-0.261,0.226-0.404,0.387
				c-0.143,0.152-0.289,0.299-0.439,0.443l-0.952,1.136l-0.995,1.395c-1.344,1.995-2.664,4.488-3.865,7.185
				c-2.425,5.399-4.455,11.542-6.23,17.851c-1.78,6.321-3.298,12.875-4.694,19.498c-2.758,13.279-4.979,26.885-7.025,40.601
				c-2.233,15.092-10.1,26.652-17.75,25.58c-7.619-1.067-12.143-14.29-9.862-29.698c2.089-13.987,4.372-28.042,7.31-42.192
				c1.493-7.08,3.131-14.182,5.146-21.344c2.028-7.165,4.35-14.377,7.655-21.766c1.659-3.692,3.574-7.44,6.132-11.266
				c0.655-0.959,1.368-1.925,2.061-2.877c0.788-0.971,1.563-1.931,2.42-2.889l1.392-1.439c0.458-0.475,0.934-0.947,1.498-1.419
				c1.096-0.956,2.096-1.824,3.533-2.768c1.52-1.077,3.06-1.857,4.636-2.61c0.777-0.397,1.616-0.639,2.434-0.938
				c0.827-0.272,1.646-0.567,2.498-0.736c0.846-0.191,1.698-0.364,2.551-0.517c0.859-0.089,1.727-0.122,2.59-0.187l1.296-0.085
				c0.432-0.006,0.863,0.045,1.295,0.071c0.863,0.073,1.729,0.143,2.583,0.274c3.409,0.63,6.707,1.855,9.692,3.683
				c0.749,0.408,1.512,0.974,2.25,1.502l1.004,0.751c0.287,0.226,0.611,0.457,0.863,0.684l1.522,1.379
				c0.506,0.465,1.017,0.937,1.426,1.396c3.566,3.732,6.034,7.431,8.201,11.05c2.158,3.627,3.879,7.185,5.485,10.729
				c3.188,7.086,5.668,14.072,7.964,21.047c4.507,13.934,8.065,27.78,11.388,41.591c3.301,13.807,6.307,27.572,9.305,41.249
				c3.001,13.668,5.967,27.277,9.288,40.533c0.843,3.296,1.688,6.594,2.596,9.812c0.446,1.618,0.913,3.21,1.383,4.794l0.718,2.356
				l0.695,2.163l0.014,0.044l-0.002,0.002l-0.001,0.001l0.127-0.394c0.1-0.317,0.211-0.625,0.297-0.956l0.552-1.951
				c0.327-1.333,0.683-2.651,0.95-4.028c1.175-5.447,1.828-11.215,2.142-17.074c0.31-5.865,0.251-11.848-0.098-17.868
				c-0.319-6.104-1.06-11.731-1.709-18.994c-0.57-6.945-0.798-14.271-0.043-21.907c0.343-3.805,1.033-7.653,1.894-11.398
				c0.476-1.849,0.923-3.729,1.498-5.5c0.278-0.892,0.542-1.806,0.836-2.678l0.905-2.59c2.461-6.874,5.258-12.987,7.948-18.959
				c5.429-11.868,10.617-23.325,15.452-35.089c4.832-11.731,9.354-23.614,13.642-35.617c8.553-24.019,16.169-48.49,23.269-73.153
				c1.813-6.151,3.48-12.359,5.222-18.538c0.891-3.118,1.669-6.134,2.466-9.165c0.829-3.028,1.514-6.072,2.259-9.109
				c2.889-12.155,5.093-24.373,6.438-36.522c1.323-12.138,1.667-24.23,0.506-35.811c-1.154-11.562-4.033-22.56-9.074-31.737
				c-5.039-9.173-12.289-16.353-21.468-20.945c-9.14-4.625-20.07-6.759-31.197-6.686c-5.555,0.021-11.186,0.613-16.526,1.707
				c-2.661,0.543-5.255,1.249-7.511,2.046c-1.102,0.392-2.181,0.828-2.849,1.178c-0.222,0.095-0.266,0.152-0.41,0.219
				c-0.069,0.034-0.128,0.064-0.114,0.066l-0.013,0.011l-0.008,0.003c0.069,0.108-0.238-0.346-0.343-0.489l-0.466-0.646
				c-1.121-1.592,0.957,1.382,0.741,1.171l-0.206,0.15l-0.412,0.299l-0.824,0.597c-2.322,1.729-4.895,3.756-7.488,5.753
				c-2.596,2.01-5.287,4.05-8.021,6.058c-5.49,4.016-11.224,7.921-17.273,11.518c-7.228,4.293-15.037,6.27-21.092,5.958
				c-1.523-0.087-2.905-0.249-4.185-0.595c-1.278-0.344-2.41-0.793-3.381-1.343C280.171,67.276,278.866,65.733,278.298,63.888z
				 M94,45.333c-1.931-3.326-1.038-7.924,2.284-12.684c3.313-4.729,9.209-9.727,17.271-13.005c0,0,1.483-0.64,4.197-1.616
				c2.7-0.985,6.635-2.327,11.583-3.488c4.931-1.172,10.885-2.154,17.359-2.403c6.47-0.283,13.418,0.284,20.114,1.604
				c6.707,1.311,13.138,3.382,18.87,5.739c5.764,2.328,10.753,5.033,14.95,7.415c4.171,2.417,7.458,4.624,9.763,6.164
				c2.247,1.592,3.531,2.502,3.531,2.502c1.735,1.191,3.237,2.549,4.694,3.872c0.356,0.339,0.709,0.674,1.059,1.007l0.513,0.506
				l0.4,0.415c0.515,0.543,1.006,1.099,1.474,1.664c1.83,2.353,3.5,4.417,4.717,6.742c1.306,2.097,2.219,4.336,2.677,6.413
				c0.476,2.024,0.448,4.016-0.323,5.782c-0.771,1.766-2.231,3.134-4.346,4.03c-2.084,0.849-4.75,1.104-7.915,0.851
				c-3.008-0.441-6.615-1.311-10.045-3.09c-0.875-0.426-1.762-0.887-2.654-1.38c-0.397-0.222-0.799-0.446-1.204-0.671
				c-0.359-0.209-0.721-0.42-1.086-0.634c-1.454-0.851-2.859-1.892-4.308-2.875c0,0-1.077-0.764-2.96-2.101
				c-1.908-1.269-4.63-3.098-7.972-5.034c-3.349-1.894-7.285-4.036-11.596-5.762c-4.301-1.767-8.942-3.245-13.599-4.155
				c-4.657-0.914-9.324-1.301-13.698-1.104c-4.375,0.171-8.462,0.836-11.971,1.669c-3.509,0.817-6.439,1.811-8.492,2.563
				c-2.053,0.735-3.228,1.244-3.228,1.244c-6.235,2.523-12.643,4.197-18.152,4.375C100.415,50.069,95.94,48.673,94,45.333z"/>
		</g>
	</g>
</g>
<path d="M236.734,444.433c-1.313,6.354-8.248,10.294-15.487,8.797l-4-1c-4.372-0.48-8.045-6.86-6.732-13.216l16.275-90.62
	c1.313-6.354,8.248-10.293,15.488-8.797l0,0c7.24,1.496,12.044,7.86,10.732,14.216L236.734,444.433z"/>
<path d="M218.352,499.377c-2.698,6.245-9.949,9.121-16.194,6.422l0,0c-6.246-2.698-9.121-9.948-6.422-16.193
	c0,0,7.991-14.795,10.404-19.852c2.93-6.14,9.949-9.121,16.194-6.422l0.125,0.042c6.246,2.698,8.996,9.906,6.297,16.151
	L218.352,499.377z"/>
<g>
	<g>
		<path d="M194.662,53.375c4.473,1.443,7.869,4.07,11.771,7.913c4.377,4.311,8.141,9.234,11.991,14.007
			c8.699,10.787,17.962,19.156,30.867,24.569c25.833,10.836,56.034,9.896,83.363,6.913c6.094-0.665,11.25-4.614,11.25-11.25
			c0-5.628-5.141-11.917-11.25-11.25c-24.917,2.72-54.165,4.64-77.256-6.14c-10.374-4.843-16.884-13.592-24.406-22.896
			c-8.286-10.25-17.51-19.419-30.348-23.563C186.795,27.21,180.913,48.938,194.662,53.375L194.662,53.375z"/>
	</g>
</g>
</svg>
