<?xml version="1.0" encoding="utf-8"?>
<!-- Generator: Adobe Illustrator 16.0.0, SVG Export Plug-In . SVG Version: 6.00 Build 0)  -->
<!DOCTYPE svg PUBLIC "-//W3C//DTD SVG 1.1//EN" "http://www.w3.org/Graphics/SVG/1.1/DTD/svg11.dtd">
<svg version="1.1" id="Слой_1" xmlns="http://www.w3.org/2000/svg" x="0px" y="0px"
     width="512px" height="512px" viewBox="0 0 512 512" enable-background="new 0 0 512 512" xml:space="preserve">
<g>
	<g>
		<path d="M97.068,436.211c21.025-23.248,42.05-46.496,63.075-69.744c8.336-9.217-5.29-22.928-13.666-13.666
			c-21.025,23.248-42.05,46.496-63.075,69.744C75.066,431.762,88.692,445.473,97.068,436.211L97.068,436.211z"/>
	</g>
</g>
<g>
	<g>
		<path d="M365.87,136.633c26.159-29.402,52.318-58.804,78.478-88.205c7.61-8.554-4.947-21.204-12.602-12.602
			c-26.159,29.402-52.318,58.804-78.478,88.205C345.658,132.585,358.216,145.235,365.87,136.633L365.87,136.633z"/>
	</g>
</g>
<g>
	<path d="M136.734,483.739c-4.611,5.228-12.506,5.8-17.635,1.274L34.544,410.44c-5.13-4.521-5.549-12.427-0.937-17.656l0,0
		c4.611-5.228,12.507-5.8,17.635-1.277l84.556,74.575C140.926,470.604,141.346,478.509,136.734,483.739L136.734,483.739z"/>
</g>
<g>
	<g>
		<g>
			<path d="M203.708,236.333c-4.844-4.272-12.236-3.809-16.508,1.035c0,0-32.08,36.374-64.16,72.748l-3.655,4.171
				c-1.969,2.272-3.937,4.544-5.9,6.81c-1.959,2.271-3.916,4.536-5.866,6.795l-1.45,1.703l-0.362,0.426l-0.181,0.213l-0.09,0.106
				c-0.023,0.035,0.053,0.063,0.075,0.095l0.832,0.744c1.109,0.991,2.215,1.981,3.32,2.969c4.398,3.934,8.762,7.835,13.072,11.69
				c2.193,1.935,4.36,3.846,6.492,5.726c8.525,7.519,16.481,14.536,23.301,20.552c13.64,12.03,22.733,20.051,22.733,20.051
				c4.844,4.272,12.236,3.809,16.509-1.035c4.273-4.846,3.81-12.237-1.034-16.51c0,0-9.093-8.021-22.733-20.051
				c-6.82-6.016-14.776-13.033-23.301-20.552c-2.125-1.875-4.321-3.812-6.553-5.779c0.771-0.874,1.553-1.762,2.336-2.648
				c32.08-36.374,64.16-72.748,64.16-72.748C209.017,247.998,208.553,240.606,203.708,236.333z M246.987,328.701
				c-4.846-4.272-5.312-11.662-1.037-16.509c0,0,16.583-18.803,41.456-47.006c12.438-14.101,26.947-30.553,42.493-48.18
				c3.887-4.407,7.838-8.887,11.838-13.422c1.066-1.191,1.828-2.122,2.713-3.15c0.82-1.041,1.677-2.063,2.451-3.144
				c1.615-2.119,3.048-4.369,4.433-6.647c5.441-9.13,8.885-19.635,8.993-29.552c0.025-4.927-0.808-9.627-2.525-13.604
				c-1.711-3.98-4.273-7.238-7.566-9.631c-3.238-2.423-7.228-3.833-11.556-4.46c-4.338-0.606-9.033-0.311-13.646,0.734
				c-4.621,1.023-9.157,2.775-13.404,4.972c-4.253,2.199-8.225,4.849-11.874,7.74c-3.655,2.927-6.841,6.144-9.872,9.469
				c-3.353,3.8-6.591,7.473-9.7,10.998c-24.874,28.203-41.456,47.004-41.456,47.004c-4.272,4.844-11.665,5.309-16.511,1.036
				c-4.844-4.272-5.307-11.666-1.034-16.51c0,0,16.583-18.802,41.456-47.005c3.109-3.525,6.348-7.197,9.7-10.998
				c3.778-4.176,7.994-8.415,12.758-12.226c4.785-3.803,10.052-7.327,15.849-10.321c5.796-2.986,12.122-5.46,18.982-6.99
				c6.84-1.535,14.256-2.131,21.907-1.084c7.604,1.053,15.538,3.798,22.224,8.767c6.715,4.852,12.05,11.761,15.233,19.259
				c3.227,7.509,4.47,15.437,4.43,23.026c-0.094,7.6-1.392,14.946-3.553,21.853c-2.15,6.917-5.143,13.416-8.706,19.448
				c-1.811,2.996-3.698,5.928-5.784,8.679c-1.012,1.4-2.106,2.727-3.175,4.068c-1.091,1.283-2.269,2.686-3.221,3.746
				c-3.999,4.535-7.95,9.016-11.837,13.422c-15.546,17.626-30.055,34.078-42.491,48.179c-24.873,28.202-41.455,47.004-41.455,47.004
				C259.224,332.51,251.833,332.973,246.987,328.701z M191.87,391.13c-1.183-1.101-2.09-2.389-2.745-3.747
				c-0.645-1.374-1.082-2.743-1.162-4.263c-0.188-2.987,0.765-6.047,2.901-8.47l25.663-29.099
				c4.272-4.844,11.666-5.309,16.512-1.036c4.846,4.271,5.31,11.662,1.038,16.506l-25.663,29.098
				c-2.137,2.423-5.053,3.751-8.042,3.938c-1.469,0.077-3.081-0.044-4.519-0.54C194.401,393.034,193.052,392.229,191.87,391.13z"/>
		</g>
	</g>
</g>
<rect x="176.471" y="378.004" transform="matrix(0.75 0.6614 -0.6614 0.75 305.6819 -28.451)" width="28.015" height="24.295"/>
<g>
	<g>
		<path d="M286.049,143.328c11.813,10.167,23.625,20.333,35.438,30.5c4.86,4.183,11.967-2.857,7.07-7.071
			c-11.813-10.167-23.625-20.333-35.438-30.5C288.259,132.073,281.152,139.114,286.049,143.328L286.049,143.328z"/>
	</g>
</g>
<g>
	<g>
		<path d="M268.33,165.058c11.813,10.167,23.625,20.333,35.438,30.5c4.86,4.183,11.967-2.857,7.07-7.071
			c-11.813-10.167-23.625-20.333-35.438-30.5C270.54,153.803,263.434,160.844,268.33,165.058L268.33,165.058z"/>
	</g>
</g>
<g>
	<g>
		<path d="M246.722,186.788c11.813,10.167,23.625,20.333,35.438,30.5c4.86,4.183,11.967-2.857,7.07-7.071
			c-11.813-10.167-23.625-20.333-35.437-30.5C248.933,175.533,241.827,182.574,246.722,186.788L246.722,186.788z"/>
	</g>
</g>
<path d="M452.793,74.657c0,0-7.763,31.072-8.181,85.802c-0.417,54.73-5.253,78.369,8.826,74.576
	C475.34,229.134,452.793,74.657,452.793,74.657z"/>
</svg>
