<?xml version="1.0" encoding="utf-8"?>
<!-- Generator: Adobe Illustrator 19.0.1, SVG Export Plug-In . SVG Version: 6.00 Build 0)  -->
<svg version="1.1" id="Слой_1" xmlns="http://www.w3.org/2000/svg" x="0px" y="0px"
     viewBox="0 0 512 512" style="enable-background:new 0 0 512 512;" xml:space="preserve">
<style type="text/css">
	.st0{fill:#201600;}
</style>
<g>
	<g>
		<path class="st0" d="M90,58.9c-0.5,24-31.2,35.8-46.8,16.8c-15.2-18.5,1.6-47.4,25.3-42.7C81,35.4,89.7,46.2,90,58.9
			c0.2,9.6,15.2,9.7,15,0c-0.4-17.5-11-32.8-27.4-39c-16.1-6-35.1-0.6-45.8,12.6C20.8,45.9,19.1,65.1,27.9,80
			c9,15.2,26.6,22.6,43.8,19.5c19.4-3.6,32.9-21.3,33.2-40.6C105.2,49.2,90.2,49.2,90,58.9z"/>
	</g>
</g>
<g>
	<g>
		<path class="st0" d="M358.5,58.9c-0.5,24-31.2,35.8-46.8,16.8c-15.2-18.5,1.6-47.4,25.3-42.7C349.5,35.4,358.2,46.2,358.5,58.9
			c0.2,9.6,15.2,9.7,15,0c-0.4-17.5-11-32.8-27.4-39c-16.1-6-35.1-0.6-45.8,12.6c-10.9,13.4-12.6,32.5-3.8,47.4
			c9,15.2,26.6,22.6,43.8,19.5c19.4-3.6,32.9-21.3,33.2-40.6C373.7,49.2,358.7,49.2,358.5,58.9z"/>
	</g>
</g>
<g>
	<g>
		<path class="st0" d="M54.9,93.1c-4.8,24.8-5.7,51.1-3.8,76.2c3.3,45,17.5,92.6,54.5,121.4c22.9,17.9,51.1,26.1,79.9,27.9
			c30.3,1.9,62.1-2.2,89.1-16.7c42.8-22.9,62.5-68.7,68.5-114.8c3.9-29.8,2.2-59.8-1.2-89.5c0-0.4,0-1-0.1-1.4c0-0.1,0-0.4,0-0.4
			c-0.2-0.1-0.5,2.9-0.3,2.1c-0.7,2.5-3,5.4-6,5.9c4.7-0.8,7.3-6.5,6.1-10.8c-1.4-4.9-6.1-6.9-10.8-6.1c-10.6,1.8-5.5,20.3-4.8,26.9
			c1.5,16.2,2.2,32.6,1.5,48.8c-0.2,4.9-0.5,9.8-1,14.6c-0.2,2.5-0.5,5-0.8,7.5c-0.1,0.6-0.2,1.3-0.2,1.9c-0.2,1.5,0.3-2.1,0,0.3
			c-0.2,1.4-0.4,2.8-0.6,4.2c-1.7,10.5-4.1,20.8-7.4,30.8c-0.8,2.5-1.7,5-2.7,7.5c-1.4,3.5-1.2,3-2.5,6c-2.2,4.8-4.7,9.5-7.5,14.1
			c-5.8,9.5-11.5,16.5-20.4,24.3c-7.1,6.3-18.5,13.3-27.5,17.1c-12.8,5.3-26.8,8.4-40.3,9.7c-15.4,1.4-31.6,1.2-46.6-1.3
			c-13.2-2.2-26.1-6.1-37.2-11.8c-20.2-10.5-34.7-25.7-45.3-45.7c-5.2-9.8-8.2-17.6-11.5-29c-1.5-5.1-2.7-10.3-3.8-15.5
			c-0.5-2.6-1-5.1-1.4-7.7c-0.2-1.3-0.4-2.6-0.6-3.9c-0.1-0.5-0.1-1-0.2-1.5c-0.3-2.1,0.1,1.2-0.1-0.7c-2.4-18.5-2.8-37.2-1.6-55.8
			c0.4-6.7,1-13.3,1.8-19.9c0.1-0.6,0.1-1.1,0.2-1.7c0.3-2.3-0.2,1.6-0.1,0.4c0.2-1.1,0.3-2.2,0.5-3.3c0.2-1.4,0.4-2.8,0.7-4.1
			c0.1-0.5,0.2-1,0.3-1.4C73.9,86.8,57,82.1,54.9,93.1L54.9,93.1z"/>
	</g>
</g>
<g>
	<g>
		<path class="st0" d="M468.2,303.9c-1.4-17.8-3.7-35.6-6.4-53.3c-0.7-4.7-6.6-7.3-10.8-6.1c-5,1.4-6.8,6.1-6.1,10.8
			c2.5,16.1,4.5,32.3,5.8,48.6C451.6,315,469.1,315.1,468.2,303.9L468.2,303.9z"/>
	</g>
</g>
<g>
	<g>
		<path class="st0" d="M469.6,332.9c0-1.7-0.1-3.4-0.1-5.1c-0.1-2.3-0.9-4.6-2.6-6.2c-1.5-1.5-4-2.7-6.2-2.6
			c-2.3,0.1-4.6,0.8-6.2,2.6c-1.5,1.7-2.6,3.8-2.6,6.2c0,1.7,0.1,3.4,0.1,5.1c0,2.3,0.9,4.6,2.6,6.2c1.5,1.5,4,2.7,6.2,2.6
			c2.3-0.1,4.6-0.8,6.2-2.6C468.6,337.4,469.7,335.3,469.6,332.9L469.6,332.9z"/>
	</g>
</g>
<g>
	<g>
		<path class="st0" d="M274.9,502.8c31.4-5.9,46.4-35.9,51.8-64.7c3.2-17.1,3.7-34.4,3.9-51.7c0.1-11.8,0.2-23.6,1-35.3
			c0.4-6.2,1.2-12.7,3.8-18.4c2.3-5.2,6.5-9.7,12.6-9.7c4.9-0.1,8.4,4.6,10.9,9.3c8.5,15.8,10.1,35.3,11.5,52.9
			c1.6,19.7,1.9,40.2,10,58.6c7.8,17.7,25.2,31.1,45.1,24.4c20-6.7,33-26.1,38.6-45.5c5.7-19.8,5.3-40.9,5.5-61.4
			c0.1-11.3-17.4-11.3-17.5,0c-0.2,17.5,0.3,35.3-3.8,52.4c-3.5,14.7-11.7,31.6-26.8,37.4c-17.4,6.7-26.3-14-29.3-27.6
			c-4.4-19.6-3.7-40.2-6.5-60.1c-2.2-15.4-5.7-33-15.4-45.7c-10.5-13.9-28.8-16.1-42.1-4.5c-12,10.4-13.6,28.1-14.3,42.8
			c-1,20.5-0.1,41.2-1.9,61.7c-2.4,27.1-10.5,62.3-41.6,68.2c-4.6,0.9-7.3,6.5-6.1,10.8C265.4,501.6,270.2,503.7,274.9,502.8
			L274.9,502.8z"/>
	</g>
</g>
<g>
	<g>
		<path class="st0" d="M217.9,498.7c9.2,2.8,18.6,4.7,28.2,5.5c11.2,0.9,11.2-16.6,0-17.5c-8-0.7-15.8-2.5-23.5-4.9
			C211.7,478.5,207.1,495.4,217.9,498.7L217.9,498.7z"/>
	</g>
</g>
<g>
	<g>
		<path class="st0" d="M186.8,313.1c-0.9,30.2-7.3,59.8-9.1,90c-1.6,27.4,0.7,57.6,19.5,79.1c7.4,8.5,19.8-3.9,12.4-12.4
			c-16.7-19-15.9-48.7-14-72.4c2.2-28.2,7.9-56,8.7-84.3C204.6,301.9,187.1,301.9,186.8,313.1L186.8,313.1z"/>
	</g>
</g>
<g>
	<g>
		<path class="st0" d="M485.6,207.5c-0.3,15.5-9.8,29.9-24.7,35.1c-14.9,5.2-31.7,0.7-41.7-11.6c-9.8-12-11-29.5-3-42.7
			c7.9-13.2,23.7-20.4,38.9-17.5C472.8,174.2,485.3,189.7,485.6,207.5c0.1,6.4,10.1,6.4,10,0c-0.3-19.9-12.6-37.6-31.4-44.6
			c-18.5-6.8-40-0.7-52.5,14.5c-12.5,15.3-14.3,37.4-4.1,54.4c10.3,17.2,30.6,25.9,50.2,22.1c22-4.3,37.4-24.3,37.8-46.4
			C495.7,201.1,485.7,201.1,485.6,207.5z"/>
	</g>
</g>
<g>
	<g>
		<path class="st0" d="M466.5,207.5c-0.3,10-8.1,18.3-18.3,18.3c-10,0-18.2-8.3-18.3-18.3c0-10,8.3-18.3,18.3-18.3
			C458.4,189.3,466.2,197.6,466.5,207.5c0.2,6.4,10.2,6.4,10,0c-0.3-11.8-7.3-22.3-18.5-26.5c-11.1-4.1-23.9-0.7-31.5,8.4
			c-16.7,20.1,1.6,50.5,27.1,45.8c13.4-2.4,22.5-14.5,22.9-27.7C476.7,201.1,466.7,201.1,466.5,207.5z"/>
	</g>
</g>
<g>
	<g>
		<path class="st0" d="M232.4,195.4c-0.3,16.6-11.6,37.4-29.3,40.4c-18.1,3.1-31.9-15.8-35.6-31.3c-2.7-11.2-2.2-28.4,6.7-36.9
			c5.5-5.3,13.6-7.3,21-8.3c8.1-1.2,17.8-1.8,25.4,1.8C233.3,167,232.4,183.6,232.4,195.4c0,6.4,10,6.4,10,0
			c0-14.6-0.2-31.9-13.5-41.1c-8.4-5.8-19.7-6.3-29.5-5.5c-10.1,0.9-20.7,2.9-29,9.1c-13.5,10-15.8,29.7-13.3,45.3
			c3.3,20.3,20,42.9,42.3,42.9c25.3,0,42.6-27.8,43-50.7C242.5,188.9,232.5,188.9,232.4,195.4z"/>
	</g>
</g>
<g>
	<g>
		<path class="st0" d="M185.4,121.8c-0.4,11.8-12.9,19.9-23.6,14c-4.8-2.6-8.1-7.8-8.3-13.3c-0.1-4.4,2.4-8.5,4.9-11.9
			c2.9-4,6.6-7.8,10.7-10.6c2.7-1.8,7.5-5.1,10.9-3.3c3.2,1.7,4,7,4.5,10.2C185.4,111.8,185.4,116.9,185.4,121.8c0,6.4,10,6.4,10,0
			c0-10,0.1-23.5-7.3-31.2c-8.1-8.4-20-2.6-27.5,3.4c-8.2,6.6-17.3,17.3-17,28.5c0.3,12.9,10.5,23.7,23.2,25.1
			c15.5,1.7,28.2-10.7,28.7-25.8C195.6,115.4,185.6,115.4,185.4,121.8z"/>
	</g>
</g>
<g>
	<g>
		<path class="st0" d="M242.1,119.8c-0.4,11.8-12.9,19.9-23.6,14c-10-5.4-9-18-7.5-27.7c0.5-3.3,1.2-9,4.3-11.1
			c3.1-2.1,7.7,0.7,10.3,2.4C232.6,101.8,241.8,110.9,242.1,119.8c0.2,6.4,10.2,6.4,10,0c-0.4-11.3-9.1-21.6-17.5-28.2
			c-7.6-6-19.5-11.3-27.3-2.7c-7.1,7.7-7.5,21.7-7,31.6c0.6,12.9,10.3,23.7,23.2,25.1c15.5,1.7,28.2-10.7,28.7-25.8
			C252.4,113.4,242.4,113.4,242.1,119.8z"/>
	</g>
</g>
<g>
	<g>
		<path class="st0" d="M143.5,169.5c-0.3,9.4-10,16.1-18.9,11.9c-8.7-4.2-8.3-14-5.3-21.7c1.9-5,7.3-15.8,14.1-11.6
			C139.7,152,143.3,162.3,143.5,169.5c0.2,6.4,10.2,6.4,10,0c-0.2-9.8-4.6-21-11.9-27.6c-7.6-6.9-17.3-5.9-24.1,1.6
			c-6.6,7.3-11.3,18.8-10.1,28.7c1.3,11.1,10.5,19.7,21.6,20.4c13.5,0.9,24-10.1,24.5-23.1C153.7,163,143.7,163,143.5,169.5z"/>
	</g>
</g>
<g>
	<g>
		<path class="st0" d="M278.5,165.7c-0.4,10.2-11.7,17-20.5,10.9c-8-5.5-6-15.8-3.4-23.7c1.9-5.7,6.1-15.7,13-9.8
			C273.6,148.1,278.3,157.8,278.5,165.7c0.2,6.4,10.2,6.4,10,0c-0.4-15.2-19.6-48.6-36.5-28.9c-6.3,7.4-9.8,18.8-9.8,28.5
			c-0.1,11.8,8.7,22,20.5,23.4c13.9,1.6,25.4-9.4,25.9-23C288.7,159.2,278.7,159.2,278.5,165.7z"/>
	</g>
</g>
</svg>
